<?xml version="1.0" standalone="no"?>
<!DOCTYPE svg PUBLIC "-//W3C//DTD SVG 20010904//EN"
 "http://www.w3.org/TR/2001/REC-SVG-20010904/DTD/svg10.dtd">
<svg version="1.0" xmlns="http://www.w3.org/2000/svg"
 width="200.000000pt" height="200.000000pt" viewBox="0 0 200.000000 200.000000"
 preserveAspectRatio="xMidYMid meet">
<metadata>
Created by potrace 1.14, written by Peter Selinger 2001-2017
</metadata>
<g transform="translate(0.000000,200.000000) scale(0.100000,-0.100000)"
fill="#000000" stroke="none">
<path d="M90 1950 c0 -5 17 -12 38 -16 20 -4 53 -15 73 -25 41 -21 105 -88
120 -127 27 -72 349 -1114 349 -1131 0 -25 -123 -419 -143 -457 -32 -61 -108
-116 -180 -129 -83 -16 -27 -25 153 -25 105 0 190 4 190 8 0 4 -20 13 -45 20
-51 14 -85 56 -85 106 0 38 122 429 130 419 4 -5 45 -131 91 -280 46 -150 88
-271 94 -270 5 2 71 200 146 441 75 240 138 439 141 441 9 9 228 -715 228
-755 0 -51 -39 -95 -93 -105 -93 -18 -15 -25 268 -25 177 0 305 4 305 9 0 5
-18 12 -39 16 -50 8 -121 53 -154 96 -30 41 -25 24 -226 670 l-161 516 56 179
c30 99 62 201 71 228 28 87 116 164 206 180 20 4 37 11 37 16 0 13 -377 13
-384 1 -3 -5 9 -12 28 -15 47 -9 84 -41 96 -84 10 -33 6 -56 -50 -237 -34
-110 -65 -203 -69 -207 -4 -5 -26 54 -50 130 -107 344 -133 422 -140 422 -4 0
-70 -200 -146 -445 -76 -245 -141 -442 -145 -438 -15 19 -224 712 -224 745 -1
51 30 90 87 109 26 8 44 19 40 22 -10 11 -613 8 -613 -3z m974 -693 l87 -278
-72 -232 c-39 -128 -76 -243 -81 -257 -8 -21 -22 15 -94 245 -46 148 -84 277
-84 285 0 14 153 520 156 517 1 -1 41 -127 88 -280z"/>
</g>
</svg>
