<svg width="20" height="41" viewBox="0 0 20 41" fill="none" xmlns="http://www.w3.org/2000/svg">
<path d="M10.9346 41C10.3112 41 9.68879 41 9.06542 41C8.96168 40.9716 8.85981 40.9341 8.75421 40.9176C4.5729 40.2541 1.79813 37.9543 0.466355 34.0236C0.220561 33.2979 0.151402 32.5135 0 31.7567C0 24.7098 0 17.6629 0 10.6161C0.211215 9.9663 0.670093 9.7192 1.35327 9.76313C1.89065 9.79699 2.43271 9.76953 3.01402 9.76953C3.01402 9.52701 3.01402 9.34672 3.01402 9.16643C3.01402 6.54536 3.02336 3.92337 3.00748 1.3023C3.00374 0.712009 3.18318 0.267232 3.73832 0C7.91308 0 12.0869 0 16.2617 0C16.815 0.268147 16.9963 0.711094 16.9935 1.3023C16.9776 3.93893 16.986 6.57464 16.9879 9.21127C16.9879 9.38699 17.0047 9.56179 17.015 9.76953C17.5935 9.76953 18.1215 9.79607 18.6467 9.76313C19.329 9.72011 19.7916 9.96263 20.0009 10.6161C20.0009 17.6629 20.0009 24.7098 20.0009 31.7567C19.9729 31.8894 19.9318 32.0203 19.9196 32.1539C19.5533 36.1331 16.6505 39.5522 12.7037 40.6266C12.1234 40.784 11.5243 40.8774 10.9346 41ZM2.03271 11.7381C2.03271 11.911 2.03271 12.0465 2.03271 12.1819C2.03271 18.4958 2.02991 24.8096 2.03832 31.1243C2.03925 31.6249 2.07664 32.1319 2.15794 32.6261C2.83925 36.7536 7.13458 39.7096 11.3122 38.9399C15.2981 38.206 17.957 35.0907 17.9645 31.1023C17.9757 24.8041 17.9682 18.5049 17.9673 12.2057C17.9673 12.0575 17.9542 11.9092 17.9467 11.7381C12.6458 11.7381 7.3729 11.7381 2.03271 11.7381ZM14.9467 1.97679C11.6196 1.97679 8.34112 1.97679 5.05327 1.97679C5.05327 4.57864 5.05327 7.14938 5.05327 9.74482C8.36075 9.74482 11.6393 9.74482 14.9467 9.74482C14.9467 7.14938 14.9467 4.57864 14.9467 1.97679Z" fill="#CA393F"/>
<path d="M8.98503 5.87277C8.98596 5.87277 8.9869 5.87277 8.98783 5.87277C8.98783 5.52317 9.00466 5.17174 8.98409 4.82306C8.95232 4.30049 8.57008 3.94174 8.05699 3.91978C7.52615 3.89781 7.05325 4.24924 7.02709 4.76815C6.9897 5.49663 6.9897 6.22969 7.02989 6.95817C7.05699 7.45786 7.51587 7.80288 8.02428 7.79464C8.5411 7.78732 8.94297 7.43589 8.98036 6.92156C9.00559 6.57379 8.98503 6.22237 8.98503 5.87277ZM12.9869 5.89382C12.9869 5.54422 13.0047 5.19279 12.9832 4.84411C12.9495 4.28951 12.5215 3.90971 11.9738 3.91886C11.4402 3.9271 11.0346 4.29409 11.0159 4.8377C10.9934 5.5067 10.9944 6.17661 11.014 6.8456C11.0308 7.41667 11.4392 7.79373 11.9906 7.79464C12.5355 7.79556 12.9523 7.40935 12.985 6.85201C13.0028 6.53444 12.9878 6.21413 12.9869 5.89382Z" fill="white"/>
<path d="M14.9776 15.0967C14.9776 14.64 14.9626 14.1833 14.9813 13.7276C15.0066 13.0988 15.415 12.6989 15.9935 12.7044C16.5533 12.7099 16.9626 13.0979 16.9776 13.7065C17 14.6492 16.9991 15.5927 16.9785 16.5363C16.9654 17.1631 16.5355 17.5759 15.9682 17.5677C15.4028 17.5603 15.0019 17.1421 14.9804 16.5106C14.9654 16.0402 14.9776 15.568 14.9776 15.0967Z" fill="#CA393F"/>
<path d="M8.98506 5.87273C8.98506 6.22233 9.00562 6.57375 8.98039 6.92244C8.943 7.43585 8.54114 7.78728 8.02431 7.79552C7.51497 7.80284 7.05702 7.45873 7.02992 6.95904C6.99067 6.23056 6.99067 5.4975 7.02712 4.76902C7.05329 4.25012 7.52618 3.89869 8.05702 3.92065C8.57011 3.9417 8.95235 4.30045 8.98413 4.82393C9.00562 5.17262 8.98786 5.52404 8.98786 5.87364C8.98693 5.87273 8.986 5.87273 8.98506 5.87273Z" fill="#CA393F"/>
<path d="M12.9878 5.89382C12.9878 6.21322 13.0028 6.53353 12.985 6.85201C12.9532 7.41027 12.5355 7.79647 11.9906 7.79464C11.4392 7.79373 11.0299 7.41576 11.014 6.8456C10.9944 6.17661 10.9934 5.50578 11.0159 4.8377C11.0345 4.29409 11.4401 3.9271 11.9738 3.91886C12.5215 3.90971 12.9495 4.28951 12.9831 4.84411C13.0046 5.19279 12.9869 5.54422 12.9878 5.89382Z" fill="#CA393F"/>
</svg>
