<svg width="32" height="39" viewBox="0 0 32 39" fill="none" xmlns="http://www.w3.org/2000/svg">
<path d="M31.4376 31.737C31.4376 33.9324 31.4376 36.1286 31.4376 38.324C29.7407 38.324 28.0446 38.324 26.3477 38.324C26.3694 37.9565 26.3904 37.5889 26.4143 37.1825C27.7265 37.1825 29.0147 37.1825 30.3149 37.1825C30.3149 35.672 30.3193 34.2019 30.3044 32.7318C30.3036 32.6255 30.1809 32.4721 30.0761 32.4234C29.5349 32.1712 28.9623 31.9833 28.4368 31.7049C27.3956 31.1517 26.3058 30.9024 25.1336 31.0342C24.927 31.0574 24.7107 31.0813 24.5221 31.1599C23.5573 31.5604 22.6037 31.9878 21.6373 32.386C21.4083 32.4803 21.3222 32.5888 21.3259 32.8448C21.3424 33.916 21.3327 34.9878 21.3327 36.059C21.3327 36.4295 21.3327 36.7992 21.3327 37.2102C22.6583 37.2102 23.945 37.2102 25.2384 37.2102C25.2609 37.6091 25.2803 37.9669 25.2998 38.3247C16.8768 38.3247 8.45298 38.3247 0 38.3247C0 36.1293 0 33.9332 0 31.7378C0.563632 31.5102 1.12951 31.2887 1.69015 31.0544C2.28222 30.8074 2.86981 30.5484 3.55994 30.2512C3.15873 29.877 2.7987 29.5686 2.47609 29.2265C2.35558 29.0985 2.25752 28.8912 2.25528 28.719C2.23731 27.4091 2.2418 26.0992 2.24629 24.7893C2.25004 23.7324 2.94466 23.0341 4.00381 23.0236C4.77702 23.0161 5.55099 23.0228 6.3242 23.0206C6.45594 23.0206 6.58693 23.0086 6.71193 23.0026C6.71193 22.2406 6.71193 21.5221 6.71193 20.7563C5.96117 20.7563 5.23437 20.7563 4.51654 20.7563C4.51654 19.6156 4.51654 18.5235 4.51654 17.3917C5.44769 17.3917 6.35265 17.3917 7.29727 17.3917C7.29727 17.2046 7.29727 17.0579 7.29727 16.9105C7.29727 15.1761 7.30176 13.4426 7.29203 11.7083C7.29054 11.456 7.35266 11.3437 7.61539 11.2719C9.25988 10.819 10.8901 10.3108 12.5421 9.88938C13.1364 9.73818 13.4613 9.47321 13.5826 8.87589C13.632 8.63262 13.6117 8.48816 13.4358 8.32274C13.0451 7.95522 12.6589 7.58096 12.3018 7.182C12.1761 7.04203 12.0765 6.82122 12.0743 6.63633C12.0563 5.1393 12.0953 3.64153 12.0533 2.14599C12.0234 1.09957 12.3789 0.35779 13.3984 0C15.3947 0 17.3902 0 19.3865 0C19.382 1.78221 19.3798 3.56518 19.3731 5.34739C19.3708 5.88258 19.5026 6.47615 19.3124 6.93574C19.1223 7.39533 18.6343 7.75387 18.2241 8.09295C17.8221 8.42529 17.766 8.7479 17.9614 9.21721C18.0879 9.52186 18.2301 9.68878 18.5572 9.77935C20.3095 10.2606 22.052 10.7764 23.8035 11.2614C24.076 11.337 24.1471 11.4583 24.1456 11.7255C24.1344 13.4583 24.1396 15.1911 24.1404 16.9239C24.1404 17.0706 24.1404 17.2173 24.1404 17.4172C25.0985 17.4172 26.0116 17.4172 26.9233 17.4172C26.9233 18.5617 26.9233 19.6515 26.9233 20.7915C26.1748 20.7915 25.448 20.7915 24.7257 20.7915C24.7257 21.5572 24.7257 22.2736 24.7257 23.0221C25.6329 23.0221 26.5161 23.0176 27.3994 23.0236C28.5027 23.0303 29.1883 23.7227 29.1913 24.8297C29.1943 26.1142 29.1853 27.3979 29.1981 28.6823C29.2003 28.9294 29.1247 29.1008 28.9481 29.2654C28.6082 29.5828 28.2879 29.9196 27.9316 30.2759C28.6052 30.5634 29.21 30.8253 29.8186 31.0798C30.356 31.3029 30.8979 31.5177 31.4376 31.737ZM25.8118 18.5624C19.0647 18.5624 12.3505 18.5624 5.63856 18.5624C5.63856 18.9367 5.63856 19.2788 5.63856 19.6597C8.81376 19.6597 11.965 19.6597 15.123 19.6597C15.123 20.052 15.123 20.4038 15.123 20.7937C12.6873 20.7937 10.2868 20.7937 7.86016 20.7937C7.86016 21.5423 7.85417 22.2519 7.86839 22.9607C7.86989 23.0415 7.96794 23.1501 8.04878 23.195C8.6925 23.5498 8.98443 24.0969 8.98293 24.8208C8.97993 26.1179 8.99041 27.4159 8.97245 28.713C8.9702 28.8867 8.87514 29.091 8.75763 29.2243C8.441 29.5828 8.08845 29.9107 7.72467 30.2774C8.68876 30.6899 9.59147 31.0798 10.4987 31.4593C10.5907 31.4983 10.7247 31.5095 10.8138 31.4721C11.7315 31.0888 12.6439 30.6929 13.6559 30.2587C13.2607 29.8852 12.8977 29.5656 12.5668 29.2153C12.4538 29.0955 12.3617 28.9009 12.3595 28.7385C12.343 27.4166 12.346 26.094 12.352 24.7714C12.3565 23.7384 13.0541 23.0356 14.0908 23.0258C15.1761 23.0161 16.2615 23.0161 17.3468 23.0258C18.3835 23.0356 19.0804 23.7384 19.0856 24.7721C19.0916 26.0947 19.0946 27.4166 19.0781 28.7392C19.0759 28.9009 18.9846 29.0963 18.8716 29.216C18.5407 29.5663 18.1777 29.8867 17.787 30.2565C18.5332 30.5768 19.2106 30.8089 19.8274 31.1495C20.4943 31.5177 21.0827 31.496 21.7414 31.142C22.3574 30.8104 23.0243 30.5731 23.7579 30.2557C23.3492 29.8695 22.9861 29.5476 22.6523 29.1973C22.5468 29.0865 22.4652 28.9017 22.4637 28.7497C22.4495 27.4398 22.4577 26.1299 22.4547 24.82C22.4532 24.0954 22.7459 23.5483 23.3903 23.1965C23.4659 23.1553 23.5677 23.0662 23.5685 22.9981C23.5812 22.2661 23.5767 21.534 23.5767 20.7661C21.1268 20.7661 18.7249 20.7661 16.3012 20.7661C16.3012 20.3858 16.3012 20.0422 16.3012 19.6485C19.4823 19.6485 22.6426 19.6485 25.8118 19.6485C25.8118 19.2623 25.8118 18.9277 25.8118 18.5624ZM10.1042 37.1832C10.1042 35.6615 10.1087 34.1667 10.093 32.6727C10.0922 32.5829 9.95076 32.4601 9.84671 32.4129C9.30329 32.1652 8.73068 31.9743 8.20597 31.6929C7.15131 31.1263 6.04126 30.9114 4.85861 31.0334C4.68795 31.0506 4.51055 31.0754 4.35486 31.1405C3.36757 31.5537 2.38776 31.9885 1.39823 32.3957C1.17367 32.4878 1.11304 32.6068 1.11678 32.8374C1.13101 33.648 1.12202 34.4586 1.12202 35.2693C1.12202 35.9018 1.12202 36.5343 1.12202 37.1832C4.12432 37.1832 7.08769 37.1832 10.1042 37.1832ZM20.1665 37.193C20.18 37.1383 20.2069 37.0822 20.2069 37.0253C20.2092 35.5911 20.2144 34.157 20.1987 32.7228C20.1979 32.618 20.0684 32.4661 19.9621 32.4197C18.9606 31.9766 17.9718 31.487 16.9344 31.1472C16.3895 30.9683 15.7555 31.0387 15.1627 31.0417C14.8745 31.0432 14.5691 31.1068 14.3011 31.2153C13.3662 31.5926 12.4471 32.0102 11.5144 32.3927C11.2966 32.4826 11.2195 32.5888 11.2217 32.8269C11.2337 34.1862 11.227 35.5455 11.2285 36.9048C11.2285 36.9991 11.2457 37.0934 11.2554 37.1937C14.2383 37.193 17.1926 37.193 20.1665 37.193ZM11.7884 17.406C12.3752 17.406 12.9201 17.4157 13.4635 17.3947C13.5421 17.3917 13.6559 17.2555 13.6851 17.1597C14.1372 15.6851 14.5833 14.2083 15.0122 12.727C15.0489 12.6013 15.0002 12.4029 14.9164 12.2981C14.5654 11.8617 14.1739 11.4575 13.8206 11.0226C13.6477 10.8101 13.4935 10.7554 13.2188 10.837C11.7405 11.2779 10.2562 11.7008 8.76885 12.111C8.50762 12.1828 8.41106 12.2824 8.41331 12.5623C8.42753 14.0579 8.4193 15.5534 8.42079 17.0489C8.42079 17.1567 8.43651 17.2645 8.44624 17.3805C9.19326 17.3805 9.90884 17.3805 10.6686 17.3805C10.6686 16.6372 10.6686 15.9194 10.6686 15.1844C11.0563 15.1844 11.3999 15.1844 11.7869 15.1844C11.7884 15.9217 11.7884 16.6395 11.7884 17.406ZM17.8176 17.3858C18.4374 17.3858 19.0198 17.3858 19.6448 17.3858C19.6448 16.647 19.6448 15.9284 19.6448 15.1949C20.0392 15.1949 20.3895 15.1949 20.772 15.1949C20.772 15.8483 20.781 16.4703 20.7675 17.0916C20.7623 17.3364 20.8446 17.4187 21.0894 17.4127C21.6246 17.3985 22.1613 17.3985 22.6972 17.4127C22.9382 17.4187 23.0228 17.3423 23.0213 17.0946C23.0123 15.5616 23.0138 14.0287 23.0206 12.4957C23.0213 12.2869 22.9577 12.1873 22.7496 12.1289C21.2047 11.6955 19.6635 11.2464 18.1171 10.8175C18.004 10.7861 17.8124 10.8333 17.7346 10.9163C17.3087 11.3699 16.8992 11.8415 16.5018 12.3206C16.4284 12.4089 16.3798 12.578 16.4104 12.6836C16.8685 14.2457 17.3416 15.8049 17.8176 17.3858ZM7.85941 26.5663C7.85941 25.981 7.8639 25.3956 7.85791 24.8095C7.85342 24.3514 7.65806 24.1493 7.19622 24.1463C6.13707 24.1396 5.07867 24.1389 4.01953 24.1463C3.56293 24.1493 3.37206 24.3537 3.36907 24.8193C3.36457 25.5296 3.36532 26.2392 3.36832 26.9495C3.37056 27.4847 3.23508 28.0805 3.4267 28.5379C3.61832 28.996 4.14004 29.3156 4.51654 29.6958C4.53376 29.7138 4.54798 29.7393 4.56968 29.7482C4.70067 29.8036 4.83092 29.8957 4.9649 29.9009C6.45444 29.9563 6.45444 29.9526 7.5106 28.8972C7.56374 28.844 7.6341 28.8006 7.66629 28.737C7.74039 28.591 7.84444 28.4383 7.85042 28.2849C7.87213 27.713 7.85941 27.1397 7.85941 26.5663ZM13.4733 26.5349C13.4793 26.5349 13.4845 26.5349 13.4905 26.5349C13.4905 27.207 13.3498 27.9219 13.5369 28.5371C13.6754 28.9907 14.2427 29.3126 14.6185 29.6936C14.6275 29.7026 14.635 29.7146 14.6454 29.719C14.7974 29.7827 14.9448 29.8762 15.1028 29.9032C16.1387 30.0783 17.0018 29.8029 17.6133 28.9024C17.6612 28.8313 17.7518 28.7871 17.7929 28.7145C17.8618 28.5925 17.9539 28.4585 17.9554 28.3283C17.9681 27.1576 17.9651 25.9862 17.9614 24.8155C17.9599 24.3537 17.7645 24.1508 17.3049 24.1478C16.2458 24.1404 15.1874 24.1404 14.1282 24.1478C13.6686 24.1508 13.477 24.3529 13.4733 24.8163C13.4695 25.3889 13.4733 25.9615 13.4733 26.5349ZM28.0693 26.573C28.0693 25.9877 28.0731 25.4024 28.0678 24.8163C28.0641 24.3529 27.8717 24.1501 27.4129 24.1471C26.3537 24.1396 25.2953 24.1396 24.2362 24.1471C23.7751 24.1501 23.5827 24.3514 23.579 24.814C23.5737 25.5244 23.5752 26.234 23.5782 26.9443C23.5805 27.4795 23.4412 28.0775 23.6351 28.5319C23.8357 29.0005 24.3544 29.3388 24.7549 29.7116C24.8679 29.8171 25.0476 29.8755 25.2062 29.9024C26.2414 30.0768 27.1067 29.8051 27.7168 28.9024C27.737 28.8717 27.7662 28.8455 27.7961 28.8231C28.0139 28.6614 28.088 28.4555 28.076 28.1793C28.0528 27.6449 28.0693 27.109 28.0693 26.573ZM15.5526 7.85941C16.8887 7.85941 16.8887 7.85941 17.4045 7.34293C18.2892 6.45819 18.2825 6.45819 18.257 5.17972C18.2525 4.96116 18.1739 4.87658 17.9801 4.81894C17.1103 4.55995 16.2458 4.286 15.3752 4.02926C15.269 3.99782 15.1275 4.00605 15.0257 4.04872C14.4763 4.28076 13.9321 4.52627 13.3902 4.77627C13.3108 4.81295 13.1956 4.90352 13.1978 4.9649C13.227 5.71416 13.0069 6.46792 13.751 7.11314C14.3535 7.63635 14.8797 8.05477 15.5526 7.85941ZM18.251 1.12577C16.7061 1.12577 15.2121 1.11828 13.7173 1.13175C13.3999 1.13475 13.206 1.35855 13.1963 1.66694C13.1761 2.29794 13.1903 2.93044 13.1903 3.61982C13.4261 3.51952 13.6327 3.46338 13.8041 3.35335C14.6761 2.79121 15.5534 2.74555 16.5055 3.18119C17.0407 3.4267 17.6365 3.53823 18.2278 3.71713C18.2383 3.59961 18.2503 3.527 18.2503 3.4544C18.2518 2.69615 18.251 1.93716 18.251 1.12577ZM15.7203 11.4957C16.0369 11.1342 16.2937 10.7771 16.614 10.4912C17.0093 10.1386 17.0549 9.78309 16.8446 9.31752C16.7405 9.08697 16.6604 8.947 16.3768 8.97544C16.0811 9.00464 15.7809 8.98218 15.4823 8.98218C14.6701 8.98218 14.6642 8.98068 14.4621 9.77186C14.4344 9.88115 14.4651 10.0473 14.5354 10.1326C14.9059 10.5825 15.2981 11.0151 15.7203 11.4957ZM16.6432 17.3843C16.3408 16.3827 16.0489 15.4172 15.7577 14.4516C15.7278 14.4568 15.6986 14.4628 15.6687 14.468C15.3805 15.4344 15.0923 16.4015 14.7989 17.3843C15.4374 17.3843 16.0152 17.3843 16.6432 17.3843Z" fill="white"/>
<path d="M21.314 21.9375C21.314 22.2758 21.314 22.6201 21.314 22.9907C20.9569 22.9907 20.6029 22.9907 20.2294 22.9907C20.2294 22.6463 20.2294 22.314 20.2294 21.9375C20.5767 21.9375 20.9352 21.9375 21.314 21.9375Z" fill="white"/>
</svg>
