<svg width="90" height="92" viewBox="0 0 90 92" fill="none" xmlns="http://www.w3.org/2000/svg">
<g clip-path="url(#clip0_139_206)">
<path d="M79.4537 92C61.2426 92 43.0298 92 24.8188 92C20.9945 90.9812 19.75 88.187 19.9857 85.0695C20.0643 84.0416 19.9982 83.003 19.9982 81.9375C16.4756 81.9375 13.0869 81.8926 9.70184 81.9609C8.48777 81.986 7.57186 81.7201 6.75237 80.7462C5.73826 79.5405 4.54562 78.4857 3.4351 77.3609C2.28531 76.1965 1.14444 75.0213 0 73.8516C0 51.9297 0 30.0078 0 8.08594C0.435636 7.39055 1.04446 7.16594 1.87109 7.17133C7.57365 7.20188 13.278 7.1875 18.9823 7.1875C19.2983 7.1875 19.6144 7.1875 19.9982 7.1875C19.9982 6.70055 20.0018 6.31781 19.9982 5.93508C19.9804 4.12742 20.5785 2.54078 21.9996 1.44109C22.8209 0.805 23.8725 0.470781 24.8206 0C43.0316 0 61.2444 0 79.4555 0C79.5626 0.0485156 79.6679 0.111406 79.7804 0.14375C82.6638 0.930781 84.2725 3.03492 84.276 6.0375C84.276 6.41125 84.276 6.7832 84.276 7.1875C85.6365 7.1875 86.8559 7.1857 88.0736 7.1875C89.5304 7.19109 89.9875 7.6493 89.9893 9.12273C89.9911 15.0201 89.9804 20.9192 90.0018 26.8166C90.0054 27.6 89.7536 28.1804 89.2037 28.7177C87.7736 30.1138 86.4006 31.5711 84.9563 32.9529C84.4349 33.4524 84.26 33.9609 84.26 34.6743C84.2796 51.8003 84.2742 68.9245 84.276 86.0506C84.276 88.0397 83.5547 89.7 81.9354 90.8392C81.1998 91.3585 80.2857 91.6209 79.4537 92ZM22.8548 80.9205C24.2635 80.7731 25.5722 80.5198 26.8827 80.5162C43.8993 80.4892 60.9177 80.4982 77.9343 80.4982C80.3785 80.4982 81.4176 79.4596 81.4176 77.0159C81.4176 53.4822 81.4176 29.9503 81.4176 6.41664C81.4176 3.89562 80.4053 2.8732 77.9057 2.8732C60.7392 2.8732 43.5744 2.8732 26.4078 2.8732C23.8654 2.8732 22.8548 3.89563 22.8548 6.46336C22.8548 31.0141 22.8548 55.5648 22.8548 80.1155C22.8548 80.4461 22.8548 80.7749 22.8548 80.9205ZM19.9536 38.8125C17.1862 38.8125 14.4849 38.8161 11.7818 38.8107C10.657 38.8089 10.0036 38.268 10.0054 37.3714C10.0071 36.4748 10.6588 35.9411 11.7872 35.9393C14.1975 35.9339 16.6077 35.9375 19.018 35.9375C19.3305 35.9375 19.6447 35.9375 19.9518 35.9375C19.9518 33.9609 19.9518 32.1155 19.9518 30.1875C19.6179 30.1875 19.3287 30.1875 19.0377 30.1875C16.747 30.1875 14.4546 30.1875 12.1639 30.1875C10.6909 30.1875 10.0214 29.7473 10.0054 28.7734C9.9875 27.7725 10.6802 27.3143 12.2067 27.3125C14.2903 27.3125 16.3721 27.3125 18.4556 27.3125C18.9502 27.3125 19.4447 27.3125 19.9286 27.3125C19.9286 21.4996 19.9286 15.7999 19.9286 10.1092C14.2189 10.1092 8.57704 10.1092 2.91198 10.1092C2.91198 30.7086 2.91198 51.2595 2.91198 71.875C4.7188 71.875 6.46849 71.8732 8.21817 71.875C9.53937 71.8768 9.99286 72.326 9.99643 73.6323C10 75.4184 9.99643 77.2045 9.99643 78.9996C13.3815 78.9996 16.6631 78.9996 19.9214 78.9996C19.9214 71.3216 19.9214 63.7064 19.9214 56.0625C17.1112 56.0625 14.3742 56.0697 11.6372 56.0589C10.6392 56.0553 10.025 55.5055 10.0018 54.6609C9.97857 53.7841 10.6177 53.2037 11.6551 53.1929C12.8459 53.1785 14.035 53.1893 15.2259 53.1893C16.7916 53.1893 18.3592 53.1893 19.9304 53.1893C19.9304 51.2181 19.9304 49.3512 19.9304 47.4393C19.5126 47.4393 19.1591 47.4393 18.8056 47.4393C16.3649 47.4393 13.9261 47.4537 11.4854 47.4285C10.5838 47.4195 9.98572 46.7888 10.0018 45.973C10.0179 45.1932 10.5981 44.6218 11.4515 44.5715C11.8372 44.5481 12.2246 44.5643 12.612 44.5643C15.0437 44.5643 17.4755 44.5643 19.95 44.5643C19.9536 42.6309 19.9536 40.7873 19.9536 38.8125ZM78.561 83.5152C78.561 84.3022 78.5663 85.1647 78.5592 86.0272C78.5503 87.1754 78.0682 87.6839 76.9505 87.6839C60.4071 87.6875 43.8618 87.6875 27.3183 87.6839C26.1989 87.6839 25.7204 87.1754 25.7115 86.0254C25.7061 85.1611 25.7097 84.2968 25.7097 83.4307C24.2367 83.4648 23.1405 84.3902 22.8906 85.7559C22.6513 87.0658 23.4208 88.4709 24.6938 88.913C25.158 89.0747 25.6829 89.116 26.181 89.116C43.469 89.125 60.757 89.125 78.045 89.1232C78.2824 89.1232 78.5217 89.1322 78.7591 89.1142C80.1839 89.001 81.3391 87.8618 81.3997 86.4243C81.4515 85.2006 81.4105 83.9752 81.4105 82.7479C80.4678 83.0031 79.5626 83.2456 78.561 83.5152ZM28.6074 84.7532C44.3367 84.7532 59.9964 84.7532 75.6651 84.7532C75.6651 84.286 75.6651 83.8763 75.6651 83.4217C59.9679 83.4217 44.3064 83.4217 28.6074 83.4217C28.6074 83.8709 28.6074 84.2806 28.6074 84.7532ZM84.3189 29.3304C84.3778 29.3771 84.4367 29.4238 84.4956 29.4705C85.208 28.7177 85.9579 27.9953 86.6185 27.1975C86.8898 26.8687 87.1077 26.3799 87.1112 25.9612C87.1451 20.9623 87.1327 15.9634 87.1309 10.9645C87.1309 10.677 87.1059 10.3913 87.0916 10.1074C86.1221 10.1074 85.2419 10.1074 84.3189 10.1074C84.3189 16.5438 84.3189 22.9371 84.3189 29.3304ZM7.09338 76.8128C7.09338 76.1102 7.09338 75.4652 7.09338 74.8219C6.39172 74.8219 5.74005 74.8219 5.11337 74.8219C5.77754 75.4903 6.41671 76.1336 7.09338 76.8128Z" fill="#4890C1"/>
<path d="M54.3511 50.3341C57.1273 50.3341 59.8608 50.3341 62.5942 50.3341C63.0406 50.3341 63.4869 50.3287 63.9333 50.3359C65.0331 50.3521 65.7097 50.9181 65.6955 51.8021C65.6812 52.6682 65.0474 53.2055 63.9797 53.2055C56.5703 53.2109 49.1609 53.2109 41.7515 53.2055C40.6196 53.2055 39.984 52.661 40 51.7536C40.0161 50.8552 40.6606 50.3377 41.8015 50.3341C44.6581 50.3287 47.5148 50.3323 50.3714 50.3323C50.691 50.3323 51.0088 50.3323 51.373 50.3323C51.373 41.6875 51.373 33.1362 51.373 24.5148C48.2896 24.5148 45.2098 24.5148 42.0693 24.5148C42.1104 24.725 42.1318 24.9532 42.2032 25.1653C43.3227 28.538 44.485 31.8982 45.5437 35.2889C45.7419 35.9232 45.6544 36.7138 45.4991 37.3858C44.8688 40.126 42.2764 41.9193 39.4037 41.6803C36.7863 41.4611 34.4939 39.1701 34.3136 36.4964C34.2725 35.8998 34.451 35.2619 34.6403 34.6797C35.9347 30.6727 37.263 26.6746 38.5699 22.6712C38.8449 21.8303 39.4198 21.5464 40.2661 21.5517C43.7172 21.5769 47.1702 21.5697 50.6214 21.5715C50.8535 21.5715 51.0856 21.5517 51.4212 21.5356C51.4212 20.6407 51.4105 19.7818 51.4248 18.9229C51.4391 17.9328 51.9872 17.295 52.812 17.2716C53.6637 17.2482 54.2582 17.9149 54.2743 18.9463C54.2886 19.78 54.2779 20.6156 54.2779 21.5733C54.6474 21.5733 54.9617 21.5733 55.2759 21.5733C58.6681 21.5697 62.0604 21.5661 65.4527 21.5607C66.4864 21.5589 66.831 21.8608 67.1631 22.8725C68.4842 26.9028 69.8572 30.9153 71.132 34.9582C71.3605 35.6806 71.3712 36.5539 71.2177 37.3014C70.6464 40.0632 68.0879 41.8744 65.1973 41.6839C62.5746 41.5096 60.2786 39.2725 60.0268 36.5808C59.9786 36.0669 60.0643 35.5045 60.225 35.0103C61.3141 31.6574 62.4407 28.317 63.5512 24.9712C63.5976 24.8346 63.603 24.6837 63.6369 24.4914C60.5392 24.4914 57.4862 24.4914 54.3546 24.4914C54.3511 33.0625 54.3511 41.6354 54.3511 50.3341ZM42.2729 34.4785C41.5266 32.2324 40.8035 30.0528 40.0804 27.875C40.0143 27.8839 39.9465 27.8929 39.8804 27.9019C39.1627 30.0725 38.445 32.245 37.7076 34.4785C39.2591 34.4785 40.7088 34.4785 42.2729 34.4785ZM63.4209 34.4587C65.0099 34.4587 66.4453 34.4587 67.979 34.4587C67.2291 32.2072 66.5078 30.0366 65.7847 27.866C65.7187 27.8767 65.6544 27.8893 65.5883 27.9001C64.8724 30.0653 64.1582 32.2288 63.4209 34.4587ZM37.5612 37.4164C38.3039 38.5448 39.2359 38.9473 40.3857 38.7982C41.223 38.6885 41.9104 38.3004 42.3514 37.4164C40.7249 37.4164 39.218 37.4164 37.5612 37.4164ZM68.0058 37.4577C66.4185 37.4577 64.901 37.4577 63.3512 37.4577C64.3243 39.3606 67.2916 39.1611 68.0058 37.4577Z" fill="#4890C1"/>
<path d="M52.7585 63.2644C47.288 63.2644 41.8176 63.2644 36.3471 63.2644C36.0507 63.2644 35.7472 63.2895 35.458 63.2374C34.8028 63.1206 34.3903 62.7038 34.2993 62.0443C34.2046 61.3453 34.4903 60.7865 35.1598 60.5475C35.5383 60.4127 35.974 60.3966 36.3828 60.3966C47.3523 60.3894 58.3236 60.3912 69.293 60.3912C69.4412 60.3912 69.5912 60.3876 69.7394 60.393C70.7749 60.4253 71.423 60.9949 71.4105 61.8592C71.3998 62.7307 70.7696 63.2644 69.7037 63.2644C64.0565 63.2662 58.4075 63.2644 52.7585 63.2644Z" fill="#4890C1"/>
<path d="M52.8406 67.5768C50.1071 67.5768 47.3755 67.5804 44.642 67.575C43.494 67.5733 42.8656 67.0701 42.8531 66.1681C42.8406 65.2661 43.4887 64.7054 44.6046 64.7036C50.1 64.6964 55.5954 64.6964 61.0909 64.7036C62.1907 64.7054 62.8584 65.284 62.8406 66.1753C62.8227 67.0665 62.1818 67.5733 61.0391 67.575C58.3057 67.5786 55.574 67.5768 52.8406 67.5768Z" fill="#4890C1"/>
</g>
<defs>
<clipPath id="clip0_139_206">
<rect width="90" height="92" fill="white"/>
</clipPath>
</defs>
</svg>
