<svg width="73" height="88" viewBox="0 0 73 88" fill="none" xmlns="http://www.w3.org/2000/svg">
<path d="M15.5168 0C34.2572 0 52.9977 0 71.7381 0C72.7817 0.464063 73.0001 1.30969 72.9984 2.38047C72.9795 26.0012 72.9846 49.6237 72.9829 73.2463C72.9829 73.5316 72.9898 73.8203 72.9623 74.1039C72.8763 74.9873 72.2969 75.5631 71.4063 75.6456C71.0659 75.6766 70.7203 75.668 70.3764 75.668C57.9751 75.6697 45.572 75.668 33.1706 75.668C32.8062 75.668 32.4417 75.668 32.127 75.668C32.0548 75.8209 32.0101 75.8708 32.0101 75.9206C31.9998 76.8367 32.005 77.7528 31.9843 78.6672C31.9551 79.9047 31.3894 80.5045 30.1756 80.6231C30.0432 80.6352 29.9143 80.6747 29.7372 80.7108C29.7372 81.5822 29.7544 82.4089 29.7338 83.2373C29.6873 85.0644 28.9136 86.4875 27.3095 87.407C26.8969 87.6442 26.4396 87.8041 26.0046 88C19.356 88 12.7092 88 6.06063 88C2.25753 86.8983 1.979 83.9111 2.28675 80.7056C0.340499 80.4392 7.68657e-05 80.0439 0.00179617 78.1773C0.00351548 77.2613 -0.010239 76.3452 0.0258665 75.4291C0.192639 71.0686 3.69487 67.473 8.06362 67.1636C8.65334 67.1223 9.24479 67.0897 9.89124 67.0484C9.82419 66.7442 9.78465 66.5242 9.72791 66.3059C8.99893 63.513 8.24071 60.7269 7.53923 57.927C6.3873 53.3294 8.87857 48.8314 13.3935 47.4238C14.119 47.1969 14.2909 46.8909 14.2909 46.1862C14.272 31.5562 14.2841 16.9263 14.2617 2.29797C14.26 1.24781 14.5282 0.455469 15.5168 0ZM69.5099 3.48906C52.1999 3.48906 34.9931 3.48906 17.7158 3.48906C17.7158 3.905 17.7158 4.27281 17.7158 4.63891C17.7158 16.0961 17.7158 27.5533 17.7158 39.0105C17.7158 41.4459 17.7313 43.8797 17.7038 46.3134C17.6969 46.9047 17.8104 47.2175 18.4637 47.3894C19.1978 47.5819 19.9182 47.9256 20.5647 48.333C23.8778 50.4195 25.3598 54.3125 24.3558 58.2038C23.5993 61.1308 22.8239 64.0544 22.0605 66.9625C22.1688 67.0244 22.2152 67.0742 22.2651 67.0759C22.5797 67.0948 22.8944 67.1034 23.209 67.1155C26.5273 67.2306 29.0856 68.683 30.7894 71.5327C31.1212 72.0861 31.4582 72.2459 32.0686 72.2442C44.2464 72.227 56.4225 72.2322 68.6004 72.2305C68.9013 72.2305 69.2039 72.2047 69.5116 72.1909C69.5099 49.237 69.5099 26.388 69.5099 3.48906ZM28.4855 77.1478C28.8844 73.162 26.5754 70.5581 22.6984 70.5461C18.2058 70.5323 13.7133 70.5409 9.22072 70.5461C8.79261 70.5461 8.36106 70.5753 7.93811 70.6303C4.92417 71.0188 2.81458 74.1658 3.57795 77.1461C11.8598 77.1478 20.1486 77.1478 28.4855 77.1478ZM15.9759 67.1584C15.9776 67.1413 15.9776 67.1223 15.9793 67.1052C16.6086 67.1052 17.2396 67.0845 17.8671 67.112C18.3244 67.1327 18.5136 66.9453 18.6253 66.507C19.4351 63.3548 20.2948 60.2147 21.0925 57.0573C21.6358 54.9072 20.7555 52.6419 18.9726 51.382C17.2378 50.1583 14.8721 50.1222 13.0754 51.2909C11.2581 52.4752 10.3073 54.6941 10.8214 56.8098C11.461 59.4447 12.1796 62.0623 12.8708 64.6852C13.0737 65.4569 13.072 66.5208 13.5792 66.9075C14.1225 67.3252 15.1558 67.1034 15.9759 67.1584ZM26.2865 80.6798C19.356 80.6798 12.5562 80.6798 5.75975 80.6798C5.73052 80.8173 5.69786 80.8981 5.69786 80.9806C5.69098 81.6097 5.68754 82.2405 5.68926 82.8695C5.69442 84.1861 6.06063 84.5608 7.35871 84.5608C11.3956 84.5642 15.4308 84.5625 19.4678 84.5625C21.2713 84.5625 23.0749 84.5591 24.8784 84.5625C25.6917 84.5642 26.2195 84.1861 26.2762 83.3714C26.333 82.4948 26.2865 81.6114 26.2865 80.6798Z" fill="#4890C1"/>
<path d="M50.4531 65.8144C47.8174 65.8144 45.1799 65.8196 42.5442 65.8127C39.8191 65.8058 38.2391 64.2108 38.234 61.4728C38.2305 59.3244 38.2271 57.176 38.234 55.0275C38.2443 52.4271 39.814 50.8269 42.393 50.8217C47.7795 50.8097 53.1678 50.8114 58.5544 50.8217C61.1489 50.8269 62.7134 52.3944 62.7341 55.0069C62.7513 57.2121 62.753 59.4189 62.7341 61.6241C62.7117 64.2039 61.1059 65.8006 58.5338 65.8127C55.8396 65.8247 53.1455 65.8144 50.4531 65.8144ZM50.4617 62.3769C53.0681 62.3769 55.6746 62.358 58.2811 62.3889C59.0032 62.3975 59.323 62.193 59.3109 61.4213C59.2765 59.3313 59.2834 57.2413 59.3075 55.1513C59.3161 54.4947 59.0926 54.2421 58.4117 54.2455C53.142 54.2661 47.8707 54.2661 42.601 54.2455C41.8944 54.2421 41.6451 54.4792 41.6571 55.1925C41.6932 57.2533 41.7001 59.3158 41.6554 61.3766C41.6382 62.1981 41.97 62.3992 42.7282 62.3889C45.3055 62.3563 47.8827 62.3769 50.4617 62.3769Z" fill="#4890C1"/>
<path d="M44.1483 38.2319C49.5332 38.2319 54.918 38.2319 60.3029 38.2336C60.6175 38.2336 60.9356 38.2284 61.2451 38.2748C62.1408 38.4089 62.7426 39.1308 62.7168 40.0005C62.691 40.8409 62.0944 41.5061 61.2313 41.6247C60.9201 41.6677 60.6038 41.6677 60.2892 41.6677C49.461 41.6694 38.6345 41.6694 27.8063 41.6694C26.2091 41.6694 25.4165 41.1125 25.389 39.9867C25.3615 38.8317 26.1884 38.2336 27.8201 38.2336C33.2634 38.2302 38.705 38.2319 44.1483 38.2319Z" fill="#4890C1"/>
<path d="M44.5782 26.0821C49.8203 26.0821 55.0608 26.0821 60.3029 26.0838C60.6176 26.0838 60.9357 26.0735 61.2468 26.1113C62.0566 26.2093 62.6498 26.8521 62.71 27.6633C62.7667 28.4367 62.3094 29.1535 61.5649 29.3855C61.2692 29.4766 60.946 29.5144 60.6348 29.5144C49.8943 29.5213 39.152 29.5316 28.4115 29.4903C27.8235 29.4886 27.0791 29.205 26.6819 28.7891C25.7948 27.8627 26.4601 26.2986 27.7359 26.1147C28.0453 26.07 28.3651 26.0838 28.6797 26.0838C33.9804 26.0821 39.2793 26.0821 44.5782 26.0821Z" fill="#4890C1"/>
<path d="M48.3538 13.9081C52.4785 13.9081 56.6031 13.915 60.7277 13.903C61.4343 13.9012 62.0309 14.0766 62.435 14.6867C63.1227 15.7248 62.502 17.0998 61.2418 17.3147C60.9615 17.3628 60.671 17.3456 60.3838 17.3456C52.3925 17.3473 44.4012 17.3473 36.4081 17.3456C36.1794 17.3456 35.9491 17.3559 35.7204 17.3353C34.7387 17.2408 34.0595 16.5069 34.0802 15.577C34.1008 14.6386 34.7971 13.9322 35.8046 13.9202C37.8661 13.8944 39.9293 13.9098 41.9924 13.9098C44.114 13.9081 46.2339 13.9081 48.3538 13.9081Z" fill="#4890C1"/>
<path d="M26.3157 15.6355C26.3105 14.6798 27.0309 13.927 27.9611 13.9184C28.9067 13.9081 29.7337 14.7211 29.7216 15.6475C29.7096 16.5602 28.9273 17.3181 27.9972 17.3181C27.0516 17.3198 26.3209 16.5894 26.3157 15.6355Z" fill="#4890C1"/>
</svg>
