<svg width="92" height="86" viewBox="0 0 92 86" fill="none" xmlns="http://www.w3.org/2000/svg">
<path d="M45.5562 0C47.7165 0.35905 49.9173 0.559 52.0329 1.10295C67.8661 5.17935 78.3123 15.1102 83.3928 30.788C83.9312 32.45 83.2076 33.8969 81.7475 34.3247C80.3342 34.7397 79.0359 33.955 78.5272 32.3081C75.275 21.7881 68.8601 13.9127 59.063 9.0429C37.0001 -1.9264 10.7037 11.2209 5.82117 35.5804C1.66654 56.3106 15.3436 76.5529 35.9912 80.2337C43.2341 81.5258 50.2451 80.7303 57.0347 77.888C57.2965 77.7784 57.5625 77.6774 57.8286 77.5806C59.278 77.0582 60.6615 77.6128 61.2 78.9286C61.747 80.2617 61.2234 81.7753 59.7846 82.2913C56.8878 83.3297 53.9613 84.3036 50.9943 85.1034C49.1617 85.5958 47.2313 85.7141 45.3434 86C43.4981 86 41.6527 86 39.8074 86C38.3048 85.785 36.7957 85.6022 35.2995 85.3529C18.1276 82.474 4.01841 68.5377 0.819433 51.2796C0.495917 49.5338 0.270307 47.7666 0 46.01C0 44.0041 0 41.9959 0 39.99C0.0638519 39.7191 0.140474 39.4482 0.187299 39.173C0.627877 36.6768 0.81092 34.1033 1.53883 31.6974C6.6108 14.9532 17.6295 4.6053 34.5865 0.7998C36.2338 0.43 37.9259 0.2623 39.5967 0C41.5825 0 43.5704 0 45.5562 0Z" fill="#4890C1"/>
<path d="M66.6316 86C65.1864 85.3593 64.6458 84.2456 64.6948 82.6611C64.7735 80.1907 64.7884 77.7139 64.699 75.2457C64.5288 70.5007 66.7359 67.0306 70.3116 64.2786C71.3779 63.4573 72.5443 62.765 73.8064 61.92C73.0785 61.4406 72.4251 60.9912 71.7525 60.5698C69.39 59.0928 67.4234 57.2223 66.0655 54.7455C65.2098 53.1846 64.7267 51.5119 64.7203 49.7209C64.716 48.1364 65.7845 46.9797 67.2318 46.9582C68.6366 46.9367 69.7561 48.0052 69.805 49.5446C69.8583 51.213 70.3861 52.7331 71.6121 53.7651C73.6447 55.4743 75.8433 56.9815 77.993 58.5424C78.159 58.6628 78.5741 58.6434 78.7465 58.5166C80.8876 56.9428 83.0863 55.4335 85.104 53.7092C86.4215 52.5826 86.9003 50.9335 86.8599 49.149C86.8152 47.1495 86.8493 45.1457 86.8493 43C86.4129 43 86.0362 43 85.6616 43C79.6319 43 73.6 43.0043 67.5702 42.9979C66.1783 42.9957 65.2865 42.4324 64.8629 41.3359C64.2052 39.6374 65.4014 37.8895 67.3021 37.8529C69.4645 37.8121 71.6291 37.84 73.7937 37.84C78.8316 37.84 83.8674 37.8357 88.9053 37.8422C91.0039 37.8443 91.951 38.8054 91.9574 40.9317C91.9638 43.4752 91.885 46.0229 91.9744 48.5621C92.1447 53.3028 89.9588 56.7858 86.3874 59.5464C85.3211 60.3699 84.1568 61.0643 82.8862 61.9179C83.5758 62.3758 84.193 62.808 84.8315 63.2036C87.2324 64.6914 89.2288 66.5812 90.6059 69.0881C91.4615 70.649 91.9446 72.3217 91.9532 74.1127C91.9617 75.7037 90.8953 76.8539 89.4438 76.8797C88.0412 76.9034 86.9089 75.8327 86.8684 74.2976C86.8152 72.3303 85.9958 70.7071 84.5591 69.5224C82.7266 68.011 80.7301 66.7038 78.7805 65.3428C78.5826 65.2052 78.1292 65.1945 77.9355 65.3299C75.9561 66.7081 73.9278 68.0325 72.0718 69.5697C70.4308 70.9264 69.7071 72.8012 69.805 75.0071C69.8902 76.8969 69.8221 78.7954 69.8221 80.84C70.2541 80.84 70.6287 80.84 71.0033 80.84C77.0693 80.84 83.1352 80.8357 89.2011 80.8443C90.6144 80.8465 91.6254 81.599 91.9191 82.7965C92.2235 84.0414 91.6318 85.1529 90.3122 85.8259C90.2185 85.8732 90.1355 85.942 90.0461 86C82.2434 86 74.4386 86 66.6316 86Z" fill="#4890C1"/>
<path d="M45.1838 61.8362C45.0135 64.2313 44.2175 65.3106 42.6404 65.3536C41.0483 65.3966 40.2778 64.4033 39.9181 61.7975C37.7216 61.3374 35.838 60.2796 34.3928 58.4951C33.0902 56.8869 32.4006 55.0401 32.3687 52.9632C32.3453 51.4152 33.3478 50.295 34.7696 50.2112C36.2275 50.1252 37.3385 51.183 37.4662 52.7804C37.6684 55.3131 39.1796 56.7364 41.6996 56.7601C42.4084 56.7665 43.1193 56.7816 43.828 56.7515C46.0352 56.659 47.6229 55.0465 47.6804 52.832C47.7081 51.7226 47.7081 50.6111 47.6804 49.4995C47.6229 47.2829 46.033 45.6854 43.8216 45.5844C42.4786 45.5242 41.1122 45.5973 39.7968 45.3737C35.54 44.6491 32.4347 40.9167 32.3708 36.5522C32.3496 35.0494 32.2644 33.525 32.4581 32.0458C32.986 28.0253 35.689 25.2475 39.8841 24.2112C40.4971 21.3969 41.208 20.5218 42.7787 20.653C44.2856 20.7777 44.9816 21.771 45.2008 24.1532C45.7457 24.3273 46.3204 24.4843 46.8738 24.6928C50.3196 25.9871 52.7162 29.311 52.7886 32.8736C52.8226 34.5613 51.835 35.7352 50.3345 35.7911C48.8808 35.8449 47.8124 34.7849 47.6889 33.166C47.5059 30.758 45.9841 29.2874 43.6173 29.2444C42.8724 29.2315 42.1274 29.2229 41.3825 29.2487C39.1179 29.3239 37.5237 30.945 37.4769 33.2219C37.4556 34.2969 37.4556 35.3719 37.4769 36.4469C37.5237 38.7194 39.1221 40.3298 41.3889 40.4201C42.6978 40.4717 44.0281 40.4007 45.3094 40.6179C49.6385 41.3532 52.729 45.0662 52.7907 49.4974C52.8099 50.9637 52.9205 52.4579 52.7034 53.8963C52.0458 58.2457 49.3853 60.7741 45.1838 61.8362Z" fill="#4890C1"/>
</svg>
