<svg width="98" height="89" viewBox="0 0 98 89" fill="none" xmlns="http://www.w3.org/2000/svg">
<g clip-path="url(#clip0_139_231)">
<path d="M88.0469 89C62.0156 89 35.9843 89 9.95493 89C8.69498 88.4004 8.45142 87.9272 8.6758 86.5095C9.25495 82.8369 12.1296 80.3521 15.9114 80.3196C19.6107 80.287 23.31 80.3176 27.0093 80.3081C27.9644 80.3062 28.9271 80.3081 29.8744 80.2065C33.8556 79.7851 36.9067 75.5243 35.9038 71.7081C35.5202 71.7081 35.1117 71.7081 34.7033 71.7081C25.9009 71.7081 17.0985 71.7081 8.29609 71.7062C7.84926 71.7062 7.40242 71.7043 6.95751 71.6736C2.81521 71.3881 0.0057285 68.4225 0.00381076 64.2863C-0.00386017 45.3296 -0.00386017 26.3728 0.0133994 7.41412C0.0133994 6.62865 0.120792 5.81635 0.343249 5.06536C1.29444 1.86216 4.02913 0.00192512 7.70351 0.00192512C35.2268 9.33339e-06 62.7501 9.33339e-06 90.2715 0.00192512C90.6224 0.00192512 90.9734 0.00575671 91.3224 0.030662C94.3083 0.239483 96.7611 2.1821 97.6624 5.03663C97.766 5.36423 97.8868 5.68608 97.998 6.00985C97.998 25.8958 97.998 45.7836 97.998 65.6695C97.7334 66.3783 97.5455 67.1274 97.1888 67.7865C95.691 70.5663 93.2727 71.7177 90.1737 71.7119C81.1814 71.6908 72.1892 71.7043 63.1969 71.7043C62.7981 71.7043 62.3973 71.7043 61.7471 71.7043C61.9677 73.1047 62.0022 74.3634 62.3762 75.5128C63.3753 78.58 66.0448 80.2889 69.6501 80.3042C73.7963 80.3234 77.9405 80.2851 82.0866 80.3176C85.8741 80.3464 88.7316 82.8216 89.3203 86.5076C89.5485 87.9253 89.3069 88.3985 88.0469 89ZM95.1291 57.3032C95.1291 56.9258 95.1291 56.6116 95.1291 56.2955C95.1291 40.0765 95.131 23.8593 95.1272 7.64019C95.1272 4.57684 93.4051 2.86795 90.3156 2.86795C62.7597 2.86603 35.2019 2.86603 7.64598 2.86795C4.57185 2.86795 2.87274 4.58641 2.87274 7.6785C2.87082 23.865 2.87274 40.0515 2.87274 56.2381C2.87274 56.5791 2.87274 56.9201 2.87274 57.3032C33.6677 57.3032 64.3648 57.3032 95.1291 57.3032ZM2.88425 60.2766C2.88425 61.8897 2.81137 63.3897 2.90534 64.8764C3.00506 66.4492 3.80092 67.7175 5.26415 68.321C6.14439 68.6831 7.17613 68.8172 8.14075 68.8172C35.3821 68.8421 62.6235 68.8382 89.8649 68.8363C90.3118 68.8363 90.7586 68.8306 91.2016 68.7865C93.1654 68.5892 94.7686 67.2845 95.0045 65.34C95.2039 63.6867 95.0467 61.9912 95.0467 60.2766C64.3361 60.2766 33.6619 60.2766 2.88425 60.2766ZM86.1791 85.9769C86.0832 85.7183 86.0429 85.5344 85.9528 85.3811C85.0035 83.7488 83.5326 83.1664 81.6992 83.1703C72.0684 83.1913 62.4375 83.1798 52.8067 83.176C52.3944 83.176 51.9705 83.1798 51.5697 83.0975C50.8026 82.9423 50.4325 82.4097 50.4709 81.6453C50.5073 80.923 50.9139 80.4632 51.6426 80.3502C51.9552 80.3023 52.2774 80.3119 52.5957 80.3119C55.3707 80.31 58.1456 80.3119 60.9187 80.3081C61.2236 80.3081 61.5266 80.2793 62.0195 80.2525C59.6626 77.808 58.884 74.9649 59.0451 71.7847C52.2985 71.7847 45.6593 71.7847 38.9338 71.7847C39.1217 74.9975 38.3163 77.8252 35.9134 80.31C38.7746 80.31 41.3482 80.3081 43.9199 80.31C44.6851 80.31 45.4522 80.287 46.2154 80.3349C47.0362 80.3866 47.5061 80.8771 47.5252 81.697C47.5444 82.5131 47.0995 83.0132 46.2845 83.1262C45.9086 83.1798 45.5212 83.176 45.1396 83.176C35.6353 83.1779 26.1329 83.176 16.6286 83.1818C16.0878 83.1818 15.5413 83.1856 15.0062 83.2622C13.497 83.4787 12.1661 84.6627 11.9283 85.975C36.6574 85.9769 61.3789 85.9769 86.1791 85.9769Z" fill="#4890C1"/>
</g>
<g clip-path="url(#clip1_139_231)">
<path d="M30 47.1539C30 34.6646 30 22.1754 30 9.68614C30.2689 9.15286 30.7034 8.99899 31.291 8.99994C42.1304 9.01237 52.9707 9.0095 63.81 9.0095C64.8359 9.0095 65.123 9.29335 65.123 10.3074C65.123 14.2239 65.123 18.1404 65.123 22.0569C65.123 22.2184 65.123 22.3799 65.123 22.5414C65.1661 22.5558 65.2082 22.571 65.2513 22.5854C65.3527 22.4621 65.4456 22.3302 65.5575 22.2184C66.9194 20.8546 68.2746 19.4831 69.6508 18.1337C71.3208 16.4965 73.7086 16.4698 75.4054 18.0534C75.8246 18.4443 76.2055 18.8772 76.6294 19.2624C77.7817 20.3098 78.7406 21.4701 78.999 23.069C78.999 23.5153 78.999 23.9607 78.999 24.407C78.7282 25.5003 78.2966 26.5028 77.4735 27.3133C76.0198 28.7449 74.5852 30.1957 73.1391 31.635C72.6252 32.1473 72.0414 32.1931 71.6289 31.7679C71.2174 31.3445 71.2643 30.8093 71.7735 30.298C73.1583 28.9103 74.5479 27.5274 75.9327 26.1397C76.1241 25.9485 76.3146 25.7526 76.4763 25.5376C77.2659 24.4911 77.2888 22.9916 76.5921 22.0961C76.1969 22.6714 75.8619 23.3366 75.3671 23.846C73.3794 25.8921 71.3476 27.8953 69.3187 29.9014C69.0756 30.1422 68.7693 30.4318 68.4621 30.4729C67.7338 30.5704 67.3357 31.0721 66.8792 31.5232C66.3921 32.0049 65.8877 32.4732 65.435 32.9854C65.2676 33.1756 65.1364 33.4738 65.1355 33.7232C65.1163 37.4505 65.1221 41.1778 65.1221 44.9051C65.1221 45.0742 65.1221 45.2424 65.1221 45.4422C65.3585 45.4422 65.5317 45.4422 65.7049 45.4422C67.5864 45.4422 69.4689 45.4393 71.3504 45.4431C72.1649 45.445 72.5065 45.8034 72.4941 46.6234C72.4491 49.6091 70.023 52.5575 67.0275 52.847C64.4512 53.0955 61.8376 52.9655 59.2402 52.9761C58.7282 52.978 58.3798 52.5144 58.3989 52.0003C58.42 51.4297 58.8296 51.0847 59.5148 51.0837C61.6682 51.079 63.8215 51.0962 65.9739 51.0751C67.9386 51.056 69.6948 49.7649 70.3312 47.9137C70.3896 47.7435 70.4288 47.5658 70.4795 47.3813C61.3313 47.3813 52.2462 47.3813 43.142 47.3813C42.9094 48.7824 42.3084 49.9856 41.2681 51.0828C41.5495 51.0828 41.7179 51.0828 41.8863 51.0828C44.8206 51.0828 47.7558 51.0818 50.6901 51.0837C51.4251 51.0837 51.8768 51.445 51.8863 52.0299C51.8969 52.6186 51.4471 52.9942 50.7159 52.9942C46.0111 52.9952 41.3064 53.0047 36.6016 52.9913C33.631 52.9827 31.0403 50.9863 30.2373 48.1268C30.1474 47.8037 30.0785 47.4769 30 47.1539ZM63.1678 45.4412C63.1678 42.0188 63.1678 38.6595 63.1678 35.175C62.7113 35.6509 62.3601 36.0695 61.9562 36.427C61.2653 37.0377 60.5714 37.6541 59.824 38.1912C58.0228 39.4843 55.9126 40.095 53.832 40.7458C53.5688 40.828 53.1515 40.6522 52.897 40.4687C52.5735 40.2355 52.5773 39.8312 52.7094 39.4594C53.008 38.6203 53.3123 37.7831 53.6147 36.9459C54.3785 34.829 55.5623 32.9893 57.1749 31.4114C58.9062 29.7169 60.5953 27.9785 62.3285 26.2859C62.941 25.6876 63.186 24.9383 63.1927 24.1604C63.2281 19.9237 63.209 15.6861 63.209 11.4485C63.209 11.2803 63.209 11.113 63.209 10.9467C52.7458 10.9467 42.3524 10.9467 31.9141 10.9467C31.9141 11.157 31.9141 11.3443 31.9141 11.5316C31.9141 23.0489 31.9141 34.5671 31.9141 46.0844C31.9141 46.2756 31.9131 46.4667 31.9227 46.6578C32.0404 49.0796 34.1449 51.0723 36.5882 51.078C39.0353 51.0837 41.1504 49.1083 41.2863 46.6884C41.3418 45.6993 41.6174 45.4422 42.6213 45.4422C49.2727 45.4422 55.9241 45.4422 62.5754 45.4422C62.7649 45.4412 62.9544 45.4412 63.1678 45.4412ZM74.701 20.9416C74.702 20.0833 74.2053 19.2968 73.4205 18.9824C72.5554 18.6354 71.7428 18.7625 71.0777 19.4191C69.0363 21.4328 67.017 23.4685 64.9814 25.4879C64.7287 25.7383 64.745 25.9208 64.9919 26.1617C65.7786 26.9291 66.5576 27.7051 67.3242 28.4926C67.5817 28.7574 67.7731 28.7641 68.0372 28.4984C70.0364 26.4876 72.0472 24.4882 74.0512 22.4822C74.4752 22.0578 74.7068 21.5484 74.701 20.9416ZM55.1671 38.2954C56.8323 37.7181 58.3827 37.0854 59.6077 35.952C61.7553 33.965 63.8129 31.8806 65.8801 29.865C65.1221 29.11 64.4053 28.3952 63.6703 27.6621C63.6502 27.6784 63.5841 27.7204 63.5296 27.7749C61.694 29.6089 59.8393 31.4238 58.0314 33.2846C56.6772 34.6761 55.8379 36.3849 55.1671 38.2954Z" fill="#4890C1"/>
<path d="M56.0542 52.0204C56.0465 51.5005 55.6216 51.08 55.1077 51.0828C54.6024 51.0867 54.166 51.5234 54.1602 52.0309C54.1545 52.5508 54.6129 52.9952 55.146 52.9857C55.6637 52.9761 56.0618 52.5527 56.0542 52.0204Z" fill="white"/>
<path d="M56.0542 52.0204C56.0619 52.5527 55.6637 52.9761 55.1469 52.9857C54.6139 52.9952 54.1545 52.5508 54.1612 52.0309C54.1669 51.5234 54.6043 51.0867 55.1087 51.0829C55.6207 51.079 56.0466 51.5005 56.0542 52.0204Z" fill="#4890C1"/>
<path d="M47.0955 24.8199C44.0176 24.8199 40.9408 24.8199 37.863 24.819C37.6878 24.819 37.5108 24.8228 37.3376 24.8008C36.8638 24.7416 36.5251 24.365 36.5107 23.8986C36.4973 23.4542 36.7901 23.0595 37.2361 22.9591C37.4199 22.9171 37.6151 22.9104 37.8056 22.9104C44.0081 22.9085 50.2106 22.9085 56.4131 22.9085C56.5088 22.9085 56.6045 22.9047 56.7002 22.9114C57.3233 22.9525 57.7348 23.3472 57.7214 23.8891C57.7089 24.4357 57.2974 24.8142 56.661 24.8161C54.0942 24.8237 51.5265 24.8199 48.9598 24.8199C48.3386 24.8199 47.7166 24.8199 47.0955 24.8199Z" fill="#4890C1"/>
<path d="M43.5114 36.2158C45.7317 35.2811 46.9625 36.146 47.1405 38.8096C47.4276 38.8096 47.7233 38.7991 48.0181 38.8115C48.6114 38.8373 49.0172 39.2215 49.0239 39.7481C49.0306 40.2718 48.6287 40.6904 48.0401 40.7105C47.3233 40.7344 46.6045 40.7363 45.8887 40.7124C45.1441 40.6876 44.7642 40.1122 44.9584 39.383C45.0561 39.016 45.1585 38.6433 45.1948 38.2677C45.2417 37.7851 44.9738 37.6149 44.545 37.8615C44.3038 38.0001 44.0694 38.2027 43.9191 38.434C43.5573 38.9921 43.254 39.5885 42.9123 40.161C42.697 40.5222 42.4003 40.7841 41.9381 40.7009C41.5016 40.6226 41.2078 40.354 41.1495 39.9163C41.1198 39.6946 41.204 39.4518 41.2614 39.2244C41.4117 38.6242 41.6127 38.0345 41.7246 37.4286C41.8385 36.8112 41.5696 36.5503 40.9743 36.7338C40.5657 36.8599 40.0996 37.0702 39.8498 37.3904C39.2593 38.1492 38.7818 38.995 38.2631 39.8093C38.2047 39.902 38.1836 40.0167 38.1348 40.117C37.8908 40.6216 37.3941 40.8338 36.9079 40.6465C36.4284 40.4611 36.1672 39.9402 36.3643 39.4279C36.906 38.0163 37.6324 36.7089 38.82 35.7312C39.2182 35.4044 39.6919 35.1301 40.1762 34.9543C41.5773 34.442 42.7142 34.8902 43.5114 36.2158Z" fill="#4890C1"/>
<path d="M44.6004 31.3904C42.2739 31.3904 39.9483 31.3875 37.6218 31.3933C37.2303 31.3942 36.8963 31.3006 36.6714 30.9594C36.3087 30.4118 36.5872 29.6892 37.2342 29.5201C37.3854 29.4809 37.549 29.4809 37.7079 29.4809C42.3122 29.479 46.9174 29.479 51.5217 29.4799C52.2328 29.4799 52.6424 29.7848 52.6912 30.3382C52.7457 30.9489 52.3409 31.3837 51.6748 31.3875C50.1292 31.3971 48.5836 31.3914 47.038 31.3914C46.2264 31.3904 45.4139 31.3904 44.6004 31.3904Z" fill="#4890C1"/>
<path d="M49.957 16.3542C52.1879 16.3542 54.4187 16.3485 56.6495 16.3571C57.4085 16.36 57.9013 16.9191 57.6563 17.5441C57.5511 17.8136 57.2496 18.0353 56.9883 18.2026C56.8362 18.3001 56.5864 18.2618 56.3816 18.2618C52.0788 18.2647 47.7769 18.2637 43.4741 18.2637C43.3621 18.2637 43.2511 18.2685 43.1391 18.2609C42.5467 18.2236 42.1534 17.8442 42.1486 17.3109C42.1438 16.748 42.5352 16.36 43.1688 16.3571C45.4312 16.3485 47.6936 16.3542 49.957 16.3542Z" fill="#4890C1"/>
</g>
<defs>
<clipPath id="clip0_139_231">
<rect width="98" height="89" fill="white"/>
</clipPath>
<clipPath id="clip1_139_231">
<rect width="49" height="44" fill="white" transform="translate(30 9)"/>
</clipPath>
</defs>
</svg>
