<svg width="134" height="134" viewBox="0 0 134 134" fill="none" xmlns="http://www.w3.org/2000/svg">
<path d="M62.7911 0.155273C65.4728 0.155273 68.1571 0.155273 70.8388 0.155273C71.1711 0.227962 71.5008 0.342188 71.8383 0.368148C81.8226 1.121 91.2047 3.90913 99.8053 9.02591C117.479 19.5372 128.318 34.9135 132.123 55.1626C132.578 57.5743 132.809 60.0275 133.144 62.4626C133.144 65.1443 133.144 67.8286 133.144 70.5103C133.068 70.9257 132.98 71.341 132.923 71.759C132.562 74.368 132.334 77.003 131.833 79.5834C126.659 106.341 105.01 127.48 78.1259 132.054C75.709 132.465 73.2687 132.737 70.8362 133.075C68.0663 133.075 65.2989 133.075 62.5289 133.075C62.2434 133.002 61.9604 132.883 61.6722 132.862C56.0389 132.462 50.5249 131.424 45.2316 129.464C21.0937 120.523 6.4469 103.394 1.2782 78.1867C0.777166 75.7439 0.569483 73.2439 0.226807 70.7699C0.226807 67.9999 0.226807 65.2326 0.226807 62.4626C0.561695 60.0301 0.829085 57.5872 1.24445 55.1678C5.86019 28.2443 26.9581 6.62977 53.7024 1.46367C56.7034 0.884758 59.759 0.586214 62.7911 0.155273ZM71.114 58.3401C71.114 55.1703 71.0231 52.1875 71.14 49.2125C71.2464 46.5411 72.7884 45.0251 75.4961 44.8096C77.3886 44.659 79.2993 44.7187 81.1996 44.6512C82.5235 44.6045 83.1466 44.0516 83.1726 42.7561C83.2245 40.2925 83.2219 37.8237 83.1752 35.36C83.1492 33.9971 82.5054 33.4026 81.1347 33.3923C78.4088 33.3767 75.683 33.3325 72.9598 33.4234C65.8311 33.6596 60.6909 37.8367 59.354 44.8226C58.8088 47.6782 58.9568 50.6688 58.8426 53.5997C58.7829 55.1418 58.8322 56.689 58.8322 58.3713C56.4802 58.3713 54.2839 58.3583 52.0877 58.3764C50.4262 58.3894 49.8317 58.9943 49.824 60.661C49.811 63.257 49.8188 65.8504 49.8214 68.4464C49.824 70.6583 50.2653 71.1074 52.4641 71.11C54.5695 71.1152 56.6749 71.11 58.8763 71.11C58.8763 71.7642 58.8763 72.2315 58.8763 72.7013C58.8633 81.0917 58.8478 89.4847 58.8374 97.875C58.8348 99.5703 59.1048 99.8325 60.7922 99.8376C63.518 99.8428 66.2413 99.8402 68.9671 99.8376C70.7687 99.8351 71.0699 99.5365 71.0699 97.7297C71.0725 89.3808 71.0699 81.0346 71.0699 72.6858C71.0699 72.1899 71.0699 71.6967 71.0699 71.11C74.1773 71.11 77.0693 71.1152 79.9613 71.1074C81.8538 71.1022 82.3159 70.6557 82.5184 68.8021C82.7987 66.2684 83.0869 63.7347 83.4166 61.2061C83.6996 59.0332 83.1336 58.3401 80.9478 58.3375C77.7157 58.3349 74.481 58.3401 71.114 58.3401Z" fill="#4890C1"/>
</svg>
