<svg width="30" height="27" viewBox="0 0 30 27" fill="none" xmlns="http://www.w3.org/2000/svg">
<g clip-path="url(#clip0_155_57)">
<path d="M30 4.82252C30 5.09643 30 5.36976 30 5.64367C29.9818 5.7076 29.9543 5.77095 29.9467 5.83605C29.7047 7.98102 29.4656 10.126 29.2236 12.271C28.9336 14.8429 28.6371 17.4143 28.3529 19.9869C28.1847 21.5066 27.4945 22.438 26.1902 22.794C25.9031 22.872 25.848 22.9952 25.8615 23.2539C25.8996 23.9976 25.6834 24.6592 25.1847 25.2223C24.4974 25.9983 23.6226 26.3132 22.6037 26.3109C19.5281 26.305 16.4525 26.3085 13.3769 26.3085C9.89119 26.3085 6.40603 26.3062 2.92029 26.3097C1.91482 26.3109 1.07048 25.9607 0.516187 25.1114C0.268921 24.7325 0.167554 24.258 -0.000610352 23.8269C-0.000610352 18.6255 -0.000610352 13.4247 -0.000610352 8.22326C0.0140381 8.18865 0.0380615 8.15464 0.042749 8.11827C0.22439 6.65779 1.45486 5.42548 3.0281 5.52108C3.32517 5.53927 3.624 5.52343 3.93455 5.52343C4.05232 4.55623 4.17712 3.62774 4.27615 2.69573C4.46248 0.938468 5.89099 -0.192963 7.64236 0.0246426C9.10369 0.206469 10.5679 0.366594 12.031 0.532584C14.5219 0.814708 17.0127 1.09331 19.5035 1.37544C22.0523 1.66401 24.5988 1.97429 27.15 2.23706C28.5715 2.3837 29.7211 3.34151 29.9478 4.72281C29.9531 4.75917 29.9818 4.78967 30 4.82252ZM1.46072 18.9334C1.61013 18.8296 1.71267 18.761 1.81228 18.6883C3.2572 17.6372 4.69978 16.5838 6.14646 15.535C7.57908 14.4969 9.15584 14.5743 10.4818 15.7427C11.7129 16.8278 12.9422 17.9146 14.1738 18.9991C14.939 19.6731 15.7125 19.7516 16.592 19.2396C19.1209 17.7668 21.6474 16.2881 24.1787 14.8195C24.3539 14.718 24.4189 14.6095 24.4178 14.4071C24.4101 12.5302 24.4154 10.6539 24.4095 8.77695C24.409 8.5746 24.3861 8.36462 24.3275 8.17165C24.1019 7.42733 23.4826 6.98919 22.6687 6.98919C16.0881 6.98801 9.5074 6.9886 2.92673 6.9886C2.8781 6.9886 2.82888 6.98977 2.78025 6.99095C2.44158 7.00033 2.15623 7.1323 1.92302 7.3763C1.57029 7.74465 1.45779 8.19393 1.45837 8.6919C1.46248 12.0053 1.46013 15.3192 1.46013 18.6325C1.46072 18.71 1.46072 18.788 1.46072 18.9334ZM24.4137 16.3972C24.2689 16.4782 24.1775 16.5275 24.0879 16.5791C21.859 17.8695 19.6312 19.1616 17.4012 20.4502C17.1908 20.5716 16.9763 20.6948 16.7496 20.7793C15.4242 21.2737 14.2347 20.9992 13.1853 20.0883C11.9314 19.0003 10.6963 17.89 9.44763 16.7961C8.68943 16.1321 7.8908 16.0524 7.12615 16.6072C5.27634 17.948 3.44177 19.3088 1.60544 20.6678C1.53337 20.7212 1.46775 20.8385 1.46716 20.9265C1.45837 21.8256 1.45076 22.7248 1.46892 23.624C1.48005 24.1976 1.91482 24.7009 2.46794 24.8129C2.6572 24.8516 2.85642 24.8522 3.05095 24.8528C9.5531 24.8545 16.0553 24.8545 22.5574 24.8539C22.6746 24.8539 22.7918 24.8504 22.9084 24.8404C23.8758 24.7583 24.4137 24.1777 24.4137 23.214C24.4142 21.0637 24.4137 18.9135 24.4137 16.7632C24.4137 16.66 24.4137 16.5568 24.4137 16.3972ZM5.39119 5.52519C5.54588 5.52519 5.6613 5.52519 5.77732 5.52519C11.3918 5.52519 17.0056 5.52636 22.6201 5.52284C23.1474 5.52226 23.6508 5.61493 24.116 5.8601C25.2885 6.47714 25.8627 7.46487 25.8638 8.78282C25.8674 12.8593 25.865 16.9351 25.865 21.0115C25.865 21.1241 25.865 21.2362 25.865 21.384C26.4058 21.1705 26.7287 20.8426 26.7914 20.3012C27.0668 17.934 27.3381 15.5661 27.6129 13.1989C27.9146 10.5987 28.2222 7.9992 28.5205 5.3985C28.6154 4.57089 28.108 3.89755 27.2812 3.75912C26.7914 3.67701 26.2945 3.63537 25.8 3.57789C22.5053 3.1937 19.2105 2.80835 15.9152 2.42651C13.0951 2.09981 10.2738 1.77956 7.45369 1.4511C6.5613 1.34728 5.85877 1.83176 5.72341 2.72389C5.58572 3.64006 5.5031 4.56503 5.39119 5.52519Z" fill="#CA393F"/>
<path d="M15.2045 15.4031C13.5328 15.4131 12.1377 14.0294 12.1319 12.3566C12.126 10.6862 13.5117 9.28785 15.1793 9.28139C16.8528 9.27494 18.2379 10.6521 18.2479 12.332C18.2578 14.0124 16.8897 15.3931 15.2045 15.4031ZM13.5938 12.349C13.5955 13.2288 14.3197 13.9502 15.1969 13.9467C16.0717 13.9432 16.8006 13.2112 16.7953 12.3408C16.7901 11.4621 16.0658 10.743 15.1887 10.7454C14.3098 10.7477 13.592 11.4692 13.5938 12.349Z" fill="#CA393F"/>
</g>
<defs>
<clipPath id="clip0_155_57">
<rect width="30" height="26.3115" fill="white"/>
</clipPath>
</defs>
</svg>
