<svg width="30" height="26" viewBox="0 0 30 26" fill="none" xmlns="http://www.w3.org/2000/svg">
<path d="M0 23.0664C0 15.7421 0 8.41721 0 1.09292C0.168164 0.529204 0.550195 0.175442 1.11328 0C9.23848 0 17.3631 0 25.4883 0C26.3408 0.268628 26.6637 0.85823 26.6109 1.71128C26.5781 2.24221 26.6051 2.77659 26.6051 3.33686C27.2865 3.33686 27.9369 3.33398 28.5873 3.33801C29.1135 3.34088 29.5289 3.55257 29.8072 3.99779C29.8816 4.11628 29.9367 4.24686 30.0006 4.37168C30.0006 10.6031 30.0006 16.835 30.0006 23.0664C29.983 23.1101 29.9578 23.1521 29.9496 23.1969C29.7369 24.3692 29.0695 25.2027 27.9768 25.6992C27.6727 25.8372 27.3346 25.9016 27.0117 26C19.0037 26 10.9963 26 2.98828 26C2.94492 25.9822 2.90391 25.9563 2.85879 25.9477C1.51582 25.6957 0.61875 24.9341 0.16582 23.6704C0.0955078 23.4742 0.0544922 23.2677 0 23.0664ZM1.35293 1.35062C1.35293 1.45934 1.35293 1.53527 1.35293 1.61177C1.35293 8.58058 1.35176 15.55 1.3541 22.5188C1.35469 23.8222 2.22598 24.6643 3.57012 24.6643C11.1867 24.6666 18.8027 24.6661 26.4193 24.662C26.6514 24.662 26.8904 24.6413 27.1137 24.5827C28.077 24.3296 28.6447 23.5662 28.6453 22.528C28.6477 16.6711 28.6465 10.8142 28.6459 4.95668C28.6459 4.86522 28.6371 4.77376 28.633 4.6892C27.9387 4.6892 27.2807 4.6892 26.6039 4.6892C26.6039 4.81575 26.6039 4.92044 26.6039 5.02456C26.6039 10.4788 26.6039 15.9336 26.6039 21.3879C26.6039 21.8969 26.6104 21.905 27.1055 22.0281C27.4295 22.1086 27.6305 22.3807 27.6082 22.7092C27.5871 23.0221 27.3627 23.2919 27.0375 23.2953C26.7639 23.2982 26.4639 23.2619 26.2201 23.1498C25.5182 22.8254 25.2469 22.2375 25.2475 21.4891C25.2521 14.9034 25.2504 8.3177 25.2504 1.73257C25.2504 1.61062 25.2504 1.48867 25.2504 1.35119C17.2764 1.35062 9.3334 1.35062 1.35293 1.35062Z" fill="#CA393F"/>
<path d="M4.07168 11.3418C4.07168 10.2971 4.06992 9.25197 4.07226 8.20737C4.07402 7.56945 4.30722 7.33878 4.9541 7.33821C7.10215 7.33648 9.25019 7.33648 11.3988 7.33821C12.0387 7.33878 12.2877 7.58038 12.2883 8.20219C12.29 10.311 12.29 12.4197 12.2883 14.5291C12.2877 15.1526 12.0357 15.4022 11.4035 15.4022C9.25547 15.404 7.10742 15.404 4.95879 15.4022C4.32304 15.4017 4.07344 15.1578 4.07226 14.5337C4.06992 13.4701 4.07168 12.4059 4.07168 11.3418ZM10.9049 14.0482C10.9049 12.2523 10.9049 10.476 10.9049 8.69688C9.07265 8.69688 7.26328 8.69688 5.44805 8.69688C5.44805 10.4898 5.44805 12.261 5.44805 14.0482C7.27265 14.0482 9.0832 14.0482 10.9049 14.0482Z" fill="#CA393F"/>
<path d="M13.3084 4.00928C16.0611 4.00928 18.8133 4.00928 21.566 4.00985C21.6926 4.00985 21.8203 4.00985 21.9457 4.02653C22.2797 4.07083 22.5105 4.32392 22.5234 4.64892C22.5357 4.96127 22.3365 5.22529 22.0195 5.29892C21.8976 5.32711 21.7693 5.34034 21.6439 5.34034C16.0805 5.34206 10.5164 5.34206 4.95291 5.34149C4.42966 5.34149 4.1367 5.13844 4.09334 4.75304C4.05115 4.37684 4.28845 4.07313 4.67107 4.02481C4.79646 4.00928 4.9242 4.00985 5.05076 4.00985C7.80349 4.00928 10.5556 4.00928 13.3084 4.00928Z" fill="#CA393F"/>
<path d="M18.4576 10.6668C19.5316 10.6668 20.605 10.6662 21.6791 10.6668C21.9714 10.6668 22.2427 10.7117 22.4179 10.9826C22.6593 11.3559 22.4613 11.8621 22.0248 11.9633C21.9029 11.9915 21.774 12.003 21.648 12.003C19.5005 12.0053 17.3525 12.0053 15.205 12.0042C14.6795 12.0036 14.3912 11.8046 14.3425 11.4192C14.2968 11.0551 14.516 10.7577 14.8869 10.6956C15.0111 10.6748 15.1388 10.6679 15.2654 10.6679C16.3289 10.6656 17.3935 10.6668 18.4576 10.6668Z" fill="#CA393F"/>
<path d="M18.4283 15.3331C17.3449 15.3331 16.2609 15.3349 15.1775 15.332C14.741 15.3308 14.4686 15.1784 14.3678 14.8925C14.2342 14.514 14.4586 14.1154 14.857 14.0314C14.9613 14.0096 15.0691 13.9958 15.1758 13.9958C17.3432 13.994 19.51 13.9929 21.6773 13.9952C22.1795 13.9958 22.4625 14.1988 22.5123 14.5785C22.5598 14.9408 22.34 15.252 21.9697 15.3009C21.7102 15.3349 21.4447 15.3308 21.1816 15.3314C20.2635 15.3354 19.3459 15.3331 18.4283 15.3331Z" fill="#CA393F"/>
<path d="M18.4271 7.33742C19.5205 7.33742 20.6138 7.33454 21.7072 7.33857C22.2023 7.3403 22.4818 7.55715 22.5175 7.946C22.5474 8.26927 22.3476 8.55343 22.0242 8.62936C21.9023 8.65812 21.774 8.67193 21.6486 8.6725C19.5011 8.6748 17.3537 8.6748 15.2056 8.67365C14.6707 8.67365 14.373 8.46025 14.3367 8.0599C14.305 7.71419 14.5324 7.4099 14.8851 7.36388C15.116 7.33397 15.3521 7.33857 15.5859 7.33742C16.5334 7.3357 17.4802 7.33742 18.4271 7.33742Z" fill="#CA393F"/>
<path d="M18.3973 18.6624C17.3139 18.6624 16.2299 18.6653 15.1465 18.6607C14.6525 18.6584 14.3713 18.4404 14.3367 18.0527C14.308 17.7288 14.5072 17.4458 14.8307 17.3699C14.9525 17.3411 15.0809 17.3273 15.2063 17.3268C17.3537 17.3245 19.5012 17.3245 21.6492 17.325C21.9387 17.325 22.2147 17.3584 22.3992 17.6213C22.6805 18.0222 22.4584 18.5646 21.968 18.6348C21.7283 18.6687 21.4816 18.6607 21.2379 18.6613C20.2916 18.6641 19.3447 18.6624 18.3973 18.6624Z" fill="#CA393F"/>
<path d="M8.17443 21.9908C7.07111 21.9908 5.96837 21.9942 4.86505 21.989C4.38283 21.9867 4.09923 21.7463 4.08517 21.3523C4.07404 21.0353 4.26915 20.7759 4.58615 20.7017C4.69865 20.6752 4.817 20.6608 4.93243 20.6608C7.09923 20.6585 9.26661 20.658 11.4334 20.6597C11.911 20.6603 12.1793 20.8392 12.252 21.1918C12.3334 21.5852 12.0938 21.9367 11.6865 21.9724C11.3473 22.0017 11.0039 21.9902 10.6629 21.9908C9.8338 21.9919 9.00411 21.9908 8.17443 21.9908Z" fill="#CA393F"/>
<path d="M18.4242 21.9908C17.3209 21.9908 16.2182 21.9937 15.1149 21.9891C14.6549 21.9873 14.3871 21.7785 14.3414 21.4104C14.2992 21.0699 14.4932 20.7817 14.833 20.7029C14.9643 20.6724 15.1025 20.6609 15.2379 20.6609C17.366 20.6586 19.4942 20.658 21.6223 20.6609C21.767 20.6609 21.9158 20.6741 22.0559 20.7098C22.3442 20.7828 22.5381 21.0653 22.5229 21.3598C22.507 21.6612 22.2943 21.9143 21.9961 21.9672C21.8725 21.9891 21.7436 21.9902 21.617 21.9902C20.5524 21.9914 19.4883 21.9908 18.4242 21.9908Z" fill="#CA393F"/>
<path d="M8.14458 18.6625C7.06118 18.6625 5.97719 18.666 4.8938 18.6608C4.38051 18.6585 4.08169 18.4031 4.08462 17.9912C4.08696 17.6881 4.28266 17.4385 4.58735 17.3688C4.70923 17.3412 4.83755 17.3269 4.96294 17.3269C7.1104 17.3246 9.25844 17.3246 11.4059 17.3257C11.918 17.3257 12.1934 17.5109 12.2579 17.8888C12.3205 18.2581 12.0932 18.5964 11.7147 18.6343C11.3666 18.6694 11.0133 18.6602 10.6623 18.6614C9.82329 18.6648 8.98422 18.6625 8.14458 18.6625Z" fill="#CA393F"/>
</svg>
