<svg width="19" height="19" viewBox="0 0 19 19" fill="none" xmlns="http://www.w3.org/2000/svg">
<path d="M18.5479 2.88235e-07H16.7618C16.7006 -6.88613e-05 16.64 0.0123048 16.5837 0.0363709C16.5274 0.0604369 16.4766 0.0956941 16.4343 0.140004C16.392 0.184314 16.3592 0.236754 16.3378 0.294144C16.3164 0.351534 16.3068 0.412678 16.3097 0.473869L16.4604 3.59379C15.5843 2.56066 14.4937 1.73095 13.2645 1.1624C12.0354 0.593845 10.6972 0.300095 9.34309 0.301587C4.1946 0.301587 -0.00376484 4.50609 2.53349e-06 9.65795C0.00376991 14.8181 4.18555 19 9.34309 19C11.6566 19.0033 13.8885 18.1444 15.6037 16.5907C15.6495 16.5497 15.6865 16.4997 15.7124 16.4439C15.7382 16.3881 15.7524 16.3275 15.7541 16.266C15.7558 16.2045 15.745 16.1433 15.7222 16.0862C15.6995 16.029 15.6653 15.9771 15.6218 15.9336L14.3409 14.6519C14.2598 14.5708 14.151 14.5235 14.0364 14.5197C13.9219 14.5158 13.8101 14.5556 13.7238 14.6311C12.7117 15.5222 11.4522 16.0834 10.1132 16.2398C8.77421 16.3963 7.41937 16.1407 6.22928 15.507C5.0392 14.8734 4.0704 13.8918 3.45206 12.6931C2.83371 11.4944 2.59519 10.1356 2.7683 8.79777C2.9414 7.45997 3.5179 6.20675 4.42094 5.20518C5.32398 4.20361 6.51066 3.50126 7.82279 3.19178C9.13491 2.8823 10.5101 2.98039 11.7651 3.47296C13.0201 3.96554 14.0953 4.8292 14.8472 5.94881L11.0222 5.76522C10.9611 5.76231 10.9 5.77185 10.8426 5.79328C10.7852 5.81471 10.7328 5.84757 10.6886 5.88987C10.6443 5.93217 10.609 5.98303 10.585 6.03937C10.5609 6.0957 10.5486 6.15634 10.5486 6.2176V8.00488C10.5486 8.12486 10.5963 8.23992 10.6811 8.32476C10.7658 8.4096 10.8808 8.45726 11.0007 8.45726H18.5479C18.6678 8.45726 18.7828 8.4096 18.8676 8.32476C18.9524 8.23992 19 8.12486 19 8.00488V0.452381C19 0.332402 18.9524 0.217337 18.8676 0.1325C18.7828 0.0476617 18.6678 2.88235e-07 18.5479 2.88235e-07Z" fill="#28336C"/>
</svg>
