<svg width="41" height="41" viewBox="0 0 41 41" fill="none" xmlns="http://www.w3.org/2000/svg">
<path d="M20.501 12.8125C16.2647 12.8125 12.8131 16.2639 12.8131 20.5C12.8131 24.7361 16.2647 28.1875 20.501 28.1875C24.7373 28.1875 28.1889 24.7361 28.1889 20.5C28.1889 16.2639 24.7373 12.8125 20.501 12.8125ZM40.2332 19.2588L32.6494 15.4711L35.3322 7.43125C35.6926 6.34219 34.6595 5.30918 33.5784 5.67754L25.5382 8.36016L21.7423 0.76875C21.2297 -0.25625 19.7722 -0.25625 19.2597 0.76875L15.4718 8.35215L7.4236 5.66953C6.33449 5.30918 5.30143 6.34219 5.66981 7.42324L8.35255 15.4631L0.768787 19.2588C-0.256262 19.7713 -0.256262 21.2287 0.768787 21.7412L8.35255 25.5289L5.66981 33.5768C5.30944 34.6658 6.34249 35.6988 7.4236 35.3305L15.4638 32.6479L19.2517 40.2313C19.7642 41.2562 21.2217 41.2562 21.7343 40.2313L25.5221 32.6479L33.5624 35.3305C34.6515 35.6908 35.6845 34.6578 35.3162 33.5768L32.6334 25.5369L40.2172 21.7492C41.2583 21.2287 41.2583 19.7713 40.2332 19.2588ZM27.7484 27.7471C23.7523 31.743 17.2497 31.743 13.2536 27.7471C9.25748 23.7512 9.25748 17.2488 13.2536 13.2529C17.2497 9.25703 23.7523 9.25703 27.7484 13.2529C31.7445 17.2488 31.7445 23.7512 27.7484 27.7471Z" fill="#28336C"/>
</svg>
