<svg width="38" height="38" viewBox="0 0 38 38" fill="none" xmlns="http://www.w3.org/2000/svg">
<path d="M3.27345 25.4238C3.26231 25.5225 3.25044 25.5834 3.25044 25.6443C3.24969 27.6607 3.23113 29.6772 3.26453 31.693C3.27195 32.1613 3.37661 32.6637 3.57403 33.086C4.17371 34.37 5.26914 34.8791 6.64365 34.8791C13.7826 34.8784 20.9208 34.8784 28.0598 34.8784C28.1919 34.8784 28.324 34.8784 28.4643 34.8784C28.4643 34.4346 28.4643 34.0353 28.4643 33.6167C28.275 33.6167 28.1147 33.6167 27.9552 33.6167C20.8912 33.6167 13.8264 33.6018 6.7624 33.63C5.48958 33.6352 4.44905 32.9881 4.49952 31.3523C4.55592 29.5236 4.51213 27.6912 4.51213 25.861C4.51213 25.72 4.51213 25.5782 4.51213 25.4246C4.06608 25.4238 3.6861 25.4238 3.27345 25.4238ZM25.3108 30.4795C18.7804 30.4795 12.2923 30.4795 5.79461 30.4795C5.79461 30.8951 5.79461 31.2855 5.79461 31.6841C12.3124 31.6841 18.8079 31.6841 25.3108 31.6841C25.3108 31.2707 25.3108 30.8899 25.3108 30.4795ZM22.7852 27.9569C17.0957 27.9569 11.45 27.9569 5.79461 27.9569C5.79461 28.3732 5.79461 28.7629 5.79461 29.1599C11.4707 29.1599 17.1246 29.1599 22.7852 29.1599C22.7852 28.7458 22.7852 28.3651 22.7852 27.9569Z" fill="white"/>
<path d="M14.104 0C14.4692 0.0489834 14.8358 0.0898033 15.2002 0.147693C19.444 0.819359 22.662 3.01397 24.85 6.70108C26.0976 8.80291 26.6579 11.1081 26.6208 13.5387C26.583 16.0228 25.8964 18.3361 24.5598 20.4446C24.4611 20.5998 24.3683 20.7586 24.2614 20.933C24.5954 21.31 24.922 21.6789 25.2493 22.047C26.3662 23.3042 27.4795 24.5652 28.6091 25.8113C28.7226 25.9367 28.9379 26.0362 29.1049 26.0354C29.7134 26.0332 30.2107 26.2521 30.6345 26.6722C32.769 28.7881 34.9176 30.89 37.0268 33.0304C37.4098 33.4193 37.6346 33.9648 37.9323 34.4376C37.9323 34.8829 37.9323 35.3282 37.9323 35.7735C37.7571 36.1201 37.6154 36.4882 37.4009 36.8081C36.9467 37.4857 36.252 37.8107 35.4823 38C35.2352 38 34.9873 38 34.7402 38C33.8651 37.8219 33.2209 37.292 32.6101 36.6737C30.6382 34.6758 28.6514 32.692 26.6535 30.7193C26.1814 30.2532 25.9387 29.7329 25.9603 29.0717C25.9655 28.9158 25.915 28.7184 25.8163 28.6056C24.4477 27.0426 23.0658 25.4914 21.6883 23.9358C21.6475 23.8898 21.6223 23.8297 21.5814 23.7629C21.4323 23.8631 21.3291 23.9269 21.2326 23.9989C18.6855 25.8914 15.817 26.7821 12.6568 26.6336C9.46843 26.4837 6.67713 25.3088 4.31851 23.1469C2.09124 21.1052 0.692989 18.584 0.206123 15.6123C-0.504136 11.2818 0.618772 7.44993 3.61196 4.21999C5.90972 1.73965 8.79529 0.40968 12.1462 0.0630852C12.2553 0.0519526 12.3622 0.0230073 12.4705 0.00222643C13.0153 -9.05475e-08 13.5593 0 14.104 0ZM13.324 1.42942C6.68528 1.47841 1.31938 6.85768 1.34684 13.4378C1.3743 20.0595 6.76916 25.4358 13.3545 25.4038C19.9962 25.3719 25.3495 20.006 25.3227 13.4074C25.296 6.78866 20.0036 1.47767 13.324 1.42942ZM27.1284 29.1555C27.2784 29.419 27.3741 29.7032 27.5626 29.8999C28.3493 30.72 29.1635 31.5141 29.9672 32.3179C31.2698 33.6197 32.5678 34.9252 33.8763 36.221C34.5799 36.9179 35.6293 36.938 36.2757 36.2885C36.8962 35.6651 36.8695 34.6869 36.1837 33.996C34.0492 31.8489 31.9065 29.7099 29.7624 27.5725C29.3705 27.1813 28.8503 27.1962 28.4629 27.5836C28.1215 27.9243 27.7719 28.256 27.4453 28.6108C27.3236 28.7414 27.2591 28.9255 27.1284 29.1555ZM27.602 26.6737C26.2044 25.107 24.8329 23.5699 23.4428 22.0114C23.114 22.3646 22.809 22.6927 22.4988 23.0252C23.8777 24.5719 25.2314 26.0903 26.5933 27.6177C26.9384 27.2949 27.2539 27.0003 27.602 26.6737Z" fill="white"/>
<path d="M3.27346 25.4238C3.68611 25.4238 4.06609 25.4238 4.5114 25.4238C4.5114 25.5782 4.5114 25.7192 4.5114 25.8602C4.5114 27.6912 4.55519 29.5228 4.49879 31.3516C4.44832 32.9873 5.48884 33.6337 6.76167 33.6293C13.8257 33.6018 20.8904 33.6159 27.9544 33.6159C28.1147 33.6159 28.275 33.6159 28.4635 33.6159C28.4635 34.0345 28.4635 34.4338 28.4635 34.8776C28.3233 34.8776 28.1912 34.8776 28.0591 34.8776C20.9201 34.8776 13.7819 34.8769 6.64292 34.8784C5.26767 34.8784 4.17297 34.3692 3.5733 33.0853C3.37588 32.663 3.27196 32.1605 3.2638 31.6922C3.2304 29.6765 3.24896 27.66 3.2497 25.6435C3.25045 25.5834 3.26232 25.5233 3.27346 25.4238Z" fill="white"/>
<path d="M25.3109 30.4795C25.3109 30.8899 25.3109 31.2706 25.3109 31.684C18.8079 31.684 12.3124 31.684 5.79468 31.684C5.79468 31.2855 5.79468 30.8959 5.79468 30.4795C12.2924 30.4795 18.7805 30.4795 25.3109 30.4795Z" fill="white"/>
<path d="M22.7852 27.957C22.7852 28.3652 22.7852 28.746 22.7852 29.1601C17.1254 29.1601 11.4716 29.1601 5.79468 29.1601C5.79468 28.763 5.79468 28.3734 5.79468 27.957C11.45 27.957 17.0965 27.957 22.7852 27.957Z" fill="white"/>
<path d="M34.7839 27.2955C34.3572 27.2955 33.9764 27.2955 33.54 27.2955C33.54 27.1285 33.54 26.9734 33.54 26.8183C33.54 20.1395 33.543 13.4607 33.5326 6.78185C33.5319 6.41818 33.4911 6.02706 33.3523 5.69753C33.025 4.91973 32.3748 4.59318 31.5436 4.59392C29.4158 4.59615 27.288 4.59466 25.1602 4.59466C25.0258 4.59466 24.8922 4.59466 24.7327 4.59466C24.7327 4.17608 24.7327 3.7857 24.7327 3.35524C24.8232 3.34856 24.9286 3.33371 25.034 3.33371C27.1989 3.33223 29.3638 3.32555 31.5287 3.3352C33.14 3.34262 34.2911 4.21319 34.6897 5.72648C34.7706 6.033 34.7973 6.36178 34.7973 6.68017C34.8032 13.4332 34.8017 20.1862 34.801 26.9393C34.8017 27.0484 34.7914 27.1567 34.7839 27.2955Z" fill="white"/>
<path d="M32.2576 6.50146C32.2576 6.9156 32.2576 7.30375 32.2576 7.71418C30.3665 7.71418 28.4963 7.71418 26.6074 7.71418C26.6074 7.30153 26.6074 6.91263 26.6074 6.50146C28.4985 6.50146 30.3688 6.50146 32.2576 6.50146Z" fill="white"/>
<path d="M27.8691 10.8698C27.8691 10.4713 27.8691 10.0824 27.8691 9.66748C29.3283 9.66748 30.7777 9.66748 32.2524 9.66748C32.2524 10.0571 32.2524 10.4468 32.2524 10.8698C30.8126 10.8698 29.3646 10.8698 27.8691 10.8698Z" fill="white"/>
<path d="M27.8699 17.1922C27.8699 16.7833 27.8699 16.3944 27.8699 15.978C29.3268 15.978 30.7755 15.978 32.2517 15.978C32.2517 16.3743 32.2517 16.7729 32.2517 17.1922C30.7881 17.1922 29.3394 17.1922 27.8699 17.1922Z" fill="white"/>
<path d="M32.2569 12.8105C32.2569 13.2202 32.2569 13.6084 32.2569 14.0233C30.7911 14.0233 29.3409 14.0233 27.8699 14.0233C27.8699 13.6151 27.8699 13.2254 27.8699 12.8105C29.3357 12.8105 30.7859 12.8105 32.2569 12.8105Z" fill="white"/>
<path d="M27.8691 20.3341C27.8691 19.9222 27.8691 19.5333 27.8691 19.1206C29.3394 19.1206 30.7889 19.1206 32.2584 19.1206C32.2584 19.534 32.2584 19.9222 32.2584 20.3341C30.7881 20.3341 29.3386 20.3341 27.8691 20.3341Z" fill="white"/>
<path d="M32.259 22.2837C32.259 22.6934 32.259 23.0823 32.259 23.4971C31.0144 23.4971 29.7854 23.4971 28.5237 23.4971C28.5237 23.1045 28.5237 22.706 28.5237 22.2837C29.7616 22.2837 31.0011 22.2837 32.259 22.2837Z" fill="white"/>
<path d="M2.6085 13.4111C2.63373 7.49304 7.41407 2.71642 13.3329 2.6949C19.2354 2.67337 24.0692 7.51308 24.0595 13.4349C24.0499 19.3708 19.2079 24.1919 13.3091 24.14C7.35617 24.0873 2.58326 19.3018 2.6085 13.4111ZM3.87019 13.4037C3.83457 18.6034 8.06791 22.8479 13.3203 22.8775C18.5244 22.9072 22.7444 18.7221 22.7963 13.4787C22.8483 8.256 18.6327 4.0026 13.3581 3.95585C8.17553 3.91132 3.90656 8.16174 3.87019 13.4037Z" fill="white"/>
<path d="M21.1487 13.4332C20.67 14.1983 19.9924 14.7409 19.2829 15.2315C16.5012 17.1559 13.4761 17.6116 10.2529 16.6067C8.49022 16.0568 7.03259 15.014 5.80948 13.6358C5.67292 13.4822 5.62023 13.3419 5.77535 13.1927C6.32381 12.665 6.83368 12.0817 7.44227 11.6341C9.26356 10.2953 11.3365 9.67035 13.5927 9.74012C16.1368 9.81879 18.3522 10.7428 20.2195 12.4802C20.5179 12.7578 20.7977 13.0554 21.0856 13.3449C21.102 13.3619 21.1138 13.3842 21.1487 13.4332ZM14.3645 15.7732C16.1279 15.6285 18.5066 14.513 19.4128 13.4065C18.1971 12.173 15.788 11.0567 14.4343 11.099C16.4122 12.1188 16.3773 14.7876 14.3645 15.7732ZM12.2211 15.7755C10.0881 14.4047 10.5334 11.957 12.3837 11.0426C10.3553 11.3068 8.68319 12.0958 7.23076 13.4287C8.64979 14.7364 10.2633 15.4979 12.2211 15.7755ZM12.0875 13.4228C12.0875 14.1115 12.6471 14.6808 13.3299 14.686C14.0038 14.6919 14.5886 14.1197 14.602 13.4413C14.6161 12.7504 14.0298 12.1633 13.3299 12.167C12.639 12.1715 12.0883 12.7274 12.0875 13.4228Z" fill="white"/>
<path d="M17.7317 7.13745C17.7317 7.55752 17.7317 7.9479 17.7317 8.35907C14.7986 8.35907 11.8856 8.35907 8.9436 8.35907C8.9436 7.95533 8.9436 7.55678 8.9436 7.13745C11.87 7.13745 14.7838 7.13745 17.7317 7.13745Z" fill="white"/>
<path d="M8.93628 19.7115C8.93628 19.3062 8.93628 18.9166 8.93628 18.501C11.8686 18.501 14.7913 18.501 17.7325 18.501C17.7325 18.9047 17.7325 19.2951 17.7325 19.7115C14.8024 19.7115 11.879 19.7115 8.93628 19.7115Z" fill="white"/>
</svg>
