<svg width="133" height="134" viewBox="0 0 133 134" fill="none" xmlns="http://www.w3.org/2000/svg">
<path d="M70.6927 133.069C67.9227 133.069 65.1553 133.069 62.3854 133.069C62.0998 132.997 61.8168 132.877 61.5287 132.857C55.8953 132.457 50.3813 131.418 45.088 129.458C20.9501 120.518 6.30334 103.389 1.13464 78.1815C0.63361 75.7387 0.425928 73.2387 0.083252 70.7647C0.083252 67.9947 0.083252 65.2274 0.083252 62.4574C0.41814 60.0249 0.685531 57.582 1.1009 55.1651C5.71144 28.2495 26.8172 6.62977 53.5589 1.46367C56.5599 0.884752 59.618 0.583618 62.6476 0.155273C65.3293 0.155273 68.0136 0.155273 70.6953 0.155273C71.0276 0.227962 71.3572 0.342189 71.6947 0.36815C81.6791 1.121 91.0611 3.90913 99.6618 9.0259C117.336 19.5372 128.174 34.9135 131.98 55.1626C132.434 57.5743 132.665 60.0275 133 62.4626C133 65.1443 133 67.8286 133 70.5103C132.925 70.9257 132.836 71.341 132.779 71.759C132.418 74.368 132.187 77.0003 131.689 79.5834C126.538 106.317 104.867 127.48 77.9823 132.054C75.5628 132.462 73.1226 132.732 70.6927 133.069ZM94.262 47.0422C95.0876 45.9518 95.7444 45.2016 96.2688 44.3657C96.7932 43.5297 97.2578 42.6367 97.6109 41.7151C97.7848 41.2634 97.6421 40.6923 97.6447 40.1757C97.167 40.2561 96.6556 40.251 96.2168 40.4301C94.4593 41.1388 92.7252 41.9072 90.9781 42.6471C89.6567 43.2078 88.5923 42.943 87.4215 42.0215C79.7139 35.9519 68.0759 39.3735 65.1372 48.6128C64.5634 50.4196 64.579 52.4315 64.4466 54.3578C64.3895 55.1729 64.2415 55.6065 63.3459 55.4637C63.0058 55.4092 62.6554 55.4066 62.3153 55.3573C52.7723 53.9632 44.831 49.6434 38.5305 42.3226C37.4843 41.105 37.113 41.1258 36.4381 42.5536C33.8965 47.9222 34.4054 53.0208 37.8892 57.8261C38.1644 58.2051 38.4682 58.5607 38.9796 59.2072C38.3539 59.0125 38.1073 58.9502 37.8737 58.8593C37.3908 58.6724 36.9079 58.4855 36.4355 58.2726C35.0622 57.6495 34.7065 57.8598 34.7818 59.3577C35.0388 64.3836 37.3415 68.2362 41.5263 70.9879C41.8586 71.206 42.1935 71.4241 42.5257 71.6422C41.9676 71.7901 41.4925 71.7772 41.0252 71.7148C39.5611 71.5201 39.2522 71.868 39.761 73.2283C40.924 76.3384 42.9151 78.7994 45.7941 80.4375C47.2635 81.2734 48.8964 81.8212 50.5605 82.5455C47.697 84.4224 44.5922 85.7671 41.2044 86.3071C39.0393 86.6524 36.8197 86.642 34.6338 86.8912C34.1821 86.9431 33.5772 87.3533 33.4189 87.7505C33.3046 88.0361 33.7356 88.6436 34.0575 88.9758C34.3742 89.3029 34.8545 89.4795 35.2776 89.6975C45.4567 94.9104 56.0251 95.684 66.8324 92.1144C83.3042 86.6732 92.4578 70.9542 92.977 56.3931C93.0471 54.4227 93.5585 53.0078 95.0772 51.6839C96.6893 50.2794 97.9847 48.5037 99.3632 46.8449C99.5761 46.5879 99.493 46.0842 99.5475 45.6948C99.1581 45.6533 98.7298 45.4871 98.3845 45.5962C97.1125 45.9856 95.869 46.4684 94.262 47.0422Z" fill="#4890C1"/>
</svg>
