<svg width="29" height="31" viewBox="0 0 29 31" fill="none" xmlns="http://www.w3.org/2000/svg">
<path d="M0 27.5771C0 20.2146 0 12.8521 0 5.48958C0.0174777 5.45148 0.0433705 5.41531 0.0511384 5.37527C0.447299 3.34865 1.99699 2.06925 4.06259 2.06667C4.42574 2.06602 4.78888 2.06667 5.17857 2.06667C5.17857 1.798 5.19605 1.56227 5.17533 1.33042C5.11966 0.6975 5.36371 0.249937 5.95536 0C6.12819 0 6.30038 0 6.47321 0C7.06163 0.253167 7.31085 0.6975 7.25324 1.33235C7.23123 1.57196 7.25 1.81544 7.25 2.04923C9.34667 2.04923 11.3916 2.04923 13.4643 2.04923C13.4643 1.79865 13.4818 1.56292 13.461 1.33042C13.4054 0.6975 13.6488 0.249937 14.2411 0C14.4139 0 14.5861 0 14.7589 0C15.3473 0.253167 15.5966 0.6975 15.539 1.33235C15.5169 1.57196 15.5357 1.81544 15.5357 2.04923C17.6324 2.04923 19.6773 2.04923 21.75 2.04923C21.75 1.79865 21.7675 1.56292 21.7468 1.33042C21.6911 0.6975 21.9345 0.249937 22.5268 0C22.6996 0 22.8718 0 23.0446 0C23.6324 0.252521 23.8823 0.696854 23.8247 1.33171C23.8027 1.57131 23.8214 1.81479 23.8214 2.06731C24.2933 2.06731 24.7134 2.0544 25.1329 2.0699C26.5363 2.12221 27.6523 2.72283 28.3818 3.91827C28.6712 4.39167 28.7987 4.96258 29 5.48958C29 12.8521 29 20.2146 29 27.5771C28.9793 27.6359 28.9515 27.6933 28.9385 27.754C28.6103 29.3228 27.6749 30.3471 26.155 30.8456C25.9634 30.9083 25.7647 30.949 25.5692 31C18.1897 31 10.8103 31 3.4308 31C3.38225 30.9806 3.33565 30.9522 3.28516 30.9432C2.06949 30.721 1.12763 30.0874 0.531451 29.0121C0.286763 28.571 0.173482 28.0576 0 27.5771ZM23.8214 4.13915C23.8214 4.48273 23.8247 4.79273 23.8208 5.10337C23.813 5.73565 23.3793 6.19612 22.7922 6.19935C22.2044 6.20258 21.7591 5.74146 21.7513 5.11565C21.7474 4.7966 21.7506 4.47692 21.7506 4.15658C19.6598 4.15658 17.6071 4.15658 15.5364 4.15658C15.5364 4.47885 15.5383 4.77917 15.5357 5.07883C15.5299 5.735 15.0981 6.2 14.4987 6.19935C13.8999 6.19871 13.4701 5.73177 13.4656 5.07496C13.4636 4.76754 13.4649 4.46012 13.4649 4.15917C11.3683 4.15917 9.3156 4.15917 7.25065 4.15917C7.25065 4.47433 7.25194 4.76431 7.25065 5.05494C7.24676 5.735 6.81694 6.20517 6.20522 6.19935C5.6071 6.19419 5.18375 5.72725 5.17987 5.06721C5.17728 4.75979 5.17857 4.45237 5.17857 4.13333C4.81737 4.13333 4.50536 4.13333 4.19335 4.13333C2.80743 4.13333 2.07143 4.86248 2.07143 6.23552C2.07143 13.1014 2.07143 19.9666 2.07143 26.8324C2.07143 28.1906 2.81067 28.9333 4.16292 28.9333C11.0446 28.9333 17.9256 28.9333 24.8073 28.9333C26.1906 28.9333 26.9286 28.201 26.9286 26.8292C26.9286 19.9634 26.9286 13.0981 26.9286 6.23229C26.9286 6.1141 26.9312 5.99527 26.924 5.87708C26.8703 4.96581 26.1343 4.20179 25.2229 4.14367C24.773 4.11525 24.3199 4.13915 23.8214 4.13915Z" fill="#CA393F"/>
<path d="M19.1931 12.4C20.3472 12.4 21.5014 12.3987 22.6556 12.4006C23.345 12.4013 23.8162 12.8178 23.8201 13.4256C23.824 14.0359 23.3534 14.4654 22.6705 14.466C20.3297 14.4673 17.989 14.4673 15.649 14.466C14.9673 14.4654 14.4961 14.0339 14.5013 13.4236C14.5064 12.8133 14.9738 12.4013 15.6664 12.4C16.842 12.3987 18.0175 12.4 19.1931 12.4Z" fill="#CA393F"/>
<path d="M19.1568 21.7C20.322 21.7 21.4865 21.6987 22.6517 21.7007C23.343 21.7013 23.8143 22.1146 23.8208 22.7217C23.8272 23.343 23.3528 23.766 22.6433 23.7667C20.3026 23.768 17.9619 23.7693 15.6218 23.766C14.8101 23.7647 14.2929 23.0582 14.5751 22.3504C14.7376 21.9428 15.1091 21.7026 15.5985 21.7013C16.7837 21.6981 17.9703 21.7 19.1568 21.7Z" fill="#CA393F"/>
<path d="M8.35556 13.04C8.43583 12.9257 8.50121 12.7978 8.59766 12.7003C9.27929 12.0119 9.96157 11.3234 10.6561 10.6479C11.0775 10.2377 11.7087 10.2494 12.11 10.6485C12.512 11.0476 12.5295 11.6792 12.1152 12.0997C11.0873 13.1421 10.0509 14.1767 9.00547 15.2016C8.58018 15.6182 7.98141 15.6085 7.55418 15.1919C6.85313 14.508 6.1592 13.8157 5.47369 13.1162C5.0607 12.6945 5.06653 12.07 5.46398 11.6657C5.8692 11.2536 6.50423 11.2498 6.94181 11.6696C7.38458 12.0945 7.81635 12.5298 8.25329 12.9606C8.25976 12.9664 8.27335 12.9651 8.28306 12.9677C8.30701 12.9909 8.33097 13.0155 8.35556 13.04Z" fill="#CA393F"/>
<path d="M8.32458 22.2709C9.06836 21.5276 9.8309 20.7706 10.5876 20.0086C10.8465 19.7476 11.1482 19.6056 11.5165 19.6592C11.9224 19.7186 12.213 19.944 12.3509 20.3328C12.4927 20.7332 12.4098 21.102 12.1127 21.4049C11.4939 22.0339 10.8653 22.6545 10.2407 23.2784C9.84449 23.6737 9.45287 24.0741 9.05023 24.4629C8.58028 24.9175 7.98927 24.9201 7.52708 24.4661C6.84351 23.7944 6.16512 23.1183 5.49255 22.4356C5.06403 22.001 5.06144 21.3713 5.4686 20.9618C5.87512 20.5524 6.50885 20.5524 6.94644 20.9734C7.38856 21.3984 7.82097 21.8337 8.25856 22.2632C8.26374 22.2683 8.27798 22.2658 8.32458 22.2709Z" fill="#CA393F"/>
</svg>
