<svg width="19" height="27" viewBox="0 0 19 27" fill="none" xmlns="http://www.w3.org/2000/svg">
<path d="M19 16.2722C18.9266 16.847 18.8826 17.4283 18.7746 17.9959C18.0546 21.7744 16.0213 24.5483 12.7606 26.3739C12.3714 26.5921 11.9822 26.8097 11.5516 26.9844C11.7474 26.622 11.9351 26.2551 12.1398 25.8979C13.33 23.8196 13.9277 21.579 13.8002 19.1597C13.6219 15.778 12.2842 12.9665 9.83336 10.7239C9.79569 10.6895 9.75112 10.6628 9.63498 10.5771C10.7103 13.6107 10.178 16.367 8.60921 19.0246C8.40644 17.3081 8.23632 15.6091 7.13208 14.2342C6.97702 15.2298 6.87406 16.1956 6.66439 17.1354C6.50117 17.866 6.2306 18.5752 5.96129 19.2747C5.09748 21.5199 5.23371 23.6826 6.40889 25.7719C6.62672 26.1596 6.84958 26.5454 7.10759 26.9987C6.95881 26.9519 6.88285 26.9338 6.81066 26.9045C5.46598 26.3583 4.16839 25.7271 3.0924 24.6944C0.902118 22.5928 -0.12993 19.9969 0.0132004 16.9087C0.0791159 15.4864 0.433804 14.1374 1.09861 12.8905C1.96556 11.2649 2.49853 9.52888 2.78667 7.70389C2.80676 7.5766 2.83564 7.4506 2.87331 7.26096C3.46843 8.30529 4.02463 9.30481 4.26883 10.5531C6.51938 7.37397 7.61295 3.89221 7.69707 0C9.39769 1.03264 10.7982 2.32117 11.9094 3.94352C13.0224 5.56912 13.7513 7.36488 14.1179 9.38794C14.6056 8.74888 14.9107 8.08448 14.9767 7.34994C15.0407 6.63423 14.9905 5.90814 14.9905 5.14502C15.0972 5.18464 15.1317 5.18594 15.1461 5.20477C16.4977 6.93948 17.6327 8.79953 18.2724 10.9505C18.6328 12.1624 18.8745 13.3951 18.9441 14.6629C18.951 14.7895 18.9805 14.9148 18.9994 15.0408C19 15.4513 19 15.8618 19 16.2722Z" fill="#CA393F"/>
</svg>
