<svg width="48" height="48" viewBox="0 0 48 48" fill="none" xmlns="http://www.w3.org/2000/svg">
<path d="M28.6452 48.0001C27.9629 47.732 27.871 47.5995 27.871 46.8562C27.87 44.9866 27.87 43.1169 27.871 41.2472C27.8719 40.4575 28.1129 40.2204 28.9161 40.2175C29.5906 40.2146 30.2642 40.2166 31.0035 40.2166C31.0035 39.9775 31.0035 39.7898 31.0035 39.602C31.0035 36.8614 31.0229 34.1217 30.9958 31.3811C30.9803 29.8433 31.4961 28.5717 32.58 27.4743C34.5513 25.4798 36.479 23.4417 38.4271 21.4249C39.7045 20.103 39.9784 20.0014 41.8055 20.1466C41.8055 18.7917 41.8045 17.4398 41.8055 16.0878C41.8074 14.2191 42.9077 13.1498 44.7823 13.1091C46.0016 13.083 47.0129 13.3985 47.6506 14.5085C47.7919 14.7543 47.8848 15.0282 47.999 15.2895C47.999 18.9669 47.999 22.6443 47.999 26.3217C47.761 27.3582 47.2868 28.2582 46.589 29.0749C44.5597 31.4508 42.5671 33.8575 40.5658 36.2566C40.4381 36.4104 40.2765 36.603 40.2716 36.7811C40.2445 37.9056 40.2581 39.0311 40.2581 40.2146C40.9829 40.2146 41.6719 40.2108 42.361 40.2156C43.0974 40.2214 43.3519 40.474 43.3529 41.2008C43.3558 43.0859 43.3539 44.9701 43.3539 46.8553C43.3539 47.5966 43.2619 47.7301 42.5797 47.9991C37.9355 48.0001 33.2903 48.0001 28.6452 48.0001ZM38.7097 40.1875C38.7097 39.0349 38.7339 37.9085 38.699 36.7849C38.6826 36.2604 38.8548 35.8695 39.1848 35.4785C41.3284 32.943 43.4487 30.3872 45.5894 27.8498C46.1787 27.1511 46.4603 26.373 46.4564 25.4585C46.4429 22.3472 46.4516 19.2359 46.4506 16.1246C46.4506 15.0659 46.0529 14.672 44.9894 14.6682C44.8442 14.6672 44.699 14.6643 44.5539 14.6711C43.8029 14.7079 43.3616 15.1482 43.3568 15.903C43.3481 17.6275 43.35 19.353 43.3606 21.0775C43.3616 21.2391 43.4197 21.4278 43.5145 21.5575C44.4677 22.8649 44.3623 24.2517 43.1952 25.3801C42.3145 26.2317 41.4242 27.0727 40.5368 27.9175C40.1168 28.3182 39.6987 28.7208 39.271 29.1127C39.0077 29.3527 38.6681 29.4456 38.3903 29.2191C38.191 29.0566 38.01 28.7624 37.9955 28.5166C37.9829 28.3085 38.1803 28.0433 38.3535 27.8749C39.5903 26.673 40.8416 25.4856 42.0948 24.3011C42.4297 23.9846 42.6813 23.6256 42.5777 23.1553C42.4161 22.4217 41.8877 21.9611 41.2394 21.6775C40.6626 21.4249 40.2339 21.7753 39.8448 22.1808C37.769 24.3437 35.6952 26.5095 33.6 28.654C32.88 29.3914 32.5432 30.2382 32.5481 31.2611C32.5606 34.0656 32.5519 36.8711 32.5539 39.6756C32.5539 39.8449 32.5713 40.0143 32.581 40.1875C34.649 40.1875 36.6581 40.1875 38.7097 40.1875ZM41.7794 41.8017C37.6529 41.8017 33.5535 41.8017 29.4474 41.8017C29.4474 43.3462 29.4474 44.853 29.4474 46.3743C33.5758 46.3743 37.6771 46.3743 41.7794 46.3743C41.7794 44.8298 41.7794 43.3201 41.7794 41.8017Z" fill="#828282"/>
<path d="M0 15.2903C0.0609677 15.1461 0.122903 15.001 0.183871 14.8568C0.616452 13.8319 1.38 13.2474 2.49194 13.1313C2.52387 13.1284 2.55677 13.1274 2.58871 13.1245C5.2229 12.869 6.35806 14.4358 6.21 16.5242C6.12387 17.7251 6.19355 18.9377 6.19355 20.1474C6.57581 20.1145 6.9271 20.0429 7.27161 20.0642C7.98968 20.1077 8.59936 20.4135 9.10258 20.9361C11.2819 23.2006 13.4652 25.4613 15.6474 27.7239C16.6065 28.7177 17.0061 29.9168 16.9994 31.2832C16.9868 34.0393 16.9955 36.7955 16.9955 39.5516C16.9955 39.7432 16.9955 39.9348 16.9955 40.2145C17.5694 40.2145 18.1084 40.2135 18.6474 40.2145C18.8894 40.2145 19.1323 40.2039 19.3723 40.2222C19.8377 40.258 20.1203 40.5309 20.1232 41.0022C20.1339 43.049 20.1281 45.0968 20.1281 47.1435C20.1281 47.6622 19.7681 47.8539 19.3548 47.998C14.7097 47.998 10.0645 47.998 5.41936 47.998C4.7371 47.731 4.64516 47.5974 4.64516 46.8551C4.64419 44.9864 4.64419 43.1177 4.64516 41.249C4.64613 40.4564 4.88516 40.2184 5.68452 40.2145C6.3571 40.2116 7.03065 40.2135 7.74097 40.2135C7.74097 39.1432 7.72548 38.1309 7.74968 37.1197C7.75839 36.7539 7.64226 36.4848 7.41194 36.2119C5.57323 34.0335 3.76161 31.8329 1.90935 29.6661C1.05484 28.6684 0.24871 27.66 0 26.3226C0 22.6451 0 18.9677 0 15.2903ZM15.4103 40.1864C15.4248 40.0732 15.4442 39.9958 15.4442 39.9184C15.4452 36.9513 15.449 33.9851 15.4413 31.018C15.4394 30.1219 15.0987 29.3613 14.4619 28.7245C13.9374 28.2 13.4323 27.6571 12.9174 27.1229C11.3061 25.4516 9.69677 23.7784 8.08258 22.109C7.42452 21.4287 6.80032 21.4297 6.12097 22.0974C6.05226 22.1651 5.98355 22.2339 5.91581 22.3026C5.19484 23.0303 5.20258 23.6264 5.9429 24.3319C7.17968 25.5116 8.41936 26.6874 9.65323 27.87C10.0752 28.2745 10.1284 28.7139 9.81774 29.0593C9.48871 29.4251 9.0329 29.4068 8.59161 28.9887C7.2929 27.7577 5.99032 26.5297 4.7071 25.2832C3.64355 24.2506 3.55548 22.7768 4.44484 21.601C4.54355 21.4703 4.63355 21.2913 4.63452 21.1345C4.64806 19.3771 4.65097 17.6197 4.63839 15.8622C4.63355 15.1616 4.19032 14.7184 3.50032 14.6719C3.30774 14.6593 3.11323 14.6642 2.91968 14.6661C1.96161 14.6768 1.54742 15.0968 1.54645 16.0655C1.54452 19.2097 1.55226 22.3539 1.54161 25.498C1.53871 26.3777 1.80774 27.1316 2.37387 27.8042C4.49226 30.3203 6.58742 32.8548 8.72032 35.3584C9.13645 35.8471 9.32419 36.3339 9.29903 36.9726C9.25935 38.0342 9.29032 39.0968 9.29032 40.1864C11.339 40.1864 13.349 40.1864 15.4103 40.1864ZM18.5642 41.8045C14.4213 41.8045 10.3219 41.8045 6.22355 41.8045C6.22355 43.3519 6.22355 44.8577 6.22355 46.3703C10.3539 46.3703 14.4542 46.3703 18.5642 46.3703C18.5642 44.8355 18.5642 43.3393 18.5642 41.8045Z" fill="#828282"/>
<path d="M25.0646 0C25.8194 0.153871 26.5868 0.262258 27.3271 0.468387C32.9004 2.01387 36.6136 7.15742 36.3765 12.9726C36.1462 18.6165 31.922 23.4852 26.3275 24.5565C19.2126 25.9181 12.4626 20.909 11.6894 13.6945C10.9646 6.92032 15.8236 0.866129 22.6113 0.0832258C22.7207 0.0706452 22.8271 0.0280645 22.9355 0C23.6449 0 24.3552 0 25.0646 0ZM13.1613 12.3629C13.1517 18.3165 17.9894 23.2035 23.9149 23.2258C29.9468 23.2481 34.8242 18.4074 34.8388 12.3852C34.8523 6.45194 29.9904 1.56387 24.0591 1.54839C18.0475 1.5329 13.172 6.37161 13.1613 12.3629Z" fill="#828282"/>
<path d="M24.0281 21.6745C18.8478 21.6735 14.7097 17.518 14.7117 12.3174C14.7136 7.23189 18.9242 3.08318 24.0688 3.09769C29.1242 3.11221 33.2913 7.29769 33.2904 12.358C33.2884 17.4958 29.1329 21.6754 24.0281 21.6745ZM23.9923 4.64705C19.6801 4.66447 16.2407 8.1435 16.2601 12.4674C16.2794 16.6974 19.7836 20.1416 24.0571 20.128C28.2726 20.1145 31.7468 16.6219 31.742 12.4016C31.7362 8.11059 28.2581 4.6306 23.9923 4.64705Z" fill="#828282"/>
<path d="M28.3665 8.85778C28.1865 9.1481 28.0945 9.37843 27.9339 9.54004C25.6858 11.8026 23.43 14.0565 21.1723 16.3084C20.7629 16.7168 20.3178 16.7487 19.98 16.4207C19.6394 16.0897 19.6607 15.6329 20.0623 15.2304C22.3258 12.961 24.5933 10.6955 26.8597 8.43004C27.1181 8.17165 27.4345 8.00327 27.7674 8.20939C28.0007 8.35456 28.1565 8.62262 28.3665 8.85778Z" fill="#828282"/>
<path d="M23.2239 9.3107C23.2191 10.5688 22.1681 11.613 20.9081 11.6101C19.62 11.6081 18.5739 10.5542 18.5836 9.26908C18.5932 8.00715 19.6345 6.97263 20.8994 6.96973C22.1836 6.96876 23.2287 8.0207 23.2239 9.3107ZM20.1329 9.25263C20.1136 9.66683 20.4397 10.0317 20.8549 10.0597C21.2855 10.0897 21.6668 9.73747 21.6736 9.30199C21.6803 8.88779 21.3426 8.53166 20.9274 8.51811C20.5132 8.50457 20.1523 8.83747 20.1329 9.25263Z" fill="#828282"/>
<path d="M27.1084 17.8025C25.8242 17.8083 24.7704 16.7545 24.7771 15.4712C24.7829 14.2074 25.8165 13.1748 27.0852 13.1641C28.3452 13.1535 29.4039 14.19 29.4165 15.447C29.43 16.7361 28.3907 17.7967 27.1084 17.8025ZM27.8671 15.4867C27.871 15.0725 27.5284 14.7212 27.1123 14.7116C26.6991 14.7019 26.341 15.0396 26.3255 15.4548C26.3091 15.8883 26.67 16.26 27.1036 16.2541C27.5188 16.2483 27.8633 15.9029 27.8671 15.4867Z" fill="#828282"/>
</svg>
