<svg width="24" height="24" viewBox="0 0 24 24" fill="none" xmlns="http://www.w3.org/2000/svg">
<path d="M1.46304 17.7482L6.60589 12.6054C6.76652 12.4446 6.85675 12.2267 6.85675 11.9995C6.85675 11.7722 6.76652 11.5543 6.60589 11.3936L1.46304 6.25071C0.925179 5.71393 0 6.09536 0 6.85714V17.1429C0 17.9095 0.928393 18.2839 1.46304 17.7482ZM23.1429 20.5714H0.857143C0.629814 20.5714 0.411797 20.6617 0.251051 20.8225C0.0903059 20.9832 0 21.2012 0 21.4286L0 23.1429C0 23.3702 0.0903059 23.5882 0.251051 23.7489C0.411797 23.9097 0.629814 24 0.857143 24H23.1429C23.3702 24 23.5882 23.9097 23.7489 23.7489C23.9097 23.5882 24 23.3702 24 23.1429V21.4286C24 21.2012 23.9097 20.9832 23.7489 20.8225C23.5882 20.6617 23.3702 20.5714 23.1429 20.5714ZM23.3127 13.7143H10.973C10.8828 13.7142 10.7933 13.7319 10.7099 13.7665C10.6265 13.801 10.5507 13.8516 10.4869 13.9154C10.423 13.9793 10.3724 14.0551 10.3379 14.1385C10.3034 14.2219 10.2856 14.3113 10.2857 14.4016V16.4555C10.2856 16.5458 10.3034 16.6352 10.3379 16.7186C10.3724 16.8021 10.423 16.8779 10.4869 16.9417C10.5507 17.0055 10.6265 17.0562 10.7099 17.0907C10.7933 17.1252 10.8828 17.1429 10.973 17.1429H23.3127C23.403 17.1429 23.4924 17.1252 23.5758 17.0907C23.6592 17.0562 23.735 17.0055 23.7988 16.9417C23.8627 16.8779 23.9133 16.8021 23.9478 16.7186C23.9823 16.6352 24.0001 16.5458 24 16.4555V14.4016C24.0001 14.3113 23.9823 14.2219 23.9478 14.1385C23.9133 14.0551 23.8627 13.9793 23.7988 13.9154C23.735 13.8516 23.6592 13.801 23.5758 13.7665C23.4924 13.7319 23.403 13.7142 23.3127 13.7143ZM23.3127 6.85714H10.973C10.8828 6.85707 10.7933 6.8748 10.7099 6.90932C10.6265 6.94384 10.5507 6.99446 10.4869 7.0583C10.423 7.12214 10.3724 7.19793 10.3379 7.28135C10.3034 7.36478 10.2856 7.45418 10.2857 7.54446V9.59839C10.2856 9.68867 10.3034 9.77808 10.3379 9.8615C10.3724 9.94492 10.423 10.0207 10.4869 10.0846C10.5507 10.1484 10.6265 10.199 10.7099 10.2335C10.7933 10.2681 10.8828 10.2858 10.973 10.2857H23.3127C23.403 10.2858 23.4924 10.2681 23.5758 10.2335C23.6592 10.199 23.735 10.1484 23.7988 10.0846C23.8627 10.0207 23.9133 9.94492 23.9478 9.8615C23.9823 9.77808 24.0001 9.68867 24 9.59839V7.54446C24.0001 7.45418 23.9823 7.36478 23.9478 7.28135C23.9133 7.19793 23.8627 7.12214 23.7988 7.0583C23.735 6.99446 23.6592 6.94384 23.5758 6.90932C23.4924 6.8748 23.403 6.85707 23.3127 6.85714ZM23.1429 0H0.857143C0.629814 0 0.411797 0.0903058 0.251051 0.251051C0.0903059 0.411797 0 0.629814 0 0.857143L0 2.57143C0 2.79876 0.0903059 3.01677 0.251051 3.17752C0.411797 3.33827 0.629814 3.42857 0.857143 3.42857H23.1429C23.3702 3.42857 23.5882 3.33827 23.7489 3.17752C23.9097 3.01677 24 2.79876 24 2.57143V0.857143C24 0.629814 23.9097 0.411797 23.7489 0.251051C23.5882 0.0903058 23.3702 0 23.1429 0Z" fill="#28336C"/>
</svg>
