<svg width="39" height="39" viewBox="0 0 39 39" fill="none" xmlns="http://www.w3.org/2000/svg">
<path d="M17.3687 0C18.7908 0 20.2122 0 21.6343 0C21.7615 0.0495117 21.8903 0.0967382 22.0167 0.149297C22.9201 0.527871 23.4259 1.20123 23.4884 2.18309C23.5462 3.09105 23.042 3.96703 22.1988 4.32809C21.8598 4.47357 21.7196 4.64268 21.7852 4.99383C21.7966 5.05553 21.7867 5.12027 21.7867 5.18426C21.7874 5.74412 21.8552 5.82563 22.4105 5.94522C23.8982 6.26438 25.2982 6.80824 26.6007 7.59434C27.6519 8.22885 27.4417 8.34463 28.4281 7.33383C28.4449 7.31631 28.4532 7.29041 28.4692 7.2607C28.419 7.1373 28.3626 7.01086 28.3154 6.88061C27.9673 5.91094 28.307 4.8392 29.1472 4.24963C29.9919 3.65625 31.1444 3.66006 31.8977 4.35627C32.8476 5.23377 33.7838 6.13564 34.6399 7.10303C35.752 8.3591 35.0612 10.3434 33.4303 10.7539C32.8225 10.9071 32.2573 10.773 31.6944 10.5148C31.5047 10.7136 31.3379 10.9063 31.152 11.0784C30.8961 11.3161 30.8671 11.5538 31.0598 11.8516C31.3143 12.2446 31.5534 12.6499 31.7743 13.0627C32.3822 14.1984 32.8072 15.4012 33.0677 16.6634C33.1607 17.1151 33.2848 17.2103 33.7388 17.2141C33.8401 17.2148 33.9437 17.2019 34.0427 17.2164C34.355 17.2621 34.5272 17.1676 34.662 16.8439C35.0269 15.971 35.8922 15.4644 36.8177 15.5101C37.7721 15.5566 38.5597 16.1492 38.8758 17.0564C38.9124 17.1615 38.9589 17.2628 39 17.3664C39 18.7886 39 20.2099 39 21.632C38.9581 21.7349 38.9139 21.8377 38.8751 21.9413C38.5354 22.8432 37.894 23.3787 36.9304 23.4731C35.9607 23.5683 35.1754 23.1753 34.7595 22.3153C34.5196 21.8187 34.2316 21.7227 33.7738 21.7836C33.7487 21.7867 33.7228 21.7859 33.6977 21.7836C33.345 21.7532 33.1477 21.9223 33.0807 22.2605C32.7272 24.036 32.0364 25.6714 31.0393 27.1796C30.8763 27.4264 30.8892 27.6481 31.0972 27.866C31.2983 28.0762 31.4864 28.2986 31.6631 28.4974C31.8749 28.4113 32.0128 28.3466 32.1552 28.2986C33.1279 27.9703 34.1989 28.3298 34.774 29.1754C35.3422 30.011 35.3278 31.1528 34.6407 31.8955C33.7624 32.8446 32.8621 33.7822 31.8939 34.6369C30.6211 35.7596 28.6155 35.0391 28.2415 33.3861C28.1089 32.7996 28.2331 32.258 28.5089 31.6761C28.3596 31.5473 28.1981 31.4232 28.0541 31.2815C27.5856 30.8222 27.5331 30.8108 26.9869 31.1627C25.609 32.0501 24.1191 32.6686 22.521 33.0289C21.7852 33.1949 21.7859 33.1972 21.7859 33.9658C21.7859 34.0039 21.7905 34.0427 21.7852 34.0801C21.7433 34.3642 21.8324 34.5165 22.1302 34.6361C22.9993 34.9857 23.5249 35.8541 23.4929 36.7765C23.4594 37.7333 22.8759 38.5361 21.9802 38.8598C21.8636 38.9017 21.7494 38.952 21.6343 38.9977C20.2122 38.9977 18.7908 38.9977 17.3687 38.9977C17.2537 38.952 17.1394 38.9025 17.0229 38.8598C16.1401 38.5407 15.5612 37.7584 15.5116 36.8139C15.4637 35.8907 15.9763 35.0116 16.837 34.6506C17.1478 34.5203 17.2788 34.3657 17.2187 34.0412C17.2049 33.9673 17.2171 33.8896 17.2164 33.8135C17.2156 33.2536 17.1478 33.1713 16.5925 33.0517C15.1057 32.7303 13.7048 32.1887 12.4023 31.4019C11.3344 30.7567 11.5652 30.65 10.549 31.6913C10.5407 31.6997 10.5391 31.7149 10.5285 31.7423C10.5787 31.8703 10.6389 32.0089 10.6869 32.1506C11.0221 33.1401 10.674 34.1905 9.82161 34.7694C8.97229 35.346 7.8259 35.3171 7.07179 34.614C6.14402 33.7495 5.22844 32.8644 4.38217 31.9213C3.24797 30.6584 3.92514 28.6528 5.57426 28.243C6.16993 28.0952 6.72827 28.2034 7.33688 28.5088C7.45723 28.3626 7.57606 28.1965 7.71698 28.0518C8.17401 27.5841 8.18619 27.5293 7.83504 26.9839C6.94764 25.6059 6.32988 24.1153 5.96883 22.5172C5.80506 21.7912 5.79211 21.7829 5.06848 21.7829C5.00526 21.7829 4.94051 21.789 4.87805 21.7821C4.62592 21.7524 4.48576 21.8225 4.37912 22.0944C4.02949 22.9811 3.15809 23.5211 2.21965 23.4899C1.24998 23.4571 0.454751 22.866 0.128735 21.9367C0.0921728 21.8324 0.043418 21.7334 0 21.6313C0 20.2092 0 18.7878 0 17.3657C0.0411328 17.2621 0.0822645 17.1585 0.122636 17.0541C0.466171 16.1561 1.10373 15.6145 2.06883 15.5231C3.03774 15.4309 3.8185 15.827 4.23897 16.6847C4.47129 17.1585 4.73789 17.275 5.18807 17.2148C5.23758 17.208 5.28937 17.211 5.34041 17.2141C5.65881 17.2316 5.8462 17.0762 5.9079 16.7723C6.26971 14.9723 6.96592 13.3126 7.98053 11.7838C8.13668 11.5484 8.09402 11.3329 7.90283 11.1302C7.70326 10.9185 7.51588 10.6961 7.34068 10.4988C7.12359 10.5864 6.98648 10.6504 6.84328 10.6983C5.86752 11.0274 4.80568 10.6702 4.22601 9.81932C3.65777 8.986 3.67377 7.83961 4.35931 7.09922C5.23834 6.15088 6.15317 5.23072 7.10608 4.35627C7.75506 3.76061 8.56781 3.67301 9.38742 3.99902C10.1941 4.31971 10.7006 4.93898 10.7852 5.79668C10.8332 6.28037 10.6884 6.78387 10.6306 7.27822C10.5879 7.28584 10.546 7.29346 10.5033 7.30184C10.6519 7.43895 10.8042 7.57225 10.9474 7.71469C11.4136 8.17629 11.4654 8.18848 12.0138 7.83428C13.3918 6.94535 14.8817 6.32836 16.4798 5.96807C17.2049 5.8043 17.2148 5.79059 17.2148 5.06848C17.2148 5.01744 17.2088 4.96564 17.2156 4.91613C17.2583 4.63049 17.1615 4.48576 16.8705 4.35932C16.0182 3.98912 15.549 3.30586 15.5132 2.37199C15.4781 1.45488 15.8864 0.757148 16.6771 0.296309C16.8934 0.171387 17.1379 0.0975 17.3687 0ZM37.4781 19.5244C37.4781 18.9782 37.4819 18.4328 37.4766 17.8867C37.472 17.3794 37.1871 17.0511 36.7491 17.0328C36.3127 17.0145 36.0148 17.3116 35.9539 17.8257C35.883 18.4237 35.5487 18.7291 34.9431 18.7368C34.4861 18.7429 34.029 18.7429 33.572 18.7368C32.6252 18.7238 31.8261 18.1297 31.6365 17.2103C31.2876 15.5231 30.634 13.9753 29.7025 12.5303C29.1921 11.7388 29.3208 10.7951 29.9691 10.1149C30.2844 9.78428 30.6097 9.46283 30.938 9.1452C31.3828 8.71482 31.8398 8.69273 32.3342 9.06521C32.7493 9.37828 33.1622 9.36762 33.4532 9.03627C33.7472 8.70111 33.7137 8.29588 33.3412 7.91959C32.5909 7.16168 31.8368 6.40758 31.0789 5.65728C30.7041 5.28633 30.2966 5.25281 29.963 5.54836C29.6324 5.84086 29.6232 6.25143 29.9371 6.66732C30.3088 7.16016 30.2859 7.61795 29.8556 8.06355C29.5562 8.37434 29.25 8.67902 28.94 8.97914C28.2049 9.69287 27.2573 9.81703 26.4019 9.25945C24.992 8.34082 23.4747 7.70936 21.8255 7.37191C20.8917 7.18148 20.2777 6.38625 20.2648 5.4242C20.2587 4.9923 20.261 4.56117 20.264 4.12928C20.2693 3.45896 20.5664 3.12686 21.2291 3.04307C21.7044 2.98289 21.9885 2.67363 21.9664 2.23945C21.9444 1.81213 21.6275 1.52572 21.143 1.52344C20.0515 1.51734 18.9592 1.51734 17.8676 1.52344C17.3801 1.52572 17.064 1.80604 17.0381 2.2326C17.0107 2.67896 17.2986 2.98365 17.8052 3.04611C18.413 3.12 18.7307 3.46963 18.739 4.08434C18.7451 4.52842 18.7451 4.97326 18.739 5.41734C18.7269 6.36721 18.1457 7.16549 17.2209 7.35896C15.5223 7.71469 13.9638 8.37205 12.5074 9.31049C11.735 9.80865 10.7943 9.67078 10.1232 9.03551C9.78199 8.71254 9.45217 8.37815 9.12692 8.03994C8.71711 7.61338 8.69959 7.14949 9.0614 6.67266C9.37828 6.25447 9.37295 5.84771 9.04694 5.55293C8.71483 5.25205 8.30426 5.28176 7.93102 5.65043C7.17311 6.40072 6.41977 7.15482 5.66871 7.91197C5.29395 8.28979 5.2551 8.69045 5.54532 9.02789C5.84086 9.37143 6.2499 9.37752 6.69246 9.04541C7.14873 8.70264 7.62024 8.71939 8.03157 9.11016C8.37206 9.43389 8.70416 9.766 9.02865 10.1057C9.68983 10.7996 9.81323 11.7442 9.2884 12.5539C8.35911 13.9867 7.71621 15.5254 7.36963 17.1996C7.1792 18.1213 6.38397 18.72 5.44096 18.7345C4.99688 18.7413 4.55204 18.7383 4.10795 18.7352C3.44526 18.7307 3.12838 18.4481 3.0484 17.7968C2.98746 17.2986 2.6683 17.0031 2.22498 17.0351C1.80222 17.0655 1.5303 17.3839 1.52801 17.876C1.52344 18.9424 1.52344 20.0088 1.52801 21.0752C1.5303 21.6084 1.82051 21.9482 2.26611 21.9626C2.70563 21.9771 2.9867 21.6922 3.05221 21.1659C3.12153 20.606 3.47877 20.2731 4.04168 20.2617C4.5109 20.2518 4.98088 20.2541 5.45086 20.261C6.39159 20.2762 7.18073 20.8795 7.37268 21.805C7.71698 23.4655 8.34844 24.9958 9.27621 26.4156C9.81322 27.2375 9.69592 28.1904 9.02256 28.8966C8.69883 29.2363 8.3652 29.5676 8.02623 29.8929C7.60119 30.3004 7.15635 30.3164 6.69703 29.9561C6.26666 29.6187 5.85 29.621 5.55064 29.9614C5.249 30.3057 5.2947 30.7056 5.6908 31.1048C6.42433 31.8429 7.16092 32.5795 7.89903 33.313C8.29588 33.7076 8.70187 33.751 9.04236 33.4478C9.37675 33.15 9.37523 32.7425 9.03627 32.2961C8.68893 31.8383 8.69959 31.4034 9.08807 30.9959C9.43008 30.6379 9.77894 30.2859 10.1392 29.947C10.8095 29.3178 11.7503 29.1936 12.5257 29.6948C13.9707 30.6279 15.5177 31.2807 17.2042 31.6327C18.1327 31.8261 18.7246 32.616 18.739 33.5606C18.7459 34.0176 18.7467 34.4746 18.739 34.9317C18.7291 35.522 18.4039 35.8777 17.8235 35.9501C17.3055 36.0141 17.0191 36.3043 17.0366 36.7461C17.0549 37.1978 17.3855 37.4728 17.927 37.4743C18.9805 37.4773 20.0347 37.4773 21.0882 37.4743C21.613 37.4728 21.9329 37.2122 21.9649 36.7743C21.9992 36.3134 21.7143 36.0171 21.172 35.9493C20.6129 35.8792 20.2785 35.5228 20.2671 34.9598C20.2572 34.4777 20.2572 33.9947 20.2678 33.5126C20.2876 32.6145 20.8894 31.8208 21.773 31.6395C23.4739 31.2906 25.0316 30.6295 26.488 29.6903C27.2627 29.1906 28.2004 29.3201 28.873 29.9531C29.215 30.2753 29.5433 30.6112 29.8708 30.9479C30.3134 31.4034 30.3301 31.8193 29.9394 32.3342C29.6271 32.7455 29.6385 33.166 29.9698 33.4547C30.3042 33.7457 30.7102 33.7076 31.0865 33.3351C31.8353 32.5932 32.5795 31.8482 33.3221 31.1002C33.716 30.7034 33.7571 30.2981 33.4501 29.9569C33.1492 29.621 32.7394 29.6232 32.303 29.9637C31.8574 30.3111 31.4095 30.3012 31.002 29.9142C30.6523 29.5821 30.3118 29.2401 29.9782 28.8912C29.3163 28.1996 29.1936 27.249 29.7162 26.4438C30.6462 25.0118 31.2899 23.4731 31.6357 21.7989C31.8254 20.8779 32.6206 20.277 33.5629 20.2625C34.0199 20.2556 34.4769 20.2571 34.9339 20.2617C35.5593 20.2686 35.8808 20.5664 35.9569 21.1994C36.0156 21.6831 36.3165 21.9779 36.74 21.9657C37.181 21.9527 37.4728 21.626 37.4781 21.1225C37.4827 20.5908 37.4781 20.0576 37.4781 19.5244Z" fill="white"/>
<path d="M29.5197 21.511C29.6805 24.241 27.0579 26.6793 24.3469 26.3182C22.1029 26.0196 20.4111 24.3827 20.1673 22.2743C20.1102 21.7814 20.3563 21.4196 20.7973 21.348C21.1995 21.2825 21.5697 21.5552 21.6535 22.0237C21.8972 23.3856 22.6445 24.3141 23.9851 24.7003C25.7302 25.2031 27.5393 24.091 27.9323 22.3024C28.3185 20.5459 27.1272 18.7963 25.3425 18.5106C24.9837 18.4527 24.6699 18.343 24.5411 17.9683C24.3545 17.4244 24.7727 16.9125 25.3806 16.9849C26.9177 17.1669 28.0808 17.9492 28.8768 19.27C29.2965 19.9617 29.4664 20.6038 29.5197 21.511Z" fill="white"/>
<path d="M19.7491 13.0763C19.7582 14.842 18.3353 16.2847 16.5758 16.2946C14.8246 16.3037 13.3743 14.8686 13.3583 13.1098C13.343 11.3586 14.785 9.90452 16.5423 9.89919C18.3163 9.8931 19.74 11.3038 19.7491 13.0763ZM16.5423 11.4219C15.6267 11.4287 14.8764 12.1866 14.8817 13.0992C14.887 14.0117 15.6457 14.7681 16.556 14.7704C17.4891 14.7719 18.2378 14.0079 18.2257 13.0664C18.2135 12.1402 17.4716 11.415 16.5423 11.4219Z" fill="white"/>
<path d="M11.6392 24.343C11.6346 22.8203 12.8633 21.5749 14.3791 21.5643C15.9101 21.5536 17.1601 22.8051 17.1563 24.3438C17.1517 25.8649 15.9132 27.105 14.3974 27.105C12.8853 27.1065 11.6437 25.8634 11.6392 24.343ZM13.1634 24.327C13.1603 25.0118 13.7027 25.5709 14.3814 25.5823C15.0578 25.5938 15.6214 25.0438 15.6329 24.3613C15.6443 23.6582 15.0898 23.0877 14.3966 23.0885C13.7171 23.0892 13.1664 23.643 13.1634 24.327Z" fill="white"/>
<path d="M20.2602 28.5699C20.2571 28.9896 19.8953 29.3377 19.4771 29.3232C19.0726 29.3095 18.7398 28.9637 18.7428 28.5585C18.7459 28.1388 19.1069 27.7907 19.5259 27.8051C19.9303 27.8196 20.2632 28.1654 20.2602 28.5699Z" fill="white"/>
<path d="M10.1957 19.4697C10.2132 19.0568 10.5675 18.7293 10.975 18.7483C11.3817 18.7674 11.7184 19.1269 11.7062 19.5291C11.6933 19.9534 11.3231 20.2885 10.8965 20.2626C10.4814 20.2383 10.1774 19.894 10.1957 19.4697Z" fill="white"/>
<path d="M24.6021 13.0888C24.6036 13.5062 24.2425 13.8635 23.8282 13.8543C23.4275 13.8452 23.087 13.4979 23.0847 13.0964C23.0824 12.6737 23.4336 12.3302 23.8586 12.3385C24.2692 12.3454 24.6005 12.6805 24.6021 13.0888Z" fill="white"/>
<path d="M22.0183 18.1121C22.4418 18.109 22.7716 18.4274 22.7792 18.8464C22.7876 19.2737 22.4342 19.6287 22.0099 19.6203C21.6039 19.6127 21.2596 19.2615 21.2611 18.8578C21.2634 18.4465 21.5993 18.1151 22.0183 18.1121Z" fill="white"/>
</svg>
