<svg width="89" height="89" viewBox="0 0 89 89" fill="none" xmlns="http://www.w3.org/2000/svg">
<path d="M76.6189 89C55.2069 89 33.7931 89 12.381 89C11.6543 88.494 11.4552 87.8014 11.4677 86.9257C11.5108 83.6456 11.4839 80.3638 11.4839 77.0837C11.4839 76.7679 11.4839 76.4521 11.4839 76.0806C8.27018 76.0806 5.17133 76.0537 2.07427 76.0968C1.20042 76.1094 0.506008 75.9102 0 75.1835C0 68.2447 0 61.3077 0 54.3689C0.0466532 54.2954 0.118427 54.2254 0.134577 54.1465C0.701593 51.4693 2.3219 49.7252 4.8322 48.7042C8.01 47.4122 11.1681 46.0701 14.3297 44.7404C15.2861 44.3385 16.6211 44.1465 17.0733 43.418C17.5596 42.6357 17.2437 41.3348 17.2007 40.2635C17.1899 39.9764 16.9602 39.6391 16.7342 39.4292C15.5965 38.3812 14.3279 37.459 13.2926 36.3213C11.7207 34.5952 10.8469 32.4635 10.3337 30.2223C7.39992 29.8383 5.78859 28.5105 5.72758 26.2048C5.70425 25.2789 6.01468 24.2579 6.44891 23.4235C7.10923 22.1567 8.40655 21.6884 9.82948 21.4713C9.06687 19.9389 8.30068 18.4872 7.61524 16.9997C5.5948 12.6215 7.34968 7.36583 11.683 5.32564C13.298 4.56663 14.7424 3.63177 16.1725 2.61617C16.657 2.27165 17.1576 1.89304 17.7103 1.71002C19.5692 1.09635 21.4533 0.563427 23.3266 0C24.1036 0 24.8823 0 25.6593 0C26.0953 0.0843347 26.5331 0.161492 26.9674 0.253004C30.3102 0.95998 33.3571 2.417 36.2262 4.18623C38.5679 5.63069 40.0087 7.86645 40.7749 10.5221C41.3132 12.3882 41.3168 14.2723 40.9849 16.0254C43.1309 16.0254 45.2249 16.0254 47.371 16.0254C47.301 15.6827 47.2364 15.3686 47.1718 15.0546C46.3661 11.0945 48.2215 7.02669 51.8856 5.33821C53.5095 4.58996 54.9324 3.61921 56.3697 2.61796C56.8577 2.27704 57.3548 1.89484 57.9074 1.71181C59.7628 1.09635 61.6469 0.563427 63.5202 0C64.2971 0 65.0759 0 65.8528 0C66.3176 0.0915121 66.7805 0.195585 67.247 0.272742C69.8829 0.70877 72.1887 2.00968 74.5662 3.10244C80.432 5.79935 82.9458 12.3452 80.4571 18.3024C80.021 19.3449 79.5707 20.3821 79.1239 21.4264C82.1348 22.2213 83.4321 23.7178 83.2832 26.1868C83.1486 28.4333 81.5983 29.8006 78.6771 30.2241C78.5999 30.4897 78.5156 30.7696 78.4384 31.0531C77.6489 33.9312 76.2511 36.5331 73.791 38.191C71.9752 39.4166 71.5302 40.8162 71.7437 42.781C71.8101 43.3893 71.9895 43.6369 72.5242 43.8576C76.3875 45.442 80.2292 47.0749 84.0924 48.6575C85.9029 49.3986 87.3653 50.5093 88.2284 52.2911C88.5496 52.9532 88.747 53.6727 89 54.3672C89 61.3059 89 68.2429 89 75.1817C88.4922 75.9048 87.8014 76.1111 86.9257 76.095C84.1534 76.0483 81.3794 76.0788 78.6053 76.0788C78.2608 76.0788 77.9145 76.0788 77.5161 76.0788C77.5161 79.7734 77.4928 83.3496 77.5323 86.9239C77.543 87.8014 77.3421 88.4922 76.6189 89ZM51.6774 59.1599C51.9627 59.2496 52.2121 59.3339 52.4651 59.4057C59.0773 61.2503 65.6985 63.0698 72.2999 64.9503C75.4849 65.8564 77.4731 68.5767 77.5143 71.8819C77.5197 72.3143 77.5143 72.7485 77.5143 73.1576C80.4571 73.1576 83.2563 73.1576 86.1272 73.1576C86.1272 72.8149 86.1272 72.5224 86.1272 72.23C86.1272 66.8469 86.129 61.4656 86.1272 56.0826C86.1272 53.5687 85.2749 52.2839 82.9656 51.3203C78.7237 49.5475 74.4891 47.7585 70.2328 46.0252C69.2549 45.6269 68.8458 45.0329 68.8853 43.9868C68.9409 42.4939 68.9499 40.9956 68.8817 39.5027C68.8332 38.4405 69.2083 37.7855 70.1611 37.2849C70.9972 36.8471 71.7778 36.2531 72.474 35.6108C74.4011 33.8254 75.5459 31.6022 75.9371 28.9932C76.1434 27.6205 76.5579 27.2814 77.9575 27.276C78.3164 27.2742 78.6771 27.2975 79.0341 27.2616C79.8273 27.1845 80.3781 26.5905 80.3799 25.8441C80.3835 25.0958 79.8362 24.4911 79.0449 24.4194C78.5694 24.3781 78.0885 24.4194 77.6112 24.3978C76.6548 24.3548 76.0501 23.8272 76.1094 22.8816C76.1686 21.9216 76.3318 20.9437 76.6243 20.0286C76.976 18.9233 77.5448 17.8915 77.9575 16.8041C79.5653 12.5677 77.7907 7.96335 73.7552 5.9124C72.5852 5.31847 71.3651 4.82143 70.179 4.2598C65.4814 2.03839 61.0906 2.53542 56.9869 5.71323C55.9516 6.5153 54.9342 7.30841 53.6189 7.69599C52.9101 7.90413 52.2337 8.41732 51.6864 8.94306C50.1863 10.3893 49.6049 12.2142 49.9495 14.2597C50.2778 16.2138 51.1337 17.8072 53.269 18.3401C53.6099 18.4244 53.9186 18.6362 54.2433 18.7869C60.4267 21.6543 62.9173 28.1175 60.249 34.3762C59.8435 35.3291 59.4326 36.2801 58.984 37.3244C59.5223 37.3244 59.9386 37.3154 60.3513 37.3262C62.7019 37.389 64.5663 39.2533 64.595 41.5644C64.6237 43.924 62.7701 45.8547 60.3926 45.9301C59.8005 45.9498 59.2065 45.9337 58.5893 45.9337C57.6383 49.962 55.485 53.068 52.0489 55.2751C51.8658 55.3917 51.7043 55.6878 51.6972 55.9067C51.6577 56.9779 51.6774 58.0528 51.6774 59.1599ZM29.9298 37.3459C29.7486 36.944 29.6356 36.6748 29.5064 36.4146C28.9106 35.2106 28.279 34.0228 27.7156 32.8026C25.6431 28.3131 27.5075 22.9534 32.0131 21.0119C33.9223 20.1883 35.4116 18.8264 37.1557 17.8126C37.3638 17.6923 37.5164 17.4214 37.6186 17.1863C39.4561 12.9911 37.7514 8.07101 33.68 5.97879C32.0364 5.13365 30.339 4.37823 28.6235 3.69099C26.4631 2.82611 24.2238 2.69871 21.9324 3.18498C19.7325 3.65331 17.9148 4.80708 16.1761 6.15643C15.5714 6.62476 14.9219 7.12359 14.2095 7.35147C10.2906 8.60034 8.59316 12.4349 10.3929 16.151C11.0173 17.4411 11.6256 18.742 12.329 19.9891C12.8566 20.924 12.984 21.8911 12.9158 22.9211C12.8566 23.8201 12.338 24.3476 11.439 24.396C10.9312 24.423 10.418 24.3637 9.9156 24.4248C9.13506 24.5199 8.68109 25.0025 8.62546 25.7921C8.57343 26.5313 9.13685 27.1665 9.91381 27.2545C10.2978 27.2975 10.6908 27.2706 11.0783 27.2724C12.4205 27.2796 12.8458 27.6277 13.0539 28.9394C13.6568 32.738 15.6611 35.5551 19.0166 37.4033C19.7917 37.8304 20.1255 38.4046 20.1057 39.2802C20.0699 40.8036 20.0968 42.3306 20.095 43.854C20.095 45.2949 19.9407 45.5353 18.6326 46.079C14.3889 47.8429 10.1471 49.6139 5.89625 51.3652C3.83633 52.2139 2.84944 53.7158 2.8602 55.9534C2.88712 61.3956 2.86917 66.8379 2.87097 72.2784C2.87097 72.5673 2.89788 72.8562 2.91044 73.1433C5.79756 73.1433 8.61829 73.1433 11.4821 73.1433C11.4821 72.7521 11.4803 72.4273 11.4821 72.1008C11.4982 68.4977 13.5294 65.808 16.9943 64.8408C22.0831 63.4233 27.1773 62.0255 32.2679 60.6133C33.9528 60.1468 35.6341 59.6623 37.3208 59.185C37.3208 58.1317 37.2885 57.1735 37.3333 56.2207C37.3585 55.6752 37.1719 55.3702 36.7107 55.0759C34.0838 53.3982 32.2248 51.0727 31.0926 48.1748C30.8145 47.4607 30.6207 46.7142 30.4753 46.2531C28.9896 45.8852 27.5972 45.7453 26.3968 45.189C25.0779 44.5772 24.484 43.2655 24.4104 41.7941C24.3548 40.7031 24.7011 39.7324 25.3937 38.8926C26.5475 37.4948 28.1157 37.1862 29.9298 37.3459ZM63.1416 74.7115C64.1805 74.7115 65.0866 74.7115 66.0574 74.7115C66.0574 78.5335 66.0574 82.2909 66.0574 86.0716C68.9445 86.0716 71.7652 86.0716 74.5877 86.0716C74.6129 85.9299 74.6398 85.8455 74.6398 85.7594C74.6416 81.0941 74.6595 76.4287 74.6344 71.7634C74.6236 69.7789 73.3586 68.2106 71.3687 67.6544C64.6991 65.7882 58.024 63.9454 51.3562 62.0721C50.8592 61.9322 50.5452 62.0021 50.1845 62.3736C48.7454 63.8521 47.2777 65.3037 45.8135 66.7554C44.8391 67.7207 44.1752 67.7243 43.2117 66.7697C41.7672 65.3378 40.3156 63.9131 38.9088 62.4471C38.4997 62.0201 38.1426 61.9357 37.5863 62.0919C31.0065 63.9418 24.4176 65.7667 17.8341 67.6059C15.4907 68.2608 14.3584 69.7609 14.3566 72.1815C14.353 76.5472 14.3548 80.9128 14.3566 85.2803C14.3566 85.5405 14.3818 85.8007 14.3961 86.068C17.276 86.068 20.0968 86.068 23.0162 86.068C23.0162 82.2281 23.0162 78.451 23.0162 74.699C24.0013 74.699 24.8877 74.699 25.8692 74.699C25.8692 78.5299 25.8692 82.3071 25.8692 86.086C38.3364 86.086 50.7049 86.086 63.1416 86.086C63.1416 82.2855 63.1416 78.5299 63.1416 74.7115ZM34.9738 33.7572C34.3081 35.0886 33.6854 36.3034 33.0951 37.5325C32.9982 37.7335 33.0197 37.9991 33.0179 38.2341C33.0125 39.9082 32.9982 41.5824 33.0197 43.2565C33.0951 49.0612 37.5253 53.8468 43.4198 54.5053C48.9195 55.119 54.3797 51.3239 55.5855 45.8206C56.0072 43.8953 55.7632 41.8336 56.009 39.8562C56.3015 37.5056 54.9683 35.7902 54.028 33.7626C51.1983 36.0486 48.0726 37.319 44.5018 37.3154C40.9364 37.3118 37.8035 36.0558 34.9738 33.7572ZM31.3151 34.0228C31.6327 33.8738 31.6704 33.8702 31.6793 33.8505C32.1423 32.9479 32.5927 32.04 33.0646 31.1428C33.6424 30.0483 34.4893 29.8491 35.4959 30.574C36.3213 31.1661 37.1091 31.8139 37.9488 32.3809C41.0046 34.4444 44.308 34.9594 47.8626 33.9384C49.9925 33.3265 51.6487 31.9467 53.3767 30.6709C54.5574 29.7988 55.3487 29.9962 56.0198 31.3187C56.4325 32.1315 56.8398 32.9461 57.2812 33.8254C59.7233 29.3485 58.1209 23.9869 53.7158 21.7386C52.1224 20.9258 50.4896 20.1721 48.8244 19.5226C45.3003 18.1481 41.8838 18.4908 38.41 20.4359C41.0028 21.3098 42.9102 22.7704 44.2147 25.0671C43.4162 25.5983 42.6751 26.0935 41.8946 26.6121C41.5662 26.1796 41.2755 25.7669 40.9544 25.3794C39.1528 23.2082 36.1024 22.3953 33.576 23.4056C31.1141 24.3907 29.4848 26.8095 29.8365 29.5189C30.0357 31.0352 30.7911 32.4832 31.3151 34.0228ZM40.1935 56.7644C40.1935 57.6167 40.172 58.304 40.2025 58.9876C40.2169 59.2962 40.2366 59.6946 40.425 59.892C41.7367 61.2718 43.0932 62.6086 44.5054 64.0298C45.9283 62.5943 47.2723 61.2413 48.6091 59.8812C48.7042 59.7843 48.7903 59.6264 48.7921 59.4954C48.8082 58.6162 48.8011 57.7352 48.8011 56.7572C45.887 57.6401 43.0843 57.6042 40.1935 56.7644ZM30.1093 40.2115C29.117 40.2456 28.0422 39.8652 27.5039 40.9508C27.3083 41.3455 27.346 42.0507 27.5792 42.4257C28.1732 43.3785 29.1834 43.025 30.1093 43.0268C30.1093 42.0812 30.1093 41.2002 30.1093 40.2115ZM58.9248 40.2258C58.9248 41.1463 58.9248 42.0704 58.9248 42.9927C60.825 43.2099 61.6953 42.7864 61.7186 41.6542C61.7402 40.5363 60.9542 40.1236 58.9248 40.2258Z" fill="#4890C1"/>
</svg>
