<svg width="32" height="68" viewBox="0 0 32 68" fill="none" xmlns="http://www.w3.org/2000/svg">
<g clip-path="url(#clip0_139_246)">
<path d="M17.4953 68C16.4979 68 15.5021 68 14.5047 68C14.3387 67.9529 14.1757 67.8907 14.0067 67.8634C7.31664 66.7629 2.87701 62.9486 0.746168 56.4294C0.352897 55.2257 0.242243 53.9249 0 52.6696C0 40.9821 0 29.2946 0 17.6071C0.337944 16.5295 1.07215 16.1196 2.16523 16.1925C3.02505 16.2487 3.89234 16.2031 4.82243 16.2031C4.82243 15.8009 4.82243 15.5019 4.82243 15.2029C4.82243 10.8557 4.83738 6.50705 4.81196 2.15991C4.80598 1.18089 5.09308 0.443214 5.98131 0C12.6609 0 19.3391 0 26.0187 0C26.9039 0.444732 27.194 1.17937 27.1895 2.15991C27.1641 6.53286 27.1776 10.9043 27.1806 15.2772C27.1806 15.5687 27.2075 15.8586 27.2239 16.2031C28.1495 16.2031 28.9944 16.2471 29.8348 16.1925C30.9264 16.1212 31.6665 16.5234 32.0015 17.6071C32.0015 29.2946 32.0015 40.9821 32.0015 52.6696C31.9566 52.8897 31.8908 53.1068 31.8714 53.3284C31.2852 59.928 26.6407 65.5988 20.326 67.3807C19.3974 67.6418 18.4389 67.7966 17.4953 68ZM3.25234 19.468C3.25234 19.7549 3.25234 19.9796 3.25234 20.2042C3.25234 30.6759 3.24785 41.1476 3.26131 51.6208C3.2628 52.4511 3.32262 53.292 3.45271 54.1116C4.5428 60.9571 11.4153 65.8598 18.0994 64.5833C24.477 63.366 28.7312 58.1992 28.7432 51.5844C28.7611 41.1385 28.7492 30.6911 28.7477 20.2437C28.7477 19.9978 28.7267 19.7519 28.7148 19.468C20.2333 19.468 11.7966 19.468 3.25234 19.468ZM23.9148 3.27857C18.5914 3.27857 13.3458 3.27857 8.08523 3.27857C8.08523 7.59384 8.08523 11.8575 8.08523 16.1621C13.3772 16.1621 18.6228 16.1621 23.9148 16.1621C23.9148 11.8575 23.9148 7.59384 23.9148 3.27857Z" fill="#4890C1"/>
<path d="M14.376 9.7401C14.3775 9.7401 14.379 9.7401 14.3805 9.7401C14.3805 9.16028 14.4074 8.57742 14.3745 7.99912C14.3237 7.13242 13.7121 6.53742 12.8911 6.50099C12.0418 6.46456 11.2852 7.04742 11.2433 7.90805C11.1835 9.11626 11.1835 10.3321 11.2478 11.5403C11.2911 12.369 12.0253 12.9413 12.8388 12.9276C13.6657 12.9155 14.3087 12.3326 14.3685 11.4796C14.4089 10.9028 14.376 10.3199 14.376 9.7401ZM20.779 9.77501C20.779 9.19519 20.8074 8.61233 20.773 8.03403C20.7192 7.11421 20.0343 6.4843 19.1581 6.49947C18.3042 6.51314 17.6553 7.1218 17.6253 8.0234C17.5895 9.13296 17.591 10.244 17.6224 11.3536C17.6493 12.3007 18.3027 12.9261 19.185 12.9276C20.0567 12.9291 20.7237 12.2886 20.776 11.3642C20.8044 10.8375 20.7805 10.3063 20.779 9.77501Z" fill="white"/>
<path d="M23.9641 25.0386C23.9641 24.2812 23.9402 23.5237 23.9701 22.7679C24.0105 21.7251 24.664 21.0618 25.5896 21.0709C26.4853 21.08 27.1402 21.7236 27.1641 22.7329C27.2 24.2963 27.1985 25.8612 27.1656 27.4262C27.1447 28.4659 26.4568 29.1504 25.5492 29.1368C24.6445 29.1246 24.003 28.431 23.9686 27.3837C23.9447 26.6035 23.9641 25.8203 23.9641 25.0386Z" fill="#4890C1"/>
<path d="M14.3761 9.74006C14.3761 10.3199 14.409 10.9027 14.3686 11.481C14.3088 12.3326 13.6658 12.9154 12.8389 12.9291C12.0239 12.9412 11.2912 12.3705 11.2479 11.5418C11.1851 10.3335 11.1851 9.11774 11.2434 7.90952C11.2853 7.0489 12.0419 6.46604 12.8912 6.50247C13.7122 6.53738 14.3238 7.13238 14.3746 8.0006C14.409 8.5789 14.3806 9.16176 14.3806 9.74158C14.3791 9.74006 14.3776 9.74006 14.3761 9.74006Z" fill="#4890C1"/>
<path d="M20.7805 9.77501C20.7805 10.3047 20.8044 10.836 20.776 11.3642C20.7252 12.2901 20.0568 12.9306 19.185 12.9276C18.3027 12.9261 17.6478 12.2992 17.6224 11.3536C17.591 10.244 17.5895 9.13144 17.6254 8.0234C17.6553 7.1218 18.3042 6.51314 19.1581 6.49947C20.0343 6.4843 20.7192 7.11421 20.773 8.03403C20.8074 8.61233 20.779 9.19519 20.7805 9.77501Z" fill="#4890C1"/>
</g>
<defs>
<clipPath id="clip0_139_246">
<rect width="32" height="68" fill="white"/>
</clipPath>
</defs>
</svg>
