<svg width="77" height="83" viewBox="0 0 77 83" fill="none" xmlns="http://www.w3.org/2000/svg">
<g clip-path="url(#clip0_139_226)">
<path d="M77.0001 58.6188C77.0001 63.8063 77.0001 68.9938 77.0001 74.1813C76.1301 76.6972 74.3283 77.6742 71.7595 77.4788C70.7779 77.4044 69.7861 77.4667 68.7822 77.4667C68.9298 80.1659 68.0615 82.1077 65.503 83C47.5417 83 29.5821 83 11.6208 83C11.5281 82.9429 11.4406 82.8703 11.3411 82.834C9.36082 82.1147 8.37241 80.7106 8.36212 78.5837C8.35697 77.605 8.3604 76.6246 8.3604 75.6459C8.3604 74.8816 8.3604 74.1173 8.3604 73.3184C6.94642 73.3184 5.66286 73.3253 4.37758 73.3167C2.38188 73.3046 1.0211 72.3172 0.37417 70.422C-0.90596 66.6698 1.19785 63.6333 5.07599 63.6333C6.15192 63.6333 7.22784 63.6333 8.29691 63.6333C8.29691 60.8079 8.29691 58.0914 8.29691 55.3333C7.00648 55.3333 5.77955 55.3351 4.55261 55.3333C2.19999 55.3281 0.734529 54.1834 0.221447 51.8594C-0.398026 49.0513 0.81518 45.2972 4.98504 45.6379C6.08156 45.7278 7.19352 45.6517 8.29691 45.6517C8.29691 42.8297 8.29691 40.1115 8.29691 37.3517C7.0082 37.3517 5.78298 37.3535 4.55604 37.3517C2.2017 37.3465 0.737961 36.2036 0.223163 33.8813C-0.399742 31.0731 0.816896 27.3156 4.98333 27.6563C6.08156 27.7462 7.19181 27.6701 8.30034 27.6701C8.30034 24.8499 8.30034 22.1333 8.30034 19.3701C6.90009 19.3701 5.55818 19.3788 4.21799 19.3684C2.49514 19.3563 1.29051 18.5211 0.576657 16.9631C-0.00849609 15.6853 -0.0737038 14.3469 0.266063 12.9964C0.818612 10.7986 2.23431 9.69717 4.46338 9.68852C5.74008 9.68333 7.01678 9.68852 8.3604 9.68852C8.3604 9.01933 8.3604 8.44871 8.3604 7.87981C8.3604 6.69879 8.36212 5.51777 8.3604 4.33675C8.35697 2.05252 9.63195 0.753917 11.6208 0C29.5821 0 47.5417 0 65.503 0C68.1061 0.890521 68.9298 2.89462 68.7977 5.53333C69.1409 5.53333 69.4206 5.53333 69.7003 5.53333C70.759 5.53333 71.8178 5.51258 72.8749 5.53852C75.0576 5.5904 76.2845 6.88208 77.0001 8.81875C77.0001 14.0063 77.0001 19.1938 77.0001 24.3813C76.1318 26.8834 74.3437 27.8724 71.7818 27.6788C70.8002 27.6044 69.8101 27.6667 68.8251 27.6667C68.8251 28.6471 68.8251 29.5186 68.8251 30.4333C69.1683 30.4333 69.4497 30.4333 69.7312 30.4333C70.7848 30.4333 71.8401 30.4109 72.8937 30.4385C75.0679 30.4956 76.2845 31.7925 77.0001 33.7188C77.0001 38.9062 77.0001 44.0938 77.0001 49.2812C76.1335 51.7851 74.3437 52.7707 71.7801 52.5788C70.7985 52.5044 69.8084 52.5667 68.8234 52.5667C68.8234 53.5471 68.8234 54.4186 68.8234 55.3333C69.1666 55.3333 69.448 55.3333 69.7294 55.3333C70.7831 55.3333 71.8384 55.3109 72.892 55.3385C75.0679 55.3956 76.2862 56.6925 77.0001 58.6188ZM11.1678 19.3667C11.1678 22.1904 11.1678 24.9069 11.1678 27.6667C13.4861 27.6667 15.7426 27.6597 17.9991 27.6684C19.7237 27.6753 20.9283 28.5174 21.637 30.0771C22.2188 31.3567 22.2822 32.6951 21.9408 34.0456C21.3899 36.2312 19.9639 37.3396 17.7349 37.3465C16.048 37.3517 14.3612 37.3483 12.6744 37.3483C12.1699 37.3483 11.6654 37.3483 11.1712 37.3483C11.1712 40.1755 11.1712 42.8937 11.1712 45.6483C13.4929 45.6483 15.7495 45.6396 18.006 45.6517C19.6911 45.6604 20.8837 46.4696 21.601 47.9896C22.2153 49.2916 22.2857 50.6542 21.939 52.0358C21.3882 54.218 19.9622 55.3247 17.728 55.3299C15.8404 55.3351 13.9528 55.3316 12.0669 55.3316C11.7649 55.3316 11.4612 55.3316 11.1746 55.3316C11.1746 58.164 11.1746 60.8822 11.1746 63.5849C11.269 63.6039 11.2965 63.6143 11.3239 63.6143C13.5547 63.6212 15.7838 63.6195 18.0146 63.6351C19.6997 63.6472 20.8854 64.4599 21.6079 65.9781C22.1879 67.1954 22.2754 68.4819 22.0025 69.7753C21.5049 72.1374 20.0274 73.3097 17.6353 73.3149C16.3483 73.3184 15.0614 73.3149 13.7744 73.3149C12.9009 73.3149 12.0258 73.3149 11.106 73.3149C11.106 74.9853 11.106 76.5381 11.106 78.0909C11.106 79.8737 11.4543 80.2316 13.1875 80.2316C30.1158 80.2316 47.044 80.2316 63.9706 80.2316C65.6488 80.2316 66.0177 79.8564 66.0177 78.141C66.0177 53.7062 66.0177 29.2731 66.0177 4.83821C66.0177 3.13671 65.6488 2.76494 63.9551 2.76494C47.0269 2.76494 30.0986 2.76494 13.172 2.76494C12.8855 2.76494 12.5285 2.66638 12.3295 2.80125C11.8885 3.09867 11.2141 3.49637 11.1884 3.88717C11.07 5.79962 11.1334 7.72073 11.1334 9.68333C13.4809 9.68333 15.7375 9.67642 17.9923 9.68506C19.7168 9.69198 20.9232 10.5289 21.6336 12.0886C22.217 13.3665 22.2822 14.7048 21.9425 16.057C21.3916 18.2479 19.9708 19.358 17.74 19.3649C15.571 19.3719 13.4003 19.3667 11.1678 19.3667ZM68.82 8.30519C68.82 13.8904 68.82 19.3701 68.82 24.8965C70.2151 24.8965 71.5535 24.9225 72.8903 24.8879C73.6985 24.8671 74.2374 24.3294 74.2408 23.5098C74.2597 18.9067 74.2597 14.3019 74.2408 9.6989C74.2374 8.87408 73.7037 8.33804 72.8937 8.31729C71.5587 8.27925 70.2185 8.30519 68.82 8.30519ZM68.8045 49.7879C70.2357 49.7879 71.629 49.838 73.0156 49.7689C73.7998 49.7291 74.2442 49.1689 74.2459 48.3683C74.2579 43.7929 74.2545 39.2175 74.2494 34.6421C74.2494 33.9211 73.8821 33.3159 73.1957 33.2692C71.7337 33.1706 70.2597 33.2398 68.8045 33.2398C68.8045 38.7973 68.8045 44.2546 68.8045 49.7879ZM68.8234 58.1035C68.8234 63.6939 68.8234 69.1736 68.8234 74.6965C70.1928 74.6965 71.5038 74.7173 72.8131 74.6896C73.714 74.6706 74.2116 74.1346 74.2494 73.2129C74.2665 72.81 74.2545 72.4071 74.2545 72.0042C74.2545 67.9476 74.2579 63.8892 74.2528 59.8326C74.2511 58.7311 73.8101 58.1398 72.8886 58.1138C71.5518 58.0741 70.2134 58.1035 68.8234 58.1035ZM11.106 16.6C13.2784 16.6 15.4526 16.6052 17.625 16.5983C18.84 16.5948 19.4268 15.9031 19.4183 14.506C19.4097 13.1434 18.8365 12.4552 17.6731 12.4535C13.2973 12.4483 8.92325 12.4465 4.54746 12.4535C3.39432 12.4552 2.78342 13.1763 2.7697 14.5008C2.75768 15.8565 3.38574 16.5948 4.5835 16.5983C6.75938 16.6052 8.93183 16.6 11.106 16.6ZM11.1231 34.5833C13.2956 34.5833 15.4698 34.5885 17.6422 34.5816C18.8451 34.5781 19.4354 33.8675 19.4183 32.472C19.4028 31.1112 18.8297 30.4368 17.6559 30.4351C13.3093 30.4299 8.96271 30.4299 4.6161 30.4351C3.39603 30.4368 2.77313 31.1423 2.7697 32.4997C2.76626 33.8571 3.39089 34.5764 4.60066 34.5816C6.77654 34.5885 8.94899 34.5833 11.1231 34.5833ZM11.1918 52.5667C13.3368 52.5667 15.4818 52.5719 17.625 52.5649C18.84 52.5615 19.4268 51.8664 19.4183 50.4709C19.4097 49.1083 18.8348 48.4201 17.6731 48.4184C13.2973 48.4132 8.92325 48.4115 4.54746 48.4184C3.39432 48.4201 2.78342 49.1412 2.77141 50.4657C2.7594 51.8214 3.38745 52.5598 4.58693 52.5632C6.78855 52.5719 8.99017 52.5667 11.1918 52.5667ZM11.1575 66.4C8.95585 66.4 6.75423 66.3931 4.55261 66.4035C3.39603 66.4086 2.78514 67.1228 2.77141 68.4456C2.75597 69.8013 3.38574 70.5465 4.58178 70.5483C8.95757 70.5535 13.3316 70.5552 17.7074 70.5483C18.8468 70.5465 19.4251 69.8238 19.4183 68.4612C19.4114 67.0986 18.8365 66.4086 17.6782 66.4035C15.5041 66.3948 13.3316 66.4 11.1575 66.4Z" fill="#4890C1"/>
<path d="M33.697 39.4406C30.0745 34.1044 31.9227 28.1699 35.0681 25.6159C38.579 22.7645 44.3087 22.8267 47.7047 25.7559C50.9067 28.5191 52.3636 34.4035 48.887 39.4544C49.1959 39.5115 49.4601 39.5616 49.7227 39.6083C54.0693 40.3812 57.5407 44.2598 57.7329 48.7296C57.7998 50.2911 57.7209 51.9061 57.3949 53.4278C57.0002 55.2728 55.7063 56.3881 53.8428 56.893C48.3533 58.3819 42.7798 59.058 37.1273 58.3974C34.1346 58.0481 31.1711 57.3616 28.2247 56.6942C26.6202 56.3311 25.6044 55.0913 25.2251 53.535C24.2968 49.7291 24.6125 46.0927 27.2088 42.9439C28.7464 41.0798 30.7455 39.9818 33.1221 39.5841C33.3109 39.5547 33.4928 39.4924 33.697 39.4406ZM41.3091 55.8296C45.328 55.7933 49.2782 55.259 53.1649 54.2094C54.1757 53.9362 54.8243 53.3258 54.8912 52.3194C54.9873 50.8634 55.0903 49.3677 54.8655 47.9429C54.7025 46.9192 54.1791 45.8368 53.515 45.0361C51.6085 42.7415 48.9299 42.0447 46.0916 41.8493C45.8548 41.8337 45.5991 41.9703 45.3623 42.0637C42.6596 43.1323 39.9638 43.122 37.2525 42.0724C36.8441 41.915 36.3431 41.7991 35.9312 41.8856C34.5962 42.1675 33.232 42.4234 31.9741 42.93C29.9922 43.7289 28.3242 45.0846 27.9004 47.2737C27.5778 48.9337 27.6876 50.6957 27.7545 52.4059C27.7923 53.3776 28.489 53.9448 29.4585 54.2076C33.3384 55.2607 37.2886 55.7933 41.3091 55.8296ZM41.2765 40.1149C45.3177 40.1236 48.1182 37.2981 48.1251 33.2069C48.1319 29.1538 45.3537 26.3024 41.3795 26.2833C37.3263 26.2643 34.5275 29.05 34.4881 33.1464C34.4486 37.222 37.2594 40.1063 41.2765 40.1149Z" fill="#4890C1"/>
</g>
<defs>
<clipPath id="clip0_139_226">
<rect width="77" height="83" fill="white"/>
</clipPath>
</defs>
</svg>
