<svg width="92" height="92" viewBox="0 0 92 92" fill="none" xmlns="http://www.w3.org/2000/svg">
<g clip-path="url(#clip0_139_215)">
<path d="M0 88.0479C0.363473 86.1743 0.59919 84.2666 1.10841 82.4344C4.10616 71.6395 13.5295 63.501 24.6622 62.1817C27.3828 61.8596 30.1646 62.0719 32.9015 61.8308C34.1017 61.7246 35.2587 61.1055 36.4319 60.7059C36.5236 60.6753 36.6388 60.5368 36.6388 60.445C36.655 59.3993 36.6748 58.35 36.6334 57.3062C36.6262 57.1406 36.3509 56.9462 36.1583 56.8311C32.475 54.6138 29.8048 51.5272 28.099 47.5821C27.9874 47.3229 27.5538 47.0836 27.2461 47.0512C25.8228 46.8982 24.3401 47.026 22.9726 46.6768C18.6325 45.5736 15.8812 42.7425 15.0427 38.3439C14.2402 34.1307 15.6797 30.614 19.0607 27.9665C19.6383 27.5148 19.7895 27.0811 19.7913 26.4061C19.8471 14.2164 27.7607 3.93797 39.4494 0.853187C54.4058 -3.09548 69.758 7.11274 71.8794 22.4431C72.072 23.8325 72.1224 25.2417 72.1781 26.6455C72.1979 27.1602 72.3095 27.495 72.7503 27.8352C76.3347 30.5942 77.83 34.2513 76.8565 38.6679C75.8758 43.1205 72.9519 45.8399 68.5038 46.7974C67.2928 47.0584 66.0045 46.99 64.7503 47.0134C64.2609 47.0224 64.009 47.1646 63.8147 47.6253C62.1628 51.5596 59.4782 54.6012 55.8489 56.8383C55.5843 57.002 55.4674 57.4196 55.309 57.7345C55.2605 57.8299 55.2964 57.9703 55.3018 58.0891C55.3432 58.9458 55.3864 59.8043 55.4278 60.6609C56.6694 61.1289 57.7634 61.928 59.2119 61.901C62.9798 61.8308 66.7458 61.7948 70.4561 62.7073C82.0675 65.5581 90.7818 75.6763 91.8327 87.5889C91.8902 88.244 91.8938 88.9045 91.973 89.5578C92.108 90.6683 91.6887 91.471 90.7188 92.0019C78.323 92.0019 65.9271 92.0019 53.5331 92.0019C52.3095 91.165 51.964 90.2796 52.5146 89.3311C52.9825 88.5248 53.7436 88.3988 54.6019 88.4006C65.4683 88.4114 76.3347 88.4078 87.1993 88.4078C87.5502 88.4078 87.901 88.4078 88.2573 88.4078C87.4386 74.8538 75.462 65.5437 65.022 65.6517C64.7953 66.2366 64.6784 66.8395 64.3635 67.311C61.6806 71.3119 58.969 75.2912 56.2519 79.2686C55.3342 80.6113 54.2042 80.7012 53.0418 79.5458C50.9186 77.4347 48.8007 75.32 46.6991 73.1872C46.4741 72.9587 46.377 72.6059 46.1898 72.2496C43.6095 74.8358 41.3315 77.1251 39.0463 79.4072C37.6806 80.7714 36.646 80.6688 35.5502 79.0617C33.04 75.3776 30.5209 71.7007 28.0396 67.9967C27.561 67.2822 27.2407 66.4598 26.8088 65.6085C14.1988 65.8946 3.9874 77.2619 3.79667 88.4078C4.15295 88.4078 4.50922 88.4078 4.8655 88.4078C15.6113 88.4078 26.359 88.4078 37.1048 88.4078C37.4035 88.4078 37.7058 88.3916 38.0027 88.4186C38.8358 88.496 39.4008 88.9477 39.6275 89.745C39.8471 90.5171 39.57 91.156 38.9492 91.6456C38.789 91.7733 38.6145 91.8813 38.4453 92.0001C25.6572 92.0001 12.8709 92.0001 0.082771 92.0001C0.0557805 92.0001 0.0287899 91.9947 0.00179937 91.9929C0 90.6773 0 89.3635 0 88.0479ZM59.1903 48.7033C57.076 48.7033 55.1147 48.7213 53.1552 48.6908C52.6154 48.6818 52.3311 48.8203 52.0648 49.3351C51.0751 51.2464 49.4629 52.2453 47.2964 52.2975C46.4597 52.3173 45.6194 52.3119 44.7827 52.2975C41.83 52.2435 39.5052 49.8966 39.4836 46.9576C39.462 43.9682 41.7778 41.5799 44.7683 41.5151C45.5169 41.4989 46.2654 41.5133 47.0139 41.5097C49.3639 41.4953 51.0679 42.5338 52.1709 44.6107C52.2915 44.8375 52.6316 45.084 52.8745 45.0876C55.3882 45.1218 57.9037 45.1218 60.4174 45.0858C60.6442 45.0822 61.004 44.8015 61.067 44.5819C61.3027 43.7504 61.569 42.8973 61.5942 42.0442C61.6932 38.7543 61.6932 35.4625 61.758 32.1726C61.7706 31.5445 61.3711 31.5319 60.9519 31.4725C57.4341 30.9721 54.1844 29.7447 51.2263 27.783C50.6739 27.4176 50.3176 27.3978 49.7418 27.7632C44.9411 30.812 39.6959 32.1402 34.0171 31.6578C32.7791 31.5535 31.5484 31.3555 30.2456 31.1917C30.2456 34.3467 30.1323 37.4603 30.269 40.563C30.5461 46.7902 33.4611 51.5002 39.0517 54.2646C44.5758 56.9966 50.0099 56.4459 55.1147 52.9922C56.7269 51.9015 58.0549 50.5031 59.1903 48.7033ZM61.6284 27.9431C61.65 27.5616 61.6896 27.297 61.6752 27.0361C61.6176 26.0228 61.6194 24.9969 61.4611 23.9981C60.1817 15.9244 52.7575 10.1003 44.7251 10.8364C36.4264 11.5977 30.188 18.4602 30.2888 26.6869C30.296 27.2232 30.4327 27.4608 30.9924 27.5886C34.0693 28.2923 37.1516 28.3715 40.2501 27.7722C43.471 27.1494 46.395 25.8482 49.04 23.9117C50.1808 23.0784 50.7944 23.0874 51.946 23.9207C52.1637 24.0791 52.3761 24.2464 52.5974 24.3994C55.2946 26.2676 58.2492 27.4716 61.6284 27.9431ZM26.6451 25.742C27.0067 15.5986 35.3918 7.61128 45.1192 7.22253C49.6392 7.04255 53.7652 8.25739 57.3963 10.966C62.314 14.6375 64.8691 19.6193 65.2991 25.742C66.4165 25.796 67.4728 25.8482 68.6334 25.904C68.1404 17.3678 64.4912 10.7537 57.121 6.61061C49.157 2.13461 41.067 2.46577 33.4377 7.4835C26.933 11.7615 23.7355 18.0535 23.363 25.9112C24.5182 25.8518 25.5511 25.7996 26.6451 25.742ZM26.5803 29.5017C24.0378 28.9744 21.1282 30.1838 19.6437 32.4731C18.0153 34.9874 17.9739 37.5952 19.5358 40.1545C20.9897 42.5374 23.8578 43.8008 26.5803 43.3239C26.5803 38.7219 26.5803 34.1073 26.5803 29.5017ZM65.3801 43.4049C68.5038 43.583 70.9959 42.6238 72.5596 39.9457C74.0567 37.3847 73.9289 34.7642 72.2267 32.3382C70.5839 30.0003 68.2177 29.1814 65.3801 29.4315C65.3801 34.1019 65.3801 38.7039 65.3801 43.4049ZM48.6424 69.7983C50.6073 71.769 52.502 73.666 54.4166 75.5863C56.3635 72.7211 58.3518 69.7947 60.3761 66.8179C58.6883 66.0656 57.094 65.4501 55.5969 64.6546C54.6289 64.1399 54.0639 64.2911 53.3387 65.0793C51.8039 66.7441 50.1466 68.2991 48.6424 69.7983ZM37.5637 75.6331C39.5232 73.6768 41.4017 71.7996 43.2155 69.9873C41.3333 68.1047 39.417 66.188 37.4359 64.2047C35.5933 65.0254 33.6158 65.9072 31.57 66.8197C33.6176 69.8289 35.5969 72.7409 37.5637 75.6331ZM40.3419 58.701C40.1583 60.4234 40.0522 61.9442 41.6338 63.1086C42.6811 63.8807 43.525 64.9336 44.4444 65.8766C44.9357 66.3806 45.3945 66.9187 45.8965 67.473C47.8561 65.5113 49.6554 63.7151 51.4404 61.9082C51.5736 61.7732 51.6887 61.5518 51.6941 61.3664C51.7211 60.5116 51.7067 59.6549 51.7067 58.683C47.8542 59.7881 44.108 59.7899 40.3419 58.701ZM46.0513 48.7033C46.4993 48.7033 46.9492 48.7321 47.3936 48.6979C48.3635 48.6224 49.049 47.8755 49.0562 46.9252C49.0634 45.9749 48.3905 45.1866 47.426 45.1272C46.5335 45.0732 45.6338 45.075 44.7413 45.1236C43.7625 45.1758 43.0895 45.9353 43.0823 46.8928C43.0751 47.8917 43.7715 48.6368 44.7971 48.7015C45.2146 48.7285 45.6338 48.7051 46.0513 48.7033Z" fill="#4890C1"/>
<path d="M45.4503 92C45.3082 91.9011 45.1642 91.8021 45.0239 91.6995C44.3293 91.1902 44.0216 90.5188 44.2915 89.6802C44.556 88.8577 45.1642 88.4023 46.0333 88.4221C46.861 88.4401 47.4386 88.8919 47.6869 89.6802C47.9532 90.5206 47.6491 91.1902 46.9546 91.6995C46.8142 91.8021 46.6703 91.8993 46.5281 92C46.1682 92 45.8084 92 45.4503 92Z" fill="#4890C1"/>
</g>
<defs>
<clipPath id="clip0_139_215">
<rect width="92" height="92" fill="white"/>
</clipPath>
</defs>
</svg>
