<svg width="30" height="30" viewBox="0 0 30 30" fill="none" xmlns="http://www.w3.org/2000/svg">
<path d="M0 11.3214C0.0506493 11.1675 0.0935065 11.011 0.152597 10.861C0.573377 9.79279 1.40779 9.3567 2.48766 9.21133C4.73636 8.90876 6.97857 8.55751 9.22468 8.23454C9.48182 8.19771 9.58182 8.02866 9.68052 7.82476C10.7149 5.69425 11.7532 3.56637 12.7877 1.43587C13.1273 0.736663 13.6591 0.26899 14.4052 0.0782381C15.5506 -0.215126 16.6578 0.324243 17.2052 1.44047C18.2045 3.47823 19.2117 5.51271 20.1766 7.56757C20.4007 8.04511 20.687 8.23454 21.1916 8.30295C23.4506 8.6075 25.7071 8.93967 27.9597 9.29289C28.9143 9.44286 29.5532 10.0276 29.876 10.9551C29.9182 11.0768 29.9591 11.1991 30 11.3214C30 11.5846 30 11.8477 30 12.1108C29.8253 12.7994 29.4325 13.3355 28.9273 13.8249C27.3247 15.3779 25.7468 16.9565 24.1545 18.52C23.9753 18.6957 23.9026 18.8673 23.9481 19.1285C24.3584 21.5116 24.7669 23.8953 25.1468 26.2837C25.2032 26.6389 25.1753 27.0361 25.0773 27.3828C24.6448 28.9147 22.9961 29.5824 21.5552 28.822C19.4857 27.7294 17.4208 26.6283 15.3597 25.52C15.1 25.3806 14.8883 25.3727 14.6357 25.5253C14.3019 25.7265 13.9494 25.8949 13.6052 26.0784C11.8649 27.0052 10.1286 27.9406 8.38247 28.8555C7.48701 29.3252 6.59481 29.2699 5.78506 28.6575C4.98831 28.055 4.68247 27.2216 4.85 26.2238C5.24026 23.9039 5.62987 21.5839 6.03312 19.2659C6.09156 18.9311 6.02662 18.6957 5.77662 18.4523C4.24805 16.9638 2.74416 15.4489 1.21429 13.9624C0.666883 13.4309 0.174026 12.8836 0 12.1114C0 11.8483 0 11.5852 0 11.3214ZM6.88701 26.6079C6.86558 26.9441 7.10325 27.121 7.40779 26.9927C7.48766 26.9592 7.56234 26.9145 7.63896 26.8737C9.65714 25.7995 11.6799 24.7346 13.6916 23.648C14.5779 23.1691 15.4318 23.1724 16.3169 23.65C18.3669 24.7563 20.426 25.8469 22.4877 26.9309C22.6195 27 22.8513 27.0296 22.9526 26.9566C23.0552 26.8829 23.1123 26.65 23.0883 26.5034C22.7117 24.2031 22.3351 21.9023 21.9214 19.6086C21.7318 18.5556 21.9896 17.7044 22.7545 16.9631C24.4117 15.3568 26.0468 13.7269 27.6812 12.097C27.7968 11.9818 27.926 11.7431 27.8799 11.6352C27.8214 11.4964 27.6013 11.3708 27.4344 11.3451C25.2974 11.0176 23.1623 10.6657 21.0162 10.4124C19.7065 10.2578 18.8253 9.68426 18.2838 8.44108C17.6338 6.95058 16.8734 5.51008 16.1597 4.04786C15.887 3.48876 15.6221 2.92505 15.3312 2.37582C15.2701 2.26137 15.1084 2.13376 14.9942 2.13442C14.8799 2.13507 14.7584 2.28044 14.6545 2.37845C14.6026 2.42712 14.5825 2.51132 14.5494 2.58038C13.5461 4.64182 12.5357 6.69998 11.5442 8.76734C11.1 9.69413 10.3961 10.1993 9.38896 10.3401C7.10844 10.6578 4.83117 10.9991 2.55519 11.3478C2.39026 11.3728 2.17013 11.5036 2.11558 11.6424C2.07208 11.7523 2.20909 11.9818 2.32403 12.1016C2.77532 12.5738 3.24935 13.0237 3.71429 13.4829C4.91494 14.6688 6.10974 15.8607 7.31688 17.0394C7.99351 17.6998 8.26234 18.4885 8.10714 19.4225C7.88831 20.7393 7.66104 22.0549 7.43701 23.3717C7.25455 24.4498 7.07078 25.5292 6.88701 26.6079Z" fill="white"/>
</svg>
