<svg width="134" height="134" viewBox="0 0 134 134" fill="none" xmlns="http://www.w3.org/2000/svg">
<path d="M63.4074 0.155273C66.0891 0.155273 68.7734 0.155273 71.4551 0.155273C71.7874 0.227962 72.1171 0.342188 72.4546 0.368148C82.4389 1.121 91.821 3.90913 100.422 9.02591C118.095 19.5372 128.934 34.9135 132.74 55.1626C133.194 57.5743 133.425 60.0275 133.76 62.4626C133.76 65.1443 133.76 67.8286 133.76 70.5103C133.685 70.9257 133.596 71.341 133.539 71.759C133.178 74.368 132.95 77.0004 132.451 79.5834C127.288 106.33 105.629 127.48 78.7448 132.054C76.3279 132.465 73.8876 132.737 71.4551 133.075C68.6852 133.075 65.9178 133.075 63.1478 133.075C62.8623 133.002 62.5793 132.883 62.2911 132.862C56.6577 132.462 51.1438 131.424 45.8505 129.464C21.7126 120.523 7.0658 103.397 1.89711 78.1893C1.39607 75.7465 1.18838 73.2439 0.845703 70.7699C0.845703 67.9999 0.845703 65.2326 0.845703 62.4626C1.18059 60.0301 1.44799 57.5872 1.86336 55.1678C6.4791 28.2469 27.577 6.63237 54.3213 1.46627C57.3197 0.884758 60.3753 0.586214 63.4074 0.155273ZM34.0723 66.5462C34.0723 70.9594 34.0619 75.3701 34.0749 79.7833C34.1034 91.1046 42.8183 99.8143 54.1604 99.8376C62.9427 99.8558 71.7251 99.8584 80.5049 99.8376C91.7742 99.8091 100.489 91.1072 100.523 79.8508C100.549 71.0269 100.546 62.2004 100.523 53.3765C100.492 42.1305 91.7639 33.4156 80.5023 33.3897C71.6784 33.3689 62.8519 33.3663 54.028 33.3897C42.8495 33.4208 34.1138 42.1513 34.0723 53.309C34.0593 57.7222 34.0723 62.1329 34.0723 66.5462Z" fill="#4890C1"/>
<path d="M40.7752 66.6136C40.7752 62.3301 40.7622 58.0493 40.7778 53.7658C40.8037 45.6325 46.3515 40.1081 54.49 40.1029C63.0543 40.0977 71.6186 40.0951 80.1855 40.1029C88.2436 40.1107 93.8043 45.6429 93.8251 53.7061C93.8484 62.3146 93.8484 70.923 93.8251 79.5314C93.8043 87.5869 88.254 93.1165 80.1829 93.1346C71.5745 93.1554 62.966 93.158 54.3576 93.1346C46.3774 93.1113 40.8219 87.5558 40.7804 79.5911C40.757 75.2662 40.7752 70.9386 40.7752 66.6136ZM50.1287 66.585C50.1079 76.0891 57.7091 83.7292 67.2313 83.7785C76.7068 83.8279 84.4456 76.1618 84.4612 66.7045C84.4767 57.1666 76.8989 49.4954 67.4156 49.4486C57.8337 49.4019 50.1494 57.0187 50.1287 66.585ZM84.5832 53.649C86.8988 53.6542 88.7991 51.7903 88.8303 49.4876C88.8615 47.1382 86.9248 45.1782 84.578 45.1782C82.2883 45.1782 80.362 47.0707 80.3231 49.3604C80.279 51.7046 82.2078 53.6464 84.5832 53.649Z" fill="#4890C1"/>
<path d="M67.2599 77.0884C61.4473 77.0598 56.8186 72.4103 56.8264 66.603C56.8342 60.7438 61.559 56.0709 67.4104 56.1384C73.2333 56.2059 77.8283 60.8814 77.779 66.6861C77.7296 72.5064 73.0672 77.1143 67.2599 77.0884Z" fill="#4890C1"/>
</svg>
