<svg width="39" height="43" viewBox="0 0 39 43" fill="none" xmlns="http://www.w3.org/2000/svg">
<path d="M38.9999 30.3687C38.9999 33.0562 38.9999 35.7437 38.9999 38.4312C38.5593 39.7347 37.6467 40.2408 36.3456 40.1396C35.8484 40.1011 35.3461 40.1333 34.8376 40.1333C34.9124 41.5317 34.4726 42.5378 33.1767 43C24.0794 43 14.983 43 5.88574 43C5.8388 42.9704 5.79447 42.9328 5.74406 42.914C4.74108 42.5413 4.24045 41.8139 4.23524 40.712C4.23263 40.205 4.23437 39.6971 4.23437 39.19C4.23437 38.7941 4.23437 38.3981 4.23437 37.9842C3.5182 37.9842 2.86808 37.9878 2.2171 37.9833C1.20629 37.9771 0.517063 37.4655 0.189397 36.4837C-0.45898 34.5397 0.606584 32.9667 2.57084 32.9667C3.11579 32.9667 3.66074 32.9667 4.20221 32.9667C4.20221 31.5029 4.20221 30.0955 4.20221 28.6667C3.54862 28.6667 2.92719 28.6676 2.30575 28.6667C1.11416 28.664 0.371917 28.0709 0.112044 26.8669C-0.201715 25.4121 0.412766 23.4672 2.52477 23.6437C3.08015 23.6903 3.64336 23.6509 4.20221 23.6509C4.20221 22.1889 4.20221 20.7806 4.20221 19.3509C3.54949 19.3509 2.92892 19.3518 2.30749 19.3509C1.11503 19.3482 0.373655 18.7561 0.112913 17.553C-0.202584 16.0981 0.413635 14.1515 2.5239 14.328C3.08015 14.3745 3.64249 14.3351 4.20395 14.3351C4.20395 12.874 4.20395 11.4667 4.20395 10.0351C3.49473 10.0351 2.81507 10.0396 2.13627 10.0342C1.26365 10.028 0.653518 9.59527 0.291956 8.78812C-0.00442053 8.1261 -0.0374478 7.43273 0.134642 6.73308C0.414504 5.59448 1.13154 5.02383 2.26056 5.01935C2.9072 5.01667 3.55383 5.01935 4.23437 5.01935C4.23437 4.67267 4.23437 4.37704 4.23437 4.08231C4.23437 3.47046 4.23524 2.8586 4.23437 2.24675C4.23263 1.06335 4.8784 0.390583 5.88574 0C14.983 0 24.0794 0 33.1767 0C34.4952 0.461354 34.9124 1.49962 34.8454 2.86667C35.0193 2.86667 35.1609 2.86667 35.3026 2.86667C35.8389 2.86667 36.3751 2.85592 36.9105 2.86935C38.0161 2.89623 38.6375 3.56542 38.9999 4.56875C38.9999 7.25625 38.9999 9.94375 38.9999 12.6312C38.5601 13.9275 37.6545 14.4399 36.3569 14.3396C35.8597 14.3011 35.3582 14.3333 34.8594 14.3333C34.8594 14.8413 34.8594 15.2928 34.8594 15.7667C35.0332 15.7667 35.1757 15.7667 35.3183 15.7667C35.8519 15.7667 36.3864 15.755 36.9201 15.7694C38.0213 15.7989 38.6375 16.4708 38.9999 17.4688C38.9999 20.1562 38.9999 22.8438 38.9999 25.5312C38.561 26.8284 37.6545 27.339 36.356 27.2396C35.8589 27.2011 35.3574 27.2333 34.8585 27.2333C34.8585 27.7413 34.8585 28.1928 34.8585 28.6667C35.0323 28.6667 35.1749 28.6667 35.3174 28.6667C35.851 28.6667 36.3856 28.655 36.9192 28.6694C38.0213 28.6989 38.6384 29.3708 38.9999 30.3687ZM5.65628 10.0333C5.65628 11.4962 5.65628 12.9036 5.65628 14.3333C6.83049 14.3333 7.97341 14.3297 9.11632 14.3342C9.98981 14.3378 10.5999 14.7741 10.9589 15.5821C11.2535 16.245 11.2857 16.9384 11.1127 17.6381C10.8337 18.7704 10.1115 19.3446 8.98248 19.3482C8.12811 19.3509 7.27375 19.3491 6.41939 19.3491C6.16386 19.3491 5.90833 19.3491 5.65802 19.3491C5.65802 20.8138 5.65802 22.222 5.65802 23.6491C6.83397 23.6491 7.97688 23.6446 9.1198 23.6509C9.9733 23.6554 10.5773 24.0746 10.9406 24.8621C11.2518 25.5366 11.2874 26.2425 11.1119 26.9583C10.8329 28.0889 10.1106 28.6622 8.979 28.6649C8.02295 28.6676 7.06689 28.6658 6.11171 28.6658C5.95874 28.6658 5.8049 28.6658 5.65976 28.6658C5.65976 30.1331 5.65976 31.5414 5.65976 32.9416C5.70756 32.9514 5.72147 32.9568 5.73537 32.9568C6.86525 32.9604 7.99427 32.9595 9.12415 32.9676C9.97764 32.9738 10.5782 33.3949 10.9441 34.1814C11.2379 34.8121 11.2822 35.4786 11.144 36.1487C10.892 37.3724 10.1436 37.9797 8.93207 37.9824C8.28021 37.9842 7.62836 37.9824 6.9765 37.9824C6.53411 37.9824 6.09085 37.9824 5.62499 37.9824C5.62499 38.8478 5.62499 39.6523 5.62499 40.4567C5.62499 41.3803 5.80143 41.5658 6.67926 41.5658C15.2533 41.5658 23.8274 41.5658 32.4006 41.5658C33.2506 41.5658 33.4374 41.3714 33.4374 40.4827C33.4374 27.8237 33.4374 15.1656 33.4374 2.50654C33.4374 1.62504 33.2506 1.43244 32.3927 1.43244C23.8187 1.43244 15.2446 1.43244 6.67144 1.43244C6.52629 1.43244 6.34551 1.38138 6.24469 1.45125C6.02132 1.60533 5.67975 1.81137 5.66671 2.01383C5.60674 3.00462 5.6389 3.9999 5.6389 5.01667C6.82788 5.01667 7.9708 5.01308 9.11285 5.01756C9.98633 5.02115 10.5973 5.45473 10.9572 6.26277C11.2527 6.92479 11.2857 7.61817 11.1136 8.31871C10.8346 9.45373 10.115 10.0289 8.98508 10.0324C7.88649 10.036 6.78703 10.0333 5.65628 10.0333ZM34.8567 4.30269C34.8567 7.19623 34.8567 10.0351 34.8567 12.8982C35.5634 12.8982 36.2413 12.9116 36.9183 12.8937C37.3277 12.883 37.6006 12.6044 37.6024 12.1798C37.6119 9.79504 37.6119 7.40944 37.6024 5.02473C37.6006 4.59742 37.3303 4.31971 36.9201 4.30896C36.2439 4.28925 35.5651 4.30269 34.8567 4.30269ZM34.8489 25.7937C35.5738 25.7937 36.2795 25.8197 36.9818 25.7839C37.379 25.7633 37.6041 25.473 37.605 25.0582C37.611 22.6879 37.6093 20.3175 37.6067 17.9471C37.6067 17.5736 37.4207 17.26 37.073 17.2358C36.3325 17.1848 35.586 17.2206 34.8489 17.2206C34.8489 20.0998 34.8489 22.9271 34.8489 25.7937ZM34.8585 30.1018C34.8585 32.998 34.8585 35.8369 34.8585 38.6982C35.5521 38.6982 36.2161 38.709 36.8792 38.6946C37.3355 38.6848 37.5876 38.4071 37.6067 37.9296C37.6154 37.7209 37.6093 37.5121 37.6093 37.3034C37.6093 35.2018 37.611 33.0992 37.6084 30.9976C37.6076 30.427 37.3842 30.1206 36.9175 30.1072C36.2404 30.0866 35.5625 30.1018 34.8585 30.1018ZM5.62499 8.6C6.72532 8.6 7.82652 8.60269 8.92685 8.5991C9.5422 8.59731 9.83945 8.23898 9.8351 7.51515C9.83076 6.80923 9.54046 6.45269 8.95119 6.45179C6.73488 6.4491 4.51945 6.44821 2.30314 6.45179C1.71908 6.45269 1.40967 6.82625 1.40272 7.51246C1.39663 8.21479 1.71474 8.59731 2.3214 8.5991C3.42346 8.60269 4.52379 8.6 5.62499 8.6ZM5.63368 17.9167C6.73401 17.9167 7.83521 17.9194 8.93554 17.9158C9.54481 17.914 9.84379 17.5458 9.8351 16.8229C9.82728 16.1178 9.53699 15.7685 8.9425 15.7676C6.74097 15.7649 4.53944 15.7649 2.33791 15.7676C1.71995 15.7685 1.40445 16.134 1.40272 16.8372C1.40098 17.5404 1.71734 17.9131 2.33009 17.9158C3.43215 17.9194 4.53249 17.9167 5.63368 17.9167ZM5.66845 27.2333C6.75487 27.2333 7.8413 27.236 8.92685 27.2324C9.5422 27.2306 9.83945 26.8705 9.8351 26.1476C9.83076 25.4417 9.53959 25.0851 8.95119 25.0842C6.73488 25.0815 4.51945 25.0806 2.30314 25.0842C1.71908 25.0851 1.40967 25.4587 1.40358 26.1449C1.3975 26.8472 1.71561 27.2297 2.32313 27.2315C3.43824 27.236 4.55334 27.2333 5.66845 27.2333ZM5.65107 34.4C4.53596 34.4 3.42086 34.3964 2.30575 34.4018C1.71995 34.4045 1.41054 34.7745 1.40358 35.4598C1.39576 36.1621 1.71474 36.5482 2.32053 36.5491C4.53683 36.5518 6.75227 36.5527 8.96857 36.5491C9.54568 36.5482 9.83858 36.1737 9.8351 35.4678C9.83163 34.7619 9.54046 34.4045 8.9538 34.4018C7.8526 34.3973 6.75227 34.4 5.65107 34.4Z" fill="#828282"/>
<path d="M17.0672 20.4331C15.2325 17.6686 16.1686 14.5941 17.7617 13.2709C19.5399 11.7937 22.442 11.826 24.162 13.3435C25.7838 14.775 26.5217 17.8236 24.7609 20.4403C24.9173 20.4699 25.0512 20.4958 25.1841 20.52C27.3857 20.9205 29.1439 22.9298 29.2413 25.2455C29.2752 26.0545 29.2352 26.8912 29.0701 27.6795C28.8702 28.6354 28.2148 29.2132 27.2709 29.4748C24.4906 30.2461 21.6676 30.5964 18.8047 30.2541C17.2889 30.0732 15.7879 29.7175 14.2956 29.3718C13.4829 29.1836 12.9684 28.5413 12.7763 27.7351C12.3061 25.7633 12.466 23.8794 13.781 22.2481C14.5598 21.2824 15.5723 20.7135 16.7761 20.5075C16.8717 20.4923 16.9638 20.46 17.0672 20.4331ZM20.9227 28.9238C22.9583 28.905 24.959 28.6282 26.9276 28.0844C27.4396 27.9429 27.7681 27.6267 27.802 27.1053C27.8507 26.351 27.9028 25.5761 27.7889 24.8379C27.7064 24.3076 27.4413 23.7468 27.1049 23.332C26.1393 22.1433 24.7826 21.7823 23.345 21.681C23.2251 21.673 23.0956 21.7437 22.9757 21.7921C21.6068 22.3457 20.2413 22.3404 18.8681 21.7966C18.6612 21.7151 18.4075 21.655 18.1989 21.6998C17.5227 21.8459 16.8317 21.9784 16.1946 22.2409C15.1908 22.6548 14.346 23.3571 14.1313 24.4913C13.9679 25.3513 14.0235 26.2641 14.0574 27.1501C14.0765 27.6535 14.4294 27.9474 14.9205 28.0835C16.8856 28.6291 18.8864 28.905 20.9227 28.9238ZM20.9062 20.7825C22.9531 20.787 24.3715 19.3232 24.375 17.2036C24.3784 15.1038 22.9713 13.6266 20.9584 13.6167C18.9055 13.6069 17.4879 15.0501 17.4679 17.1723C17.4479 19.2838 18.8716 20.778 20.9062 20.7825Z" fill="#828282"/>
</svg>
