<svg width="46" height="32" viewBox="0 0 46 32" fill="none" xmlns="http://www.w3.org/2000/svg">
<path d="M23 0C12.5455 0 3.61727 6.63467 0 16C3.61727 25.3653 12.5455 32 23 32C33.4545 32 42.3827 25.3653 46 16C42.3827 6.63467 33.4545 0 23 0ZM23 26.6667C17.2291 26.6667 12.5455 21.888 12.5455 16C12.5455 10.112 17.2291 5.33333 23 5.33333C28.7709 5.33333 33.4545 10.112 33.4545 16C33.4545 21.888 28.7709 26.6667 23 26.6667ZM23 9.6C19.5291 9.6 16.7273 12.4587 16.7273 16C16.7273 19.5413 19.5291 22.4 23 22.4C26.4709 22.4 29.2727 19.5413 29.2727 16C29.2727 12.4587 26.4709 9.6 23 9.6Z" fill="#28336C"/>
</svg>
