<svg width="30" height="30" viewBox="0 0 30 30" fill="none" xmlns="http://www.w3.org/2000/svg">
<g clip-path="url(#clip0_155_44)">
<path d="M0 11.3215C0.0506493 11.1676 0.0935065 11.011 0.152597 10.861C0.573377 9.79283 1.40779 9.35673 2.48766 9.21136C4.73636 8.90879 6.97857 8.55754 9.22468 8.23458C9.48182 8.19775 9.58182 8.0287 9.68052 7.82479C10.7149 5.69429 11.7532 3.56641 12.7877 1.4359C13.1273 0.736699 13.6591 0.269027 14.4052 0.0782743C15.5506 -0.21509 16.6578 0.324279 17.2052 1.44051C18.2045 3.47827 19.2117 5.51274 20.1766 7.56761C20.4007 8.04514 20.687 8.23458 21.1916 8.30299C23.4506 8.60754 25.7071 8.93971 27.9597 9.29293C28.9143 9.4429 29.5532 10.0277 29.876 10.9551C29.9182 11.0768 29.9591 11.1991 30 11.3215C30 11.5846 30 11.8477 30 12.1108C29.8253 12.7995 29.4325 13.3356 28.9273 13.8249C27.3247 15.3779 25.7468 16.9566 24.1545 18.5201C23.9753 18.6957 23.9026 18.8674 23.9481 19.1285C24.3584 21.5116 24.7669 23.8953 25.1468 26.2837C25.2032 26.6389 25.1753 27.0362 25.0773 27.3828C24.6448 28.9148 22.9961 29.5824 21.5552 28.822C19.4857 27.7295 17.4208 26.6284 15.3597 25.52C15.1 25.3806 14.8883 25.3727 14.6357 25.5253C14.3019 25.7266 13.9494 25.895 13.6052 26.0785C11.8649 27.0053 10.1286 27.9406 8.38247 28.8556C7.48701 29.3252 6.59481 29.27 5.78506 28.6576C4.98831 28.0551 4.68247 27.2217 4.85 26.2238C5.24026 23.9039 5.62987 21.584 6.03312 19.266C6.09156 18.9312 6.02662 18.6957 5.77662 18.4523C4.24805 16.9638 2.74416 15.449 1.21429 13.9624C0.666883 13.4309 0.174026 12.8837 0 12.1115C0 11.8484 0 11.5852 0 11.3215ZM6.88701 26.608C6.86558 26.9441 7.10325 27.121 7.40779 26.9928C7.48766 26.9592 7.56234 26.9145 7.63896 26.8737C9.65714 25.7996 11.6799 24.7347 13.6916 23.648C14.5779 23.1692 15.4318 23.1725 16.3169 23.65C18.3669 24.7564 20.426 25.8469 22.4877 26.9309C22.6195 27 22.8513 27.0296 22.9526 26.9566C23.0552 26.8829 23.1123 26.6501 23.0883 26.5034C22.7117 24.2032 22.3351 21.9023 21.9214 19.6087C21.7318 18.5556 21.9896 17.7044 22.7545 16.9631C24.4117 15.3569 26.0468 13.7269 27.6812 12.097C27.7968 11.9819 27.926 11.7431 27.8799 11.6352C27.8214 11.4964 27.6013 11.3708 27.4344 11.3452C25.2974 11.0176 23.1623 10.6657 21.0162 10.4124C19.7065 10.2579 18.8253 9.6843 18.2838 8.44112C17.6338 6.95062 16.8734 5.51011 16.1597 4.0479C15.887 3.48879 15.6221 2.92509 15.3312 2.37585C15.2701 2.2614 15.1084 2.1338 14.9942 2.13445C14.8799 2.13511 14.7584 2.28048 14.6545 2.37848C14.6026 2.42716 14.5825 2.51135 14.5494 2.58042C13.5461 4.64186 12.5357 6.70001 11.5442 8.76737C11.1 9.69417 10.3961 10.1993 9.38896 10.3401C7.10844 10.6578 4.83117 10.9992 2.55519 11.3478C2.39026 11.3728 2.17013 11.5037 2.11558 11.6425C2.07208 11.7523 2.20909 11.9819 2.32403 12.1016C2.77532 12.5739 3.24935 13.0238 3.71429 13.4829C4.91494 14.6689 6.10974 15.8607 7.31688 17.0394C7.99351 17.6998 8.26234 18.4885 8.10714 19.4225C7.88831 20.7394 7.66104 22.0549 7.43701 23.3718C7.25455 24.4498 7.07078 25.5292 6.88701 26.608Z" fill="white"/>
</g>
<defs>
<clipPath id="clip0_155_44">
<rect width="30" height="29.1667" fill="white"/>
</clipPath>
</defs>
</svg>
