<svg width="30" height="30" viewBox="0 0 30 30" fill="none" xmlns="http://www.w3.org/2000/svg">
<path d="M6.50393 30.0001C6.50334 26.3672 6.501 22.735 6.50334 19.1022C6.50393 18.1905 7.00608 17.6391 7.98928 17.4868C7.98928 15.8415 7.98928 14.1891 7.98928 12.5163C8.33908 12.5163 8.64612 12.5163 8.99065 12.5163C8.99065 14.1633 8.99065 15.8081 8.99065 17.4868C9.12717 17.4938 9.22912 17.5032 9.33166 17.5032C10.4936 17.5043 11.6555 17.5026 12.818 17.5043C13.3477 17.5049 13.5182 17.6731 13.4807 18.187C13.3987 19.309 12.8414 20.127 11.8617 20.6655C11.7791 20.7112 11.6936 20.7522 11.6028 20.7979C13.1561 22.3881 13.2135 22.4977 13.5147 24.4711C14.802 24.4711 16.0928 24.4711 17.4006 24.4711C17.0614 23.4803 17.3414 22.711 18.228 22.1702C17.8981 21.0575 17.9356 20.7657 18.4735 20.052C18.3235 19.7168 18.1213 19.4151 18.0528 19.0858C17.8219 17.9749 18.6305 17.028 19.8006 16.9975C20.1885 16.9876 20.577 16.9958 20.9971 16.9958C20.9971 14.6561 20.9971 12.3469 20.9971 10.0208C21.3375 10.0208 21.6451 10.0208 21.9885 10.0208C21.9885 12.3358 21.9885 14.6444 21.9885 16.9958C22.3301 16.9958 22.6383 16.9893 22.9459 16.9969C24.0838 17.0251 24.8696 17.8881 24.7125 18.9961C24.6627 19.346 24.4524 19.6735 24.2924 20.0672C24.6282 20.4352 24.8145 20.9456 24.7219 21.5286C24.6282 22.1163 24.2901 22.5411 23.7487 22.8276C24.0446 23.4083 24.0967 23.9901 23.7856 24.569C23.4785 25.1391 22.9752 25.4186 22.3242 25.5018C22.5364 25.9952 22.568 26.4821 22.3436 26.9573C22.0084 27.6663 21.4231 27.9932 20.6537 28.0014C19.9524 28.009 19.2504 28.0032 18.5168 28.0032C18.5168 28.6811 18.5168 29.3403 18.5168 29.9995C18.1846 29.9995 17.853 29.9995 17.5207 29.9995C17.5207 29.3397 17.5207 28.6805 17.5207 28.0342C16.0125 27.6745 15.6422 27.0909 15.8854 25.4942C15.777 25.4942 15.6727 25.4942 15.5684 25.4942C14.7387 25.4942 13.909 25.4977 13.0793 25.4924C12.7055 25.4901 12.5239 25.3143 12.5004 24.9422C12.4881 24.7477 12.4975 24.552 12.4899 24.3569C12.4295 22.7667 11.3115 21.4278 9.75178 21.0897C9.48635 21.0323 9.21096 21.02 8.94026 20.9825C8.66604 20.9444 8.51721 20.7668 8.51194 20.5073C8.50725 20.2465 8.65315 20.0655 8.92502 20.0198C9.0299 20.0022 9.13772 19.9975 9.24494 19.9958C9.73303 19.9893 10.2217 20.004 10.7086 19.977C11.5113 19.9331 12.2965 19.2411 12.3932 18.5034C12.2942 18.5034 12.1975 18.5034 12.1008 18.5034C10.8123 18.5034 9.52385 18.5028 8.23537 18.5034C7.64065 18.5034 7.50236 18.6452 7.50236 19.251C7.50236 22.8335 7.50236 26.4159 7.50236 29.9989C7.16779 30.0001 6.83615 30.0001 6.50393 30.0001ZM19.1291 25.4954C18.6217 25.4954 18.1149 25.4919 17.6074 25.4965C17.0983 25.5012 16.7502 25.817 16.7555 26.2612C16.7608 26.6907 17.1065 27.0018 17.5992 27.0042C18.6135 27.0083 19.6278 27.0083 20.642 27.0042C21.1459 27.0024 21.5057 26.6749 21.4987 26.2401C21.4922 25.8159 21.1383 25.5018 20.6502 25.4971C20.144 25.4913 19.6365 25.4954 19.1291 25.4954ZM21.3592 19.5047C21.866 19.5047 22.3729 19.5077 22.8803 19.5042C23.3965 19.5006 23.7405 19.1965 23.741 18.7512C23.7416 18.3053 23.3977 17.9977 22.8826 17.996C21.8783 17.9924 20.874 17.9924 19.8703 17.996C19.3623 17.9977 19.0014 18.3147 19.0008 18.7489C18.9996 19.1825 19.3612 19.5006 19.868 19.5042C20.3649 19.5077 20.8617 19.5047 21.3592 19.5047ZM20.6344 24.4963C21.1512 24.4963 21.668 24.4999 22.1842 24.4952C22.6535 24.4911 22.9922 24.1782 22.9951 23.7551C22.9981 23.3303 22.6705 23.0092 22.1953 23.0051C21.1424 22.9969 20.0895 22.9958 19.0365 23.0057C18.5678 23.0104 18.2426 23.3467 18.2561 23.7727C18.269 24.184 18.6018 24.4899 19.0547 24.494C19.5815 24.4999 20.1076 24.4963 20.6344 24.4963ZM21.3744 20.5038C20.8576 20.5038 20.3408 20.5008 19.8246 20.5043C19.3565 20.5079 19.0102 20.8178 18.9996 21.235C18.9897 21.651 19.3283 21.9897 19.7953 21.9938C20.8483 22.0032 21.9012 22.0026 22.9541 21.9938C23.427 21.9897 23.7487 21.6651 23.7422 21.235C23.7358 20.8102 23.4012 20.5073 22.9254 20.5043C22.408 20.5014 21.8912 20.5038 21.3744 20.5038Z" fill="#CA393F"/>
<path d="M30 7.79297C29.9514 7.90723 29.9086 8.025 29.8524 8.13633C29.5477 8.7416 29.0373 9.00293 28.3781 9.00293C26.4656 9.0041 24.5537 9.00879 22.6412 9.00176C21.6152 8.99766 21.0024 8.38477 20.9983 7.35879C20.9912 5.45625 21 3.55371 20.9942 1.65117C20.9918 0.795117 21.4219 0.270703 22.207 0C24.3943 0 26.5822 0 28.7695 0C29.4041 0.185742 29.8149 0.595313 30 1.23047C30 3.41777 30 5.60566 30 7.79297ZM28.9969 4.9957C28.7139 4.9957 28.4701 5.00977 28.2287 4.9916C28.0149 4.9752 27.9305 5.05371 27.8678 5.25996C27.5807 6.20742 26.6936 6.91348 25.7473 6.97559C24.4863 7.05879 23.5172 6.40488 23.107 5.20313C23.0807 5.1252 23.0033 5.01094 22.943 5.00684C22.6371 4.98691 22.3289 4.99746 21.999 4.99746C21.999 5.77676 21.9984 6.50742 21.999 7.23809C21.9996 7.8627 22.1356 8.00039 22.7537 8.00039C24.5889 8.00098 26.4235 8.00098 28.2586 8.00039C28.3465 8.00039 28.4344 7.99863 28.5217 7.98984C28.8065 7.96172 28.9858 7.79297 28.991 7.51875C29.0074 6.69199 28.9969 5.86348 28.9969 4.9957ZM29.001 3.99492C29.001 3.14648 29.0086 2.34668 28.9975 1.54746C28.9928 1.17949 28.783 1.0002 28.3828 0.999609C26.4592 0.99668 24.5356 0.99668 22.6119 0.999609C22.1912 1.0002 22.0084 1.18359 22.0008 1.61016C21.992 2.06895 21.9984 2.52773 21.9984 2.98711C21.9984 3.31582 21.9984 3.64453 21.9984 3.99609C22.2727 3.99609 22.507 3.98145 22.7391 4.0002C22.9693 4.01895 23.0754 3.95039 23.1469 3.7125C23.4744 2.6168 24.6287 1.87734 25.752 2.02441C26.8365 2.16621 27.5438 2.7668 27.8959 3.80039C27.9229 3.87891 28.0231 3.98145 28.0957 3.98672C28.3852 4.00781 28.677 3.99492 29.001 3.99492ZM25.4901 5.99121C26.311 5.99648 26.9854 5.33906 27.0012 4.51758C27.017 3.70313 26.3151 2.99531 25.4959 2.99883C24.6797 3.00293 24.0106 3.67676 24.0088 4.49707C24.007 5.325 24.6615 5.98535 25.4901 5.99121Z" fill="#CA393F"/>
<path d="M0 3.69143C0.0457031 3.58713 0.0873047 3.48049 0.138867 3.37912C0.449414 2.76682 0.955664 2.49905 1.63477 2.50198C3.26484 2.50901 4.89434 2.50373 6.52441 2.50491C6.88535 2.50491 7.24746 2.49729 7.60723 2.51721C8.32207 2.55647 8.89043 3.1008 8.97539 3.8092C8.98945 3.92522 9.00176 4.04241 9.00234 4.15901C9.0041 6.05217 9.00586 7.94592 9.00234 9.83908C9.00059 10.6822 8.59629 11.2559 7.86797 11.4422C7.68223 11.4897 7.48242 11.4938 7.28848 11.4944C5.52188 11.4979 3.75469 11.4656 1.98926 11.509C1.03418 11.5319 0.332813 11.2623 0 10.3125C0 8.1053 0 5.89866 0 3.69143ZM4.50234 10.4947C5.43984 10.4947 6.37676 10.4953 7.31426 10.4942C7.84043 10.4936 7.9998 10.3395 8.00039 9.81623C8.00273 7.94182 8.00273 6.06741 8.00039 4.19299C7.9998 3.66272 7.84336 3.5051 7.32363 3.50452C5.43926 3.50334 3.55488 3.50334 1.67109 3.50452C1.16836 3.5051 0.999023 3.67209 0.999023 4.16838C0.997852 6.05276 0.997852 7.93713 0.999023 9.82092C0.999609 10.3242 1.16602 10.493 1.66172 10.4936C2.60801 10.4959 3.55547 10.4947 4.50234 10.4947Z" fill="#CA393F"/>
<path d="M15.0135 5.50371C15.9598 5.50371 16.9067 5.50195 17.853 5.50429C18.8789 5.50664 19.5012 6.11836 19.5035 7.1373C19.5076 9.0498 19.5082 10.9623 19.503 12.8754C19.5 13.8668 18.8918 14.4896 17.8987 14.4955C15.9668 14.5066 14.0344 14.5066 12.102 14.4955C11.1082 14.4902 10.4983 13.8674 10.4959 12.8771C10.4906 10.9547 10.4901 9.03222 10.4965 7.10976C10.5 6.1248 11.1276 5.5084 12.1149 5.50429C13.0817 5.50078 14.0473 5.50371 15.0135 5.50371ZM15.0293 6.50214C14.0824 6.50214 13.135 6.50156 12.1881 6.50214C11.6678 6.50273 11.4973 6.66738 11.4967 7.18066C11.4949 9.06503 11.4944 10.9494 11.4967 12.8338C11.4973 13.3178 11.669 13.4947 12.1442 13.4953C14.0479 13.4982 15.9516 13.4982 17.8559 13.4953C18.3311 13.4947 18.5028 13.3178 18.5034 12.8338C18.5057 10.9394 18.5057 9.0457 18.5028 7.15136C18.5022 6.67793 18.3194 6.50332 17.8412 6.50273C16.9037 6.50097 15.9668 6.50214 15.0293 6.50214Z" fill="#CA393F"/>
<path d="M19.9811 2.52246C19.9811 2.85059 19.9811 3.1582 19.9811 3.48516C16.6629 3.48516 13.3588 3.48516 10.0295 3.48516C10.0295 3.16934 10.0295 2.85527 10.0295 2.52246C13.3383 2.52246 16.6424 2.52246 19.9811 2.52246Z" fill="#CA393F"/>
<path d="M14.5166 21.4839C14.5166 21.1576 14.5166 20.8423 14.5166 20.5154C14.843 20.5154 15.1512 20.5154 15.4805 20.5154C15.4805 20.8371 15.4805 21.1511 15.4805 21.4839C15.1594 21.4839 14.8459 21.4839 14.5166 21.4839Z" fill="#CA393F"/>
<path d="M2.54889 7.80698C2.10357 7.15307 1.97877 6.49214 1.99459 5.79429C1.99986 5.56284 2.0526 5.33022 2.28346 5.2728C2.45748 5.22944 2.69186 5.2605 2.85006 5.34839C3.23443 5.56167 3.60768 5.78198 3.98912 5.8312C4.14733 5.52065 4.24342 5.2019 4.44147 4.9687C5.07721 4.21987 6.27721 4.40093 6.66686 5.3021C6.77467 5.55171 6.92467 5.72104 7.13033 5.87456C7.5985 6.22495 7.61959 6.48979 7.20768 6.89702C6.97037 7.13139 6.78932 7.37397 6.68736 7.71265C6.4442 8.51831 5.77037 8.97768 4.86275 9.00054C4.11217 9.01929 3.36041 9.00581 2.60865 9.00405C2.35963 9.00346 2.14459 8.93725 2.04088 8.67886C1.94186 8.43159 2.0444 8.24116 2.21725 8.0771C2.31627 7.98159 2.42936 7.90307 2.54889 7.80698ZM3.80865 7.98393C4.15611 7.98393 4.5944 8.00386 5.03033 7.97807C5.39479 7.95639 5.66666 7.73608 5.74459 7.38452C5.82369 7.0271 5.91393 6.69487 6.1565 6.52261C6.01881 6.2437 5.92389 5.99585 5.78033 5.78081C5.70065 5.66186 5.53424 5.52124 5.41647 5.53003C5.30162 5.53823 5.15397 5.70522 5.10357 5.8353C5.04732 5.98061 5.0901 6.16225 5.08014 6.32749C5.05611 6.72358 4.85338 6.90932 4.45846 6.89761C4.34186 6.89409 4.2235 6.88647 4.10982 6.86362C3.77525 6.79741 3.44186 6.72241 3.04283 6.63745C3.30475 7.09682 3.53795 7.50698 3.80865 7.98393Z" fill="#CA393F"/>
<path d="M16.4865 7.50002C16.4865 7.85334 16.4865 8.16154 16.4865 8.49611C16.1613 8.49611 15.8525 8.49611 15.5232 8.49611C15.5232 8.83713 15.5232 9.15119 15.5232 9.4922C15.8449 9.4922 16.1537 9.4922 16.483 9.4922C16.483 9.83439 16.483 10.1502 16.483 10.4953C16.1601 10.4953 15.8513 10.4953 15.5045 10.4953C15.5045 11.1715 15.5045 11.8201 15.5045 12.4817C15.1558 12.4817 14.8465 12.4817 14.4978 12.4817C14.4978 11.8213 14.4978 11.1727 14.4978 10.4971C14.1504 10.4971 13.8422 10.4971 13.517 10.4971C13.517 10.1526 13.517 9.83615 13.517 9.49396C13.8457 9.49396 14.1545 9.49396 14.4984 9.49396C14.4984 9.05158 14.4972 8.63498 14.499 8.21838C14.5013 7.65763 14.6572 7.50119 15.2092 7.50002C15.6275 7.49943 16.0459 7.50002 16.4865 7.50002Z" fill="#CA393F"/>
</svg>
