<svg width="43" height="43" viewBox="0 0 43 43" fill="none" xmlns="http://www.w3.org/2000/svg">
<path d="M24.8594 0C25.9277 0.660117 27.0043 1.3068 28.0617 1.98455C28.5396 2.29109 28.6655 2.78408 28.6639 3.3367C28.6563 7.31 28.6597 11.2833 28.6597 15.2566C28.6597 15.4204 28.6597 15.585 28.6597 15.742C29.4432 15.7832 30.1831 15.7865 30.9146 15.8646C36.4114 16.4509 41.0616 20.4242 42.4894 25.7664C42.6943 26.5323 42.7816 27.3285 42.9244 28.1112C42.9463 28.2313 42.9748 28.3506 43 28.4707C43 29.0863 43 29.7028 43 30.3184C42.9479 30.6602 42.8925 31.002 42.8446 31.3446C42.1098 36.6415 38.1121 41.1633 32.9445 42.4944C32.0308 42.7296 31.0826 42.8345 30.1504 43C29.6465 43 29.1426 43 28.6387 43C28.5169 42.9756 28.3951 42.9379 28.2725 42.9286C26.5517 42.7951 24.8997 42.3752 23.3821 41.5605C22.2928 40.9751 21.2732 40.2613 20.1638 39.5676C19.7321 39.8413 19.1938 40.1664 18.6731 40.5174C18.0272 40.9533 17.4083 40.9399 16.7633 40.5065C16.0553 40.0312 15.3229 39.5928 14.6108 39.1233C14.4109 38.9914 14.2673 38.9755 14.0565 39.1166C13.3476 39.5902 12.6103 40.0219 11.9039 40.4981C11.2447 40.9424 10.619 40.9491 9.95803 40.504C9.25088 40.0278 8.51686 39.5919 7.80383 39.1233C7.60395 38.9914 7.46033 38.9755 7.24953 39.1166C6.53986 39.5894 5.80332 40.0219 5.09617 40.4981C4.43689 40.9415 3.81121 40.9508 3.15025 40.5048C2.45486 40.0362 1.74604 39.5852 1.02713 39.1544C0.568574 38.8806 0.194004 38.5513 0 38.0449C0 26.2871 0 14.5293 0 2.77148C0.208281 2.50189 0.366172 2.15672 0.634922 1.97699C1.66373 1.28916 2.72781 0.654238 3.7793 0C4.00354 0 4.22693 0 4.45117 0C5.35232 0.555137 6.26523 1.0918 7.14791 1.67465C7.44941 1.87369 7.6493 1.83758 7.92477 1.65953C8.8024 1.09264 9.69516 0.550937 10.582 0C10.8063 0 11.0297 0 11.2539 0C12.1677 0.561016 13.089 1.11027 13.9893 1.69229C14.2563 1.86445 14.4386 1.84766 14.6931 1.68221C15.5816 1.10775 16.4861 0.558496 17.3848 0C17.609 0 17.8324 0 18.0566 0C18.9821 0.567734 19.9144 1.12623 20.8298 1.71076C21.0675 1.86277 21.2279 1.85773 21.4622 1.70572C22.3617 1.12287 23.2779 0.566055 24.1875 0C24.4117 0 24.6351 0 24.8594 0ZM27.1933 15.9293C27.2093 15.8806 27.2177 15.868 27.2177 15.8546C27.221 11.6982 27.2261 7.5418 27.216 3.38541C27.216 3.25439 27.1009 3.07551 26.9859 2.99908C26.2644 2.51785 25.5237 2.0677 24.8006 1.58898C24.6057 1.45965 24.4697 1.46973 24.2799 1.59486C23.5559 2.07105 22.8127 2.51869 22.0904 2.99824C21.4429 3.42824 20.8239 3.42236 20.1772 2.99236C19.4558 2.51197 18.7117 2.06602 17.9869 1.58982C17.7938 1.46301 17.6569 1.46637 17.4646 1.59402C16.7414 2.07273 16.0007 2.52289 15.2768 3.00076C14.6292 3.42908 14.0061 3.41816 13.3619 2.98984C12.6632 2.52541 11.9426 2.09457 11.2447 1.6293C11.0171 1.47729 10.8533 1.45965 10.6148 1.6209C9.89672 2.10549 9.15514 2.55564 8.42699 3.0268C7.8223 3.41732 7.22853 3.42404 6.62133 3.02932C5.88311 2.54893 5.13145 2.08785 4.39658 1.60326C4.19166 1.46805 4.04301 1.46721 3.83809 1.6041C3.16285 2.05342 2.48342 2.49854 1.78635 2.9109C1.50752 3.07635 1.42437 3.26279 1.42521 3.57857C1.43529 8.79904 1.43193 14.0187 1.43109 19.2391C1.43025 25.2575 1.43109 31.2749 1.42521 37.2933C1.42521 37.5654 1.47225 37.751 1.73428 37.9063C2.4557 38.3347 3.15781 38.7949 3.85824 39.2568C4.04889 39.382 4.18578 39.3862 4.38062 39.2568C5.11549 38.7705 5.86715 38.3112 6.60537 37.8299C7.22602 37.4251 7.82734 37.4318 8.44547 37.8383C9.13498 38.2918 9.84549 38.7126 10.53 39.1728C10.8054 39.3584 11.0095 39.3929 11.3035 39.1879C11.9812 38.7185 12.6968 38.3044 13.3846 37.8484C14.0162 37.4293 14.6259 37.4226 15.2608 37.8408C15.9847 38.3179 16.7188 38.7798 17.4562 39.235C17.5687 39.3038 17.7652 39.3694 17.8551 39.3181C18.3254 39.0527 18.7739 38.7479 19.2341 38.4548C11.8779 29.9211 17.0379 17.4452 27.1933 15.9293ZM17.2076 29.3677C17.2042 36.1007 22.6523 41.5723 29.3559 41.5689C36.0965 41.5655 41.5597 36.1108 41.5681 29.3744C41.5773 22.6859 36.1217 17.2176 29.4281 17.2059C22.6674 17.195 17.2101 22.6245 17.2076 29.3677Z" fill="#828282"/>
<path d="M7.13784 19.1669C7.13784 17.7534 7.13784 16.3735 7.13784 15.0004C5.24735 14.3218 4.27565 13.0939 4.29245 11.4285C4.30925 9.78664 5.30278 8.56047 7.16135 7.93059C7.16135 7.69879 7.14876 7.44936 7.16387 7.2016C7.19327 6.73381 7.48553 6.4491 7.90461 6.46002C8.3069 6.47094 8.62352 6.75648 8.57733 7.20328C8.5177 7.78109 8.75454 7.97426 9.27188 8.18842C10.645 8.75615 11.3664 9.85383 11.4546 11.3462C11.4823 11.8182 11.2195 12.139 10.8105 12.1743C10.4006 12.2096 10.0748 11.9425 10.0395 11.4697C9.97063 10.5333 9.53811 9.87146 8.63612 9.45574C8.61848 9.60355 8.59496 9.70685 8.59496 9.81015C8.59245 10.9851 8.6 12.1609 8.58825 13.3358C8.58573 13.5836 8.65459 13.6978 8.90403 13.7742C10.4485 14.2479 11.4546 15.5975 11.4689 17.1798C11.4832 18.7452 10.4787 20.1268 8.93762 20.6105C8.6462 20.7021 8.56053 20.8356 8.58909 21.1119C8.60504 21.2639 8.59664 21.4201 8.57901 21.573C8.53618 21.9417 8.3195 22.1525 7.95585 22.1995C7.60143 22.2449 7.29993 22.0307 7.19831 21.6788C7.19075 21.6519 7.17311 21.6226 7.17815 21.5982C7.3394 20.8381 6.85145 20.6433 6.26944 20.3695C5.04915 19.7967 4.42515 18.7461 4.30337 17.4057C4.25634 16.8892 4.51669 16.5323 4.94753 16.4852C5.37081 16.439 5.67399 16.7447 5.72858 17.2713C5.82684 18.2161 6.32067 18.8973 7.13784 19.1669ZM8.63444 15.2238C8.63444 16.5566 8.63444 17.8542 8.63444 19.1643C9.46 18.8914 10.0109 18.1095 10.0252 17.2327C10.0403 16.3307 9.49948 15.537 8.63444 15.2238ZM7.13028 13.4223C7.13028 12.0987 7.13028 10.807 7.13028 9.50529C6.30807 9.76732 5.72858 10.5912 5.72858 11.4663C5.72774 12.3414 6.31815 13.1779 7.13028 13.4223Z" fill="#828282"/>
<path d="M19.3835 11.4689C17.8038 11.4689 16.2232 11.4697 14.6435 11.4672C14.4763 11.4672 14.3042 11.4655 14.1446 11.4252C13.8028 11.3404 13.6247 11.091 13.6231 10.7525C13.6214 10.4132 13.7986 10.1629 14.1387 10.0748C14.2983 10.0336 14.4705 10.0319 14.6376 10.0319C17.7836 10.0294 20.9297 10.0294 24.0757 10.0319C24.2286 10.0319 24.3856 10.0336 24.5335 10.068C24.8979 10.1512 25.081 10.4115 25.0743 10.7676C25.0676 11.1036 24.887 11.3538 24.5402 11.4303C24.3781 11.4655 24.2076 11.4681 24.0405 11.4681C22.4876 11.4706 20.9356 11.4689 19.3835 11.4689Z" fill="#828282"/>
<path d="M19.4029 6.45674C20.997 6.45674 22.591 6.45506 24.185 6.45758C24.7502 6.45842 25.0845 6.72717 25.0828 7.16893C25.0811 7.61068 24.7427 7.88699 24.1833 7.88783C20.9533 7.88951 17.7232 7.89035 14.4924 7.88699C13.8087 7.88615 13.4174 7.34781 13.7096 6.82627C13.8818 6.51889 14.164 6.45254 14.494 6.45338C16.1301 6.4601 17.7669 6.45674 19.4029 6.45674Z" fill="#828282"/>
<path d="M19.3156 15.0433C17.6796 15.0433 16.0435 15.0484 14.4075 15.04C13.7886 15.0366 13.4316 14.4849 13.7121 13.9893C13.8944 13.6677 14.1976 13.6081 14.5385 13.6089C16.4122 13.6139 18.2859 13.6114 20.1596 13.6114C21.516 13.6114 22.8723 13.6131 24.2287 13.6106C24.578 13.6097 24.8661 13.7114 25.0164 14.0498C25.2348 14.5403 24.8888 15.0341 24.3068 15.04C23.1604 15.0509 22.0132 15.0433 20.8668 15.0442C20.3503 15.0442 19.8329 15.0433 19.3156 15.0433Z" fill="#828282"/>
<path d="M8.61178 33.6801C7.22856 33.6801 5.84533 33.6818 4.46127 33.6793C3.89102 33.6785 3.58531 33.4139 3.59623 32.9453C3.60715 32.5002 3.90949 32.2507 4.45959 32.2499C7.22604 32.2482 9.99332 32.2474 12.7598 32.2499C13.2956 32.2507 13.608 32.5212 13.6089 32.9638C13.6097 33.4064 13.2964 33.6768 12.7615 33.6776C11.3782 33.6827 9.99501 33.6801 8.61178 33.6801Z" fill="#828282"/>
<path d="M8.61674 25.0903C9.9437 25.0903 11.2715 25.0894 12.5984 25.0903C12.7379 25.0903 12.8798 25.0836 13.0167 25.1062C13.3619 25.1625 13.5634 25.3792 13.6021 25.7219C13.6407 26.067 13.4845 26.3232 13.1628 26.4508C13.0251 26.5054 12.863 26.5197 12.7127 26.5197C9.97477 26.5239 7.23604 26.5222 4.49815 26.5222C4.45616 26.5222 4.41417 26.5239 4.37217 26.5214C3.87751 26.4928 3.58356 26.2081 3.597 25.7722C3.61044 25.3523 3.89262 25.0945 4.38393 25.092C5.79487 25.0869 7.20581 25.0911 8.61674 25.0903Z" fill="#828282"/>
<path d="M8.5841 30.0942C7.26806 30.0942 5.95287 30.0942 4.63683 30.0934C4.49742 30.0934 4.35549 30.0976 4.21775 30.0791C3.85158 30.0304 3.63826 29.8171 3.60131 29.4484C3.56435 29.0831 3.77011 28.7858 4.12957 28.7001C4.28998 28.6623 4.46215 28.6606 4.62843 28.6606C7.27394 28.6581 9.91945 28.6589 12.5641 28.6598C12.7178 28.6598 12.874 28.6573 13.0235 28.6867C13.404 28.7614 13.6442 29.0721 13.6038 29.44C13.5619 29.8246 13.3376 30.0438 12.9504 30.0833C12.8253 30.0959 12.6985 30.0934 12.5734 30.0934C11.243 30.0951 9.91357 30.0942 8.5841 30.0942Z" fill="#828282"/>
<path d="M16.4609 17.2067C17.1454 17.2067 17.8298 17.2025 18.5135 17.2084C19.0325 17.2126 19.3248 17.4629 19.3357 17.8962C19.3466 18.3464 19.0401 18.6336 18.5135 18.6361C17.1588 18.642 15.8041 18.642 14.4495 18.6361C13.9389 18.6336 13.6029 18.3245 13.6164 17.8962C13.629 17.4788 13.9456 17.2118 14.4495 17.2076C15.1197 17.2025 15.7907 17.2067 16.4609 17.2067Z" fill="#828282"/>
<path d="M15.0383 20.7955C15.3036 20.7955 15.5707 20.7736 15.8336 20.8005C16.2317 20.8417 16.471 21.123 16.471 21.5001C16.471 21.8772 16.2317 22.1745 15.8336 22.1972C15.3045 22.2274 14.7712 22.2266 14.2429 22.193C13.8616 22.1686 13.592 21.8352 13.6198 21.4791C13.65 21.1012 13.8558 20.8475 14.2429 20.8039C14.505 20.7745 14.7729 20.798 15.0383 20.798C15.0383 20.7972 15.0383 20.7963 15.0383 20.7955Z" fill="#828282"/>
<path d="M33.645 28.6597C32.6195 28.6597 31.6125 28.6597 30.6064 28.6597C29.067 28.6597 27.5275 28.6623 25.9873 28.6589C24.9139 28.6564 24.3655 28.1012 24.3622 27.0246C24.3613 26.6609 24.3597 26.2964 24.3622 25.9328C24.3706 24.9544 24.9551 24.3648 25.9344 24.3631C28.3833 24.3589 30.8332 24.3614 33.2822 24.3614C33.3939 24.3614 33.5047 24.3614 33.655 24.3614C33.7525 23.7979 33.9918 23.3301 34.5394 23.0832C35.1021 22.8296 35.6396 22.8833 36.1225 23.252C37.0455 23.9566 37.9643 24.6671 38.8638 25.402C39.6196 26.0193 39.6037 27.033 38.8402 27.6511C38.0248 28.312 37.1555 28.91 36.3753 29.6079C35.4439 30.4427 33.9204 30.1967 33.645 28.6597ZM25.8176 27.2261C25.9881 27.2261 26.1376 27.2261 26.2879 27.2261C28.1625 27.2261 30.0378 27.2261 31.9124 27.2261C32.6959 27.2261 33.4795 27.2203 34.2631 27.2287C34.8527 27.2354 35.1029 27.494 35.1122 28.0794C35.1147 28.2491 35.1122 28.4187 35.1122 28.6698C36.1141 27.9156 37.0279 27.2278 37.9727 26.5156C37.0169 25.7976 36.1007 25.1089 35.129 24.3782C35.1206 24.5546 35.1139 24.6361 35.1122 24.7167C35.0987 25.633 34.94 25.7934 34.0372 25.7934C31.4631 25.7934 28.8881 25.7934 26.314 25.7934C26.1519 25.7934 25.9898 25.7934 25.7941 25.7934C25.7941 26.2007 25.7924 26.5484 25.7949 26.8952C25.7949 26.991 25.8075 27.085 25.8176 27.2261Z" fill="#828282"/>
<path d="M25.1239 30.0941C25.3045 30.0941 25.4708 30.0941 25.637 30.0941C27.9869 30.0941 30.3368 30.0933 32.6875 30.095C33.8625 30.0958 34.4025 30.6392 34.4059 31.8158C34.4067 32.0812 34.4059 32.3474 34.4059 32.6128C34.405 33.8818 33.8877 34.4051 32.6313 34.4051C30.2948 34.4059 27.9592 34.4051 25.6228 34.4051C25.4573 34.4051 25.2919 34.4051 25.1063 34.4051C24.9979 35.0795 24.6712 35.5556 24.0329 35.7589C23.5164 35.9235 23.0335 35.8236 22.6077 35.4935C21.7125 34.7998 20.8155 34.1078 19.9337 33.3972C19.1392 32.7573 19.1476 31.731 19.9446 31.0944C20.7525 30.4485 21.6108 29.859 22.3768 29.1669C23.3023 28.3313 24.8073 28.5404 25.1239 30.0941ZM23.6315 34.3857C23.6449 34.2211 23.6533 34.1539 23.655 34.0868C23.6785 33.105 23.8129 32.9698 24.7787 32.9698C27.3377 32.9698 29.8976 32.9698 32.4566 32.9698C32.617 32.9698 32.7782 32.9698 32.9395 32.9698C32.9395 32.4558 32.9395 32.0157 32.9395 31.5311C32.7598 31.5311 32.6094 31.5311 32.4591 31.5311C30.6408 31.5311 28.8226 31.5311 27.0052 31.5311C26.1804 31.5311 25.3549 31.5361 24.5301 31.5286C23.9061 31.5227 23.6701 31.2834 23.6575 30.6669C23.6542 30.5073 23.6567 30.3469 23.6567 30.0967C22.6606 30.8466 21.7511 31.5319 20.7979 32.2492C21.7494 32.9672 22.6598 33.6526 23.6315 34.3857Z" fill="#828282"/>
</svg>
