<svg width="39" height="38" viewBox="0 0 39 38" fill="none" xmlns="http://www.w3.org/2000/svg">
<path d="M38.0012 2.15132C38.0012 10.8592 38.0012 19.5679 38.0012 28.2758C37.3677 29.9616 36.7222 30.4033 34.8951 30.4033C32.2857 30.4033 29.6756 30.4033 27.0662 30.4033C26.9226 30.4033 26.7791 30.4033 26.6185 30.4033C26.6185 31.4764 26.6185 32.4967 26.6185 33.5593C27.2424 33.5593 27.8455 33.5474 28.4478 33.5623C29.5328 33.5891 30.3709 34.062 30.7932 35.0741C30.9717 35.5017 31.0067 36.0081 31.0208 36.481C31.052 37.5348 30.5701 37.9988 29.5216 37.9988C22.5084 37.9988 15.496 37.9988 8.48282 37.9988C8.37128 37.9988 8.25973 38.0033 8.14893 37.9951C7.499 37.9467 7.003 37.4329 6.97474 36.78C6.96879 36.632 6.97176 36.4833 6.97176 36.3345C6.97325 34.6026 8.01062 33.5623 9.73807 33.5593C10.2794 33.5586 10.8208 33.5593 11.3741 33.5593C11.3741 32.4907 11.3741 31.4623 11.3741 30.4041C11.1956 30.4041 11.0484 30.4041 10.9019 30.4041C8.20545 30.4041 5.50904 30.4071 2.81264 30.4004C2.50626 30.3996 2.19022 30.381 1.895 30.3059C0.723038 30.0055 0.00245838 29.0202 0.00171475 27.7456C-0.000516143 22.2048 0.000970392 16.6633 0.000970392 11.1225C0.000970392 8.2781 -0.00200268 5.43297 0.00245911 2.58858C0.00469 1.372 0.723035 0.426844 1.88236 0.0825431C1.95003 0.062465 2.01324 0.0275143 2.07868 0C13.3596 0 24.6412 0 35.9221 0C36.253 0.152444 36.6055 0.269938 36.9103 0.463282C37.5261 0.851457 37.8257 1.46644 38.0012 2.15132ZM19.0387 1.26269C13.6087 1.26269 8.17942 1.26269 2.74943 1.26269C1.75371 1.26269 1.26589 1.74828 1.26589 2.73879C1.26514 11.0377 1.26514 19.3366 1.26589 27.6363C1.26589 28.6521 1.74478 29.1332 2.76653 29.1332C13.5886 29.134 24.4107 29.134 35.2327 29.1332C36.2552 29.1332 36.7356 28.6528 36.7356 27.6378C36.7363 19.3508 36.7363 11.0645 36.7356 2.77746C36.7356 1.73563 36.2612 1.26269 35.2156 1.26269C29.8235 1.26269 24.4315 1.26269 19.0387 1.26269ZM8.23891 36.7086C15.4373 36.7086 22.5902 36.7086 29.7611 36.7086C29.7611 36.4498 29.7759 36.2156 29.7581 35.9836C29.7031 35.2719 29.1379 34.8265 28.2969 34.8265C22.1009 34.8257 15.905 34.8257 9.70981 34.8272C9.56257 34.8272 9.41236 34.8346 9.2681 34.8622C8.67245 34.9752 8.26568 35.4489 8.24114 36.0535C8.23147 36.2624 8.23891 36.4714 8.23891 36.7086ZM12.6925 33.5348C16.9238 33.5348 21.1089 33.5348 25.2956 33.5348C25.2956 32.481 25.2956 31.4526 25.2956 30.4294C21.0784 30.4294 16.8933 30.4294 12.6925 30.4294C12.6925 31.4742 12.6925 32.4944 12.6925 33.5348Z" fill="white"/>
<path d="M18.9764 24.0589C14.0163 24.0589 9.05633 24.0411 4.09706 24.0723C2.966 24.0797 2.51462 23.3755 2.51833 22.4846C2.54213 16.3497 2.53097 10.2147 2.53097 4.08052C2.53097 2.99036 2.995 2.52856 4.09111 2.52856C14.0357 2.52856 23.9795 2.52856 33.9241 2.52856C35.0098 2.52856 35.4723 2.99556 35.4723 4.09316C35.4723 10.2281 35.4723 16.3631 35.4723 22.4973C35.4723 23.6187 35.0269 24.0589 33.8929 24.0589C28.9209 24.0589 23.9483 24.0589 18.9764 24.0589ZM34.1851 3.81505C24.0546 3.81505 13.9464 3.81505 3.82266 3.81505C3.82266 10.1471 3.82266 16.4575 3.82266 22.7657C13.9591 22.7657 24.068 22.7657 34.1851 22.7657C34.1851 16.4367 34.1851 10.1359 34.1851 3.81505Z" fill="white"/>
<path d="M19.0186 25.9707C19.4254 25.9707 19.8322 25.9633 20.2382 25.973C20.6241 25.9819 20.8859 26.2325 20.8963 26.5805C20.9067 26.9404 20.6383 27.2245 20.2389 27.2305C19.4135 27.2424 18.5881 27.2424 17.7627 27.2305C17.3626 27.2245 17.0941 26.9412 17.1045 26.5813C17.115 26.2325 17.376 25.9819 17.7619 25.973C18.1813 25.9633 18.6 25.9707 19.0186 25.9707Z" fill="white"/>
<path d="M15.6248 17.4754C13.7731 18.7425 11.9371 19.9978 10.1018 21.2553C9.57682 21.6144 9.21914 21.6211 8.96853 21.2694C8.71496 20.9132 8.84286 20.583 9.37381 20.2187C11.1176 19.0244 12.8614 17.8301 14.6053 16.6358C14.7064 16.5667 14.8045 16.4938 14.9183 16.4127C13.8014 14.3031 13.6058 12.1279 14.4454 9.89408C15.1362 8.05731 16.381 6.69275 18.1211 5.79444C21.5686 4.01419 25.8371 5.12815 27.9921 8.35774C30.1613 11.6081 29.5403 15.9777 26.5785 18.4912C23.4909 21.111 18.5495 20.9772 15.6248 17.4754ZM27.8627 12.673C27.8679 9.18317 25.0533 6.34771 21.5627 6.32614C18.0758 6.30458 15.2113 9.15863 15.2083 12.6567C15.2061 16.1525 18.0222 18.9872 21.5084 18.9976C25.0168 19.008 27.8575 16.1815 27.8627 12.673Z" fill="white"/>
<path d="M6.32862 6.32543C6.32862 7.11517 6.32862 7.85434 6.32862 8.59276C6.32862 8.87683 6.33457 9.16164 6.32564 9.44571C6.313 9.86437 6.06835 10.1246 5.70099 10.1246C5.33885 10.1246 5.07337 9.86065 5.06668 9.44719C5.05403 8.69315 5.06221 7.93911 5.06221 7.18433C5.06221 6.90026 5.05255 6.6147 5.06593 6.33138C5.10014 5.60709 5.59242 5.08357 6.31151 5.06721C7.36226 5.04341 8.41376 5.05234 9.46451 5.06424C9.87648 5.06944 10.1345 5.34458 10.1271 5.71119C10.1196 6.07557 9.85789 6.31874 9.43476 6.32171C8.42119 6.32989 7.40837 6.32543 6.32862 6.32543Z" fill="white"/>
<path d="M12.3261 6.31955C12.2153 6.31955 12.1038 6.32847 11.9937 6.31806C11.6606 6.28683 11.4405 6.0682 11.4159 5.75439C11.3899 5.42124 11.581 5.13643 11.9186 5.08661C12.1841 5.0472 12.4607 5.04794 12.7284 5.07471C13.0884 5.11041 13.3092 5.3915 13.2914 5.73282C13.2743 6.07415 13.0356 6.29873 12.6585 6.32178C12.5477 6.32847 12.4369 6.32252 12.3261 6.32252C12.3261 6.32178 12.3261 6.32104 12.3261 6.31955Z" fill="white"/>
<path d="M6.3279 12.3607C6.3279 12.4469 6.33088 12.5332 6.32716 12.6194C6.30783 13.0418 6.07284 13.2909 5.69805 13.2895C5.34705 13.288 5.09571 13.0411 5.0667 12.6507C5.05332 12.467 5.05555 12.2811 5.06373 12.0959C5.08381 11.6587 5.33664 11.3984 5.7211 11.4103C6.09068 11.4215 6.31229 11.6728 6.32716 12.1019C6.33013 12.1881 6.3279 12.2744 6.3279 12.3607Z" fill="white"/>
<path d="M20.8838 8.89167C20.9685 8.37783 20.7038 7.62007 21.5404 7.62527C22.3599 7.63048 22.1167 8.38154 22.1844 8.82624C22.6863 9.02776 23.1726 9.17723 23.6129 9.41222C24.1937 9.72082 24.5841 10.2079 24.6882 10.8831C24.7521 11.2988 24.5446 11.6297 24.1795 11.7041C23.8211 11.777 23.5341 11.5449 23.4418 11.1077C23.3467 10.6541 22.8737 10.3165 22.2044 10.2429C22.2044 10.8415 22.2044 11.4379 22.2044 12.0499C22.487 12.1339 22.7837 12.2075 23.0693 12.3101C23.5906 12.4983 24.0442 12.7898 24.3684 13.2531C24.9365 14.0636 24.7863 15.0861 23.9163 15.6989C23.4151 16.0521 22.809 16.2551 22.2498 16.525C22.2238 16.4983 22.1977 16.4715 22.1717 16.4447C22.1717 16.6403 22.1799 16.8359 22.1702 17.0307C22.1494 17.4613 21.8817 17.7431 21.5144 17.7305C21.1544 17.7186 20.9217 17.4524 20.9076 17.0285C20.9009 16.8329 20.9061 16.6373 20.9061 16.5206C20.358 16.2915 19.8486 16.1309 19.392 15.8759C18.7934 15.5397 18.4023 15.0207 18.3755 14.2971C18.3621 13.9424 18.5733 13.6866 18.8938 13.6346C19.2069 13.584 19.54 13.7461 19.5839 14.0517C19.691 14.7976 20.2546 14.95 20.8994 15.1397C20.8994 14.5269 20.9068 13.9536 20.8882 13.3802C20.886 13.3215 20.7387 13.2538 20.648 13.2137C20.1662 13.0017 19.6292 12.8716 19.2061 12.5771C18.0892 11.7993 18.0728 10.4273 19.1682 9.61671C19.5631 9.32447 20.0702 9.18318 20.5305 8.98165C20.6428 8.93257 20.7685 8.91993 20.8838 8.89167ZM20.8823 10.1164C20.4785 10.3395 20.1297 10.4845 19.8397 10.7054C19.5556 10.9225 19.5571 11.249 19.8427 11.4646C20.1357 11.6862 20.4867 11.8305 20.8823 12.0469C20.8823 11.3739 20.8823 10.8251 20.8823 10.1164ZM22.2037 13.2895C22.2037 13.9803 22.2037 14.5381 22.2037 15.2096C22.5911 14.9969 22.9339 14.8563 23.2188 14.6399C23.5177 14.4124 23.5162 14.083 23.2165 13.8562C22.931 13.639 22.5882 13.4992 22.2037 13.2895Z" fill="white"/>
</svg>
