<svg width="24" height="26" viewBox="0 0 24 26" fill="none" xmlns="http://www.w3.org/2000/svg">
<path d="M12.9245 0C9.35383 0 5.33896 0.980804 2.29897 3.21518C2.00478 3.39509 1.77404 3.74911 1.88364 4.34107C1.9471 4.63705 2.17784 5.93125 2.47203 6.63929C2.70854 7.23125 3.29115 7.23125 3.64303 6.9933C5.51779 5.69911 9.20961 4.225 12.4284 4.225C15.7684 4.225 15.8261 5.87321 15.8261 8.46741V10.7018C10.7844 11.3576 3.58535 12.7098 1.76827 13.4759C-0.279537 14.4219 0.0146555 18.9022 0.0146555 19.9643C0.0146555 21.0263 0.891465 26 7.21949 26C9.97682 26 13.7783 24.7987 16.0626 23.5567V25.0308C16.0626 25.2049 16.1837 25.5067 16.4144 25.5589C16.5933 25.617 19.3391 25.675 19.8698 25.675C20.4005 25.675 23.4751 25.6924 23.7058 25.6344C23.9423 25.5763 24 25.2804 24 25.1062V7.89286C23.9942 3.23259 20.66 0 12.9245 0ZM15.8203 20.1964C14.5858 20.9625 13.011 21.6125 11.2574 21.6125C8.21167 21.6125 7.85979 19.6683 7.85402 19.0183C7.85402 18.3103 7.68097 16.5402 8.90965 15.9482C10.3114 15.1821 13.2418 14.242 15.8203 14.004V20.1964Z" fill="#28336C"/>
</svg>
