<svg width="134" height="134" viewBox="0 0 134 134" fill="none" xmlns="http://www.w3.org/2000/svg">
<path d="M63.0262 0.155273C65.7079 0.155273 68.3922 0.155273 71.0739 0.155273C71.4062 0.227962 71.7359 0.342188 72.0734 0.368148C82.0577 1.121 91.4397 3.90913 100.04 9.02591C117.714 19.5372 128.553 34.9135 132.358 55.1626C132.813 57.5743 133.044 60.0275 133.379 62.4626C133.379 65.1443 133.379 67.8286 133.379 70.5103C133.303 70.9257 133.215 71.341 133.158 71.759C132.797 74.368 132.569 77.003 132.07 79.5834C126.896 106.341 105.248 127.48 78.3635 132.054C75.9466 132.465 73.5064 132.737 71.0739 133.075C68.3039 133.075 65.5366 133.075 62.7666 133.075C62.481 133.002 62.1981 132.883 61.9099 132.862C56.2765 132.462 50.7626 131.424 45.4692 129.464C21.3314 120.523 6.68456 103.394 1.51587 78.1893C1.01483 75.7465 0.807153 73.2439 0.464478 70.7699C0.464478 67.9999 0.464478 65.2326 0.464478 62.4626C0.799365 60.0301 1.06675 57.5872 1.48212 55.1678C6.10565 28.2365 27.1958 6.63237 53.9401 1.46627C56.9385 0.884758 59.994 0.586214 63.0262 0.155273ZM65.1549 91.0579C71.523 90.8086 76.066 90.7074 80.5987 90.427C83.8308 90.2271 87.1174 90.0999 90.2534 89.3808C94.9548 88.3035 98.2465 85.6218 99.0409 80.3986C100.357 71.7382 100.549 63.0934 99.285 54.4253C98.9241 51.9513 98.6749 49.4357 96.7876 47.4835C94.5602 45.1782 91.8499 43.8491 88.6983 43.5038C77.1045 42.2265 65.4794 42.0266 53.844 42.7743C50.4406 42.9924 46.9853 43.13 43.6702 43.8413C39.353 44.7706 35.8977 47.0603 35.0228 51.863C33.3172 61.2269 33.2887 70.6063 34.7606 80.0066C35.1371 82.4157 35.7886 84.6327 37.676 86.3331C39.7658 88.2152 42.1982 89.4717 44.9734 89.6924C52.2916 90.2739 59.6306 90.6918 65.1549 91.0579Z" fill="#4890C1"/>
<path d="M59.0568 53.9294C65.9856 58.1843 72.743 62.3328 79.7108 66.611C72.7716 70.8763 65.9985 75.0404 59.0568 79.3082C59.0568 70.8036 59.0568 62.5015 59.0568 53.9294Z" fill="#4890C1"/>
</svg>
